<svg width="382" height="492" viewBox="0 0 382 492" fill="none" xmlns="http://www.w3.org/2000/svg">
<path fill-rule="evenodd" clip-rule="evenodd" d="M26.1862 317.462C27.7908 313.832 25.4477 310.211 24.148 306.699C19.5307 294.519 32.1599 263.798 40.9925 263.349C44.2227 256.462 52.8439 253.606 59.6292 249.64C67.329 245.679 74.8191 241.131 82.8269 237.659C83.2722 234.378 88.0994 233.565 91.0513 235.912C99.1587 231.756 108.881 232.528 117.572 229.805C124.175 221.009 124.671 211.76 126.419 203.274C127.181 199.575 126.372 196.006 129.439 192.708C139.742 180.767 180.454 175.589 195.464 182.666C203.544 178.513 203.738 186.034 205.022 190.675C206.448 192.998 207.22 195.627 206.981 198.398C210.806 204.982 214.05 213.217 222.088 218.134C232.289 224.374 247.982 226.746 257.927 229.805C259.414 228.626 260.385 227.184 260.84 225.479C276.253 228.24 291.212 233.094 304.125 240.672C318.797 244.208 329.129 254.041 336.601 264.585C337.424 265.696 337.618 266.83 337.378 267.87C360.354 295.624 371.32 328.85 372.86 362.407C387.635 369.715 365.837 435.358 360.763 448.986C360.758 448.984 360.753 448.982 360.748 448.98C357.456 453.783 353.718 467.487 345.479 466.427C339.828 471.693 330.821 470.658 323.152 471.062C324.401 475.011 323.787 479.528 322.301 483.43C320.542 488.075 311.914 488.232 310.69 483.168C234.317 495.396 155.955 485.639 78.7239 487.475C56.3939 487.605 34.0659 488.175 11.7895 489.486C8.65271 489.67 5.47253 487.029 5.686 484.455C10.4754 442.466 14.9732 387.229 20.3289 345.652C21.5991 336.17 22.6036 326.583 26.1862 317.462Z" fill="#EDB98A"/>
<path fill-rule="evenodd" clip-rule="evenodd" d="M260.84 225.479C260.815 225.573 260.788 225.666 260.76 225.758L261.052 226.304C262.902 229.82 263.827 232.732 263.827 235.039C263.827 240.299 235.42 292.346 172.399 287.563C130.385 284.374 104.776 268.646 95.5718 240.377L95.0327 234.269C93.6719 234.714 92.3412 235.251 91.0514 235.912C88.0995 233.565 83.2724 234.378 82.8271 237.659C74.8192 241.131 67.3292 245.68 59.6293 249.64L59.1586 249.912C52.4506 253.739 44.1487 256.621 40.9927 263.349L39.7292 263.416C31.2948 263.871 19.5309 294.519 24.1482 306.699C25.4479 310.211 27.791 313.832 26.1864 317.462C22.6038 326.584 21.5992 336.17 20.3291 345.652C14.9734 387.23 10.4756 442.466 5.68622 484.455C5.47275 487.029 8.65991 489.249 11.7896 489.486C76.5986 494.383 320.542 490.6 322.301 485.955C323.787 482.054 324.401 475.011 323.152 471.062C330.821 470.658 339.828 471.693 345.479 466.427C353.718 467.488 357.456 453.783 360.748 448.98L360.763 448.986C365.837 435.358 387.635 369.715 372.86 362.407C371.32 328.85 360.354 295.624 337.378 267.87C337.608 266.873 337.44 265.791 336.701 264.724L336.601 264.585C329.129 254.041 318.797 244.208 304.125 240.672C291.212 233.094 276.253 228.24 260.84 225.479ZM74.1961 313.342C77.4944 311.234 103.409 315.45 122.241 319.238C134.796 321.764 143.541 325.179 148.478 329.483L170.577 349.471L176.169 352.451C176.169 358.673 175.738 365.216 174.876 372.082C174.013 378.947 170.211 386.211 163.471 393.876C143.609 389.379 131.732 386.827 127.841 386.22C122.005 385.309 117.382 377.413 114.639 374.699C111.895 371.985 101.375 371.683 93.3587 369.592C88.0146 368.198 84.2978 364.637 82.2083 358.909C70.5278 356.832 62.8062 355.446 59.0436 354.753C55.2811 354.06 55.2811 352.299 59.0436 349.471L102.788 348.21C85.3283 345.135 74.7287 343.386 70.989 342.963C65.3793 342.328 50.3105 338.472 50.3105 335.485C50.3105 332.558 73.2503 332.611 85.478 332.614L86.4622 332.615C94.4902 332.627 107.288 333.247 124.856 334.474L114.639 330.442C91.5858 326.764 78.5226 324.924 75.4488 324.924C72.3749 324.924 70.1973 323.029 68.9159 319.238C70.2372 316.712 71.9973 314.747 74.1961 313.342Z" fill="#FFCF77"/>
<path fill-rule="evenodd" clip-rule="evenodd" d="M102.497 314.041L80.0492 272.141C77.7879 267.395 74.7375 265.022 70.8978 265.022C67.0582 265.022 47.7299 265.471 12.913 266.369C5.7876 267.118 3.37528 269.042 5.67602 272.141C7.97675 275.239 26.2327 305.619 60.4439 363.279H82.2082V358.909L57.9779 353.327C55.0379 350.756 55.8599 349.471 60.4439 349.471C65.028 349.471 80.6547 349.051 107.324 348.21L69.1792 343.598L50.3104 337.618L53.0859 334.474L69.1792 332.58L121.589 334.474L107.324 330.499L75.4487 324.924C71.269 322.499 69.1792 320.097 69.1792 317.718C69.1792 315.34 74.7774 313.693 85.9739 312.778L102.497 314.041Z" fill="white"/>
<path fill-rule="evenodd" clip-rule="evenodd" d="M203.762 185.257C203.543 184.765 202.65 184.83 202.633 185.383C202.282 197.189 205.848 211.616 217.313 219.591C223.198 223.685 230.978 225.558 238.123 227.711L238.929 227.956L251.553 231.831C254.901 232.859 258.513 234.44 261.47 232.988C259.077 237.878 257.068 242.903 254.153 247.616C250.525 253.483 246.139 258.851 240.77 263.734C219.501 283.075 185.841 288.975 155.634 283.308C140.08 280.389 124.944 274.859 114.332 264.771C106.267 257.103 101.633 246.812 100.542 236.66C100.861 236.702 101.195 236.701 101.539 236.638C105.361 235.951 109.219 234.263 112.582 232.608L112.906 232.448C116.142 230.843 119.515 229.003 121.837 226.509C123.374 224.858 124.95 221.339 126.564 215.953C127.223 212.917 127.841 206.868 127.736 203.799C127.726 203.509 126.167 203.338 126 203.639C124.56 206.245 124.094 211.97 122.982 214.682L122.757 215.223C121.57 218.055 120.551 221.503 118.089 223.792C113.467 228.091 106.493 229.911 100.268 232.067C99.821 227.208 90.4036 227.322 90.5231 232.389C90.5297 232.664 90.5446 232.937 90.5563 233.211C89.8136 233.548 89.0994 233.933 88.4316 234.304L87.7801 234.668C85.3144 236.051 82.8298 237.364 80.2043 238.536C75.1212 240.807 69.74 242.607 64.5318 244.668C59.2629 246.753 54.3351 249.237 49.7342 252.211C47.5732 253.607 45.5011 255.094 43.5359 256.674L43.0026 257.107C41.1319 258.643 38.6978 260.359 37.632 262.377C37.3971 262.822 36.2202 263.856 35.5816 263.891C25.6862 264.425 15.8119 265.18 5.97855 266.312C3.43271 266.605 2.42639 267.686 3.3674 269.435C6.6012 275.444 19.261 299.441 22.6275 305.881C22.2343 310.612 22.7654 316.182 22.4109 320.915C21.8926 327.821 21.2139 334.724 20.4003 341.611C17.4893 366.246 13.0763 390.762 9.08875 415.289C7.0929 427.565 5.27328 439.858 3.47711 452.154C2.5701 458.368 1.80048 464.588 1.20807 470.828C0.961304 473.428 0.737396 476.03 0.540039 478.634L0.369965 480.942C0.135834 483.848 -0.404541 486.623 1.7775 489.117C2.76672 490.248 5.02609 490.885 6.32687 489.6C7.96213 487.985 8.56989 486.778 8.72614 484.655C8.84564 483.031 8.87427 481.399 8.96414 479.773C9.1582 476.247 9.40231 472.724 9.68829 469.203C10.2588 462.164 10.9099 455.126 11.6642 448.099C14.3081 423.457 19.3329 399 22.6765 374.419C24.3618 362.027 25.559 349.611 26.1927 337.15C26.5099 330.928 26.6248 324.705 26.5502 318.477C26.5222 316.151 26.3883 313.835 26.1948 311.525C31.2038 320.902 36.4697 330.188 41.975 339.351L43.28 341.521C46.7689 347.313 50.3516 353.126 54.5447 358.586L55.2653 359.517C56.9644 361.735 59.285 365.232 62.3828 365.932C64.5405 366.419 67.1773 366.076 69.3896 366.041C71.5852 366.007 73.7832 365.999 75.9772 365.926C78.4383 365.844 80.7865 365.578 83.1649 365.049C83.5602 364.962 83.934 364.866 84.2746 364.745C86.6709 367.977 90.7422 370.438 94.9049 371.871C98.2393 373.02 101.734 373.807 105.234 374.536L106.47 374.791C110.222 375.562 114.515 375.928 116.632 378.914L117.123 379.607C118.697 381.809 120.207 383.744 122.811 385.323C125.614 387.024 128.935 388.094 132.244 388.926C135.631 389.778 139.098 390.43 142.537 391.129L143.474 391.321C145.745 391.789 148.036 392.219 150.293 392.728C151.256 392.945 152.236 393.169 153.181 393.437C154.287 393.75 155.091 394.239 155.964 394.771C156.748 397.029 160.101 398.256 162.858 398.098C164.306 398.016 165.604 397.611 166.786 397.018C168.849 398.465 171.12 399.761 173.222 401.101C176.167 402.978 179.123 404.842 182.095 406.689C188.223 410.495 194.398 414.251 200.638 417.933C211.712 424.469 223.026 430.706 234.534 436.711C239.332 439.215 244.162 441.715 249.04 444.155L248.52 444.314L247.487 444.636C245.046 445.387 242.327 446.6 241.854 448.946C241.479 450.807 242.741 452.09 244.97 452.317C247.62 452.587 249.683 451.044 251.333 449.571C252.061 448.922 252.876 448.318 253.574 447.65C253.858 447.376 254.077 447.062 254.269 446.732C259.083 449.069 263.948 451.328 268.89 453.44L270.127 453.965C282.382 459.129 294.311 464.787 306.671 469.805C309.895 471.114 313.825 472.529 317.923 473.496C316.836 476.968 316.852 480.781 316.825 484.306C316.799 487.741 323.423 487.724 323.283 484.306L323.216 482.655C323.095 479.879 322.898 476.997 322.099 474.296C334.171 475.946 346.231 472.36 348.477 471.284C350.955 470.096 353.205 468.195 355.077 466.432C359.084 462.659 361.864 458.135 364.331 453.585C369.614 443.84 373.358 433.423 376.095 423.005C386.185 384.596 381.845 343.486 365.459 306.668C361.365 297.469 356.532 288.472 350.993 279.802L350.305 278.73C344.778 270.155 338.636 261.613 330.833 254.316C322.706 246.716 312.68 240.805 301.764 236.217C296.437 233.978 290.956 232.038 285.353 230.318C284.453 230.042 283.547 229.794 282.639 229.558C276.801 226.491 269.715 223.556 262.627 223.672C262.146 223.679 261.756 223.829 261.465 224.056C261.123 224.106 260.781 224.165 260.439 224.247C259.684 224.428 258.886 225.11 258.994 225.811L259.031 226.044C259.051 226.158 259.076 226.268 259.119 226.375C258.866 226.406 258.617 226.456 258.374 226.525C251.592 224.946 244.92 222.533 238.302 220.586L236.795 220.147C231.252 218.547 225.566 216.978 221.019 213.81C216.496 210.659 213.095 206.577 210.636 202.165C207.606 196.728 206.25 190.839 203.762 185.257ZM67.9866 471.99C66.644 471.167 65.0562 472.123 64.5536 473.141C62.9041 476.485 63.7192 481.681 66.0444 484.637C68.4539 487.7 74.2213 486.491 74.3607 482.781C74.5063 478.912 71.7771 474.316 67.9866 471.99ZM54.1168 379.662C53.9963 379.227 53.1771 379.231 53.0546 379.662C51.9367 383.585 51.9627 387.81 51.6345 391.833L51.5965 392.279C51.2028 396.715 50.8718 401.164 50.6359 405.607C50.1726 414.35 49.619 423.094 48.9985 431.83C48.6906 436.163 48.3607 440.494 48.0088 444.825C46.9067 444.319 45.7714 443.874 44.5947 443.482C42.8318 442.895 41.1153 442.828 39.2211 442.844C36.9143 442.863 35.1774 444.535 35.4828 446.397C35.8157 448.425 37.9826 449.294 40.2328 449.005C42.725 448.683 45.228 448.185 47.7443 447.979C47.4639 451.328 47.1743 454.675 46.8674 458.02C46.4604 462.45 45.9297 466.874 45.5569 471.305C45.5211 471.727 45.4828 472.151 45.4435 472.575C43.9431 471.932 42.3497 471.603 40.5438 471.198L40.074 471.089C37.4521 470.469 34.6472 469.611 32.2204 471.064C30.5892 472.04 30.2633 473.648 31.6147 474.936C33.6635 476.891 36.6952 476.512 39.5254 476.412L41.0479 476.366C42.4829 476.32 43.8068 476.244 45.133 475.946C44.8894 478.833 44.7612 481.73 45.1907 484.575C45.4231 486.112 47.8791 486.516 48.5292 484.947C50.2273 480.848 50.5782 476.428 51.1997 472.135C51.78 468.125 52.1329 464.086 52.513 460.059L52.6281 458.851C53.483 449.99 54.1669 441.125 54.6664 432.247C55.1663 423.369 55.4666 414.494 55.5861 405.607C55.6404 401.573 55.5593 397.523 55.3676 393.489L55.3068 392.279C55.0861 388.13 55.2404 383.727 54.1168 379.662ZM278.532 472.645C278.467 472.078 277.916 471.373 277.096 471.461C276.341 471.542 275.563 471.503 274.815 471.606C273.829 471.741 273.036 472.221 272.118 472.523C270.628 473.014 269.003 473.268 267.473 473.67C264.603 474.424 263.04 476.914 264.228 479.238C265.478 481.682 268.618 482.237 271.331 481.211C273.47 480.403 275.064 479.111 276.502 477.616L276.91 477.19C277.53 476.547 278.233 475.831 278.493 475.052C278.746 474.294 278.621 473.416 278.532 472.645ZM139.111 461.155C135.537 460.741 132.484 461.748 129.177 462.697L128.908 462.774C125.542 463.731 120.631 464.394 118.905 467.233C117.865 468.945 118.673 471.218 121.122 471.725C125.002 472.527 128.48 470.19 131.687 468.618L131.856 468.535C134.952 467.041 138.147 465.785 140.124 463.207C140.652 462.519 140.194 461.281 139.111 461.155ZM263.886 226.914C265.318 227.178 266.75 227.412 268.181 227.636C273.622 230.04 278.904 232.534 284.522 234.675C290.483 236.947 296.422 239.294 302.084 242.043C313.524 247.596 322.954 254.816 330.746 263.666C344.206 278.953 354.219 296.583 361.384 314.471C363.225 319.067 364.873 323.714 366.33 328.401C363.753 326.437 360.703 325.229 357.281 324.195C355.831 323.757 354.027 324.499 353.292 325.533C352.961 325.998 352.775 326.457 352.809 327.002C352.885 328.205 353.835 329.572 355.403 329.81C359.058 330.365 362.612 331.446 366.136 332.397C366.671 332.541 367.13 332.486 367.496 332.316C370.995 344.529 373.184 356.993 373.959 369.532C374.615 380.147 374.211 390.846 372.784 401.447C371.687 401.041 370.615 400.66 369.413 400.429C367.853 400.131 366.32 399.767 364.799 399.356C360.41 398.17 358.408 404.141 362.894 405.051C364.563 405.39 366.243 405.671 367.944 405.876C369.427 406.056 370.738 405.977 372.136 405.789C371.068 412.403 369.61 418.968 367.752 425.441L367.342 426.857C364.928 435.123 362.116 443.467 358.048 451.279C356.053 455.111 353.411 458.751 350.149 461.946C348.546 463.517 346.767 464.863 344.828 466.14C343.213 467.202 337.724 469.506 331.223 469.506C324.722 469.506 322.962 468.999 319.682 468.069C313.195 466.229 307.037 463.292 300.954 460.676L300.324 460.407C297.635 459.26 294.955 458.097 292.282 456.923C292.62 454.677 292.029 452.791 290.609 450.718C289.075 448.474 285.272 449.592 284.989 451.886L284.98 451.974C284.937 452.491 284.832 453.018 284.702 453.544C266.831 445.478 249.34 436.846 232.127 427.852C221.039 422.057 210.069 416.09 199.259 409.949C193.855 406.879 188.499 403.754 183.195 400.567C180.417 398.898 177.651 397.215 174.899 395.518C173.752 394.811 172.627 394.068 171.478 393.357C171.758 393.07 172.03 392.782 172.293 392.498C176.584 387.868 179.368 382.35 180.755 376.657C181.593 373.222 181.997 369.657 182.12 366.154L182.175 364.632C182.259 362.066 182.281 359.381 181.708 356.895C182.489 357.248 183.286 357.595 184.082 357.966C186.935 359.298 189.791 360.627 192.651 361.95C198.379 364.598 204.124 367.215 209.942 369.726C220.334 374.213 230.828 378.48 241.605 382.305L246.849 384.168C255.951 387.394 265.126 390.562 274.589 392.959C279.926 394.312 287.929 395.986 293.343 397.018C288.994 400.395 288.393 402.665 291.541 403.827C296.263 405.569 300.175 398.885 300.33 398.279C301.993 398.566 305.198 399.055 309.946 399.748C316.714 400.825 323.276 402.956 329.326 405.684C331.429 406.632 332.015 404.79 329.787 403.506C323.271 399.753 315.671 397.629 307.83 395.847L307.445 395.759C304.568 395.11 301.696 394.433 298.831 393.732C299.146 392.793 299.328 391.818 299.291 390.743C299.211 388.349 298.954 385.946 298.8 383.554C298.476 378.532 298.063 373.527 297.578 368.514C297.393 366.584 297.184 364.647 296.946 362.713C298.482 362.034 299.808 361.132 301.521 360.689L301.81 360.62C303.643 360.213 303.024 358.267 301.396 358.1C299.922 357.95 298.455 358.019 297.001 358.276C296.776 358.317 296.563 358.362 296.36 358.413C296.093 356.621 295.797 354.833 295.46 353.056C294.57 348.36 293.94 343.413 292.087 338.901C291.95 338.567 291.348 338.447 291.125 338.797C288.429 343.023 288.335 348.206 288.032 352.912L287.994 353.474C287.636 358.608 287.616 363.791 287.731 368.932C287.85 374.229 288.07 379.514 288.358 384.807C288.474 386.938 288.47 389.149 288.91 391.187C272.87 386.89 257.113 381.747 242.01 375.657C231.356 371.361 220.795 366.894 210.353 362.258C205.122 359.936 199.865 357.651 194.639 355.32C192.808 354.503 190.979 353.683 189.15 352.862L186.407 351.63C183.84 350.476 181.698 349.327 178.708 349.246C177.817 349.222 177.018 349.566 176.45 350.087C174.843 349.148 172.987 348.571 171.038 348.585C168.104 345.246 165.126 341.934 162.029 338.694L159.741 336.296C155.781 332.158 151.586 327.957 146.537 324.807C144.283 323.401 141.804 322.347 139.219 321.476C139.827 321.354 140.422 321.107 140.953 320.702C143.422 318.815 143.762 315.311 144.264 312.678C144.784 309.948 144.583 307.504 144.069 304.783C143.87 303.726 141.744 303.505 141.225 304.477C140.132 306.525 138.974 308.488 137.979 310.559L137.686 311.183C136.618 313.515 134.343 315.968 134.493 318.497C134.534 319.19 134.816 319.794 135.251 320.28C133.081 319.686 130.88 319.156 128.713 318.604C121.891 316.867 115.044 315.179 108.091 313.832C106.24 313.473 104.38 313.14 102.512 312.835C101.534 309.007 100.108 305.249 98.4268 301.56C100.019 300.888 101.049 299.761 102.42 298.759C103.703 297.821 104.584 296.678 105.679 295.601C106.675 294.62 106.115 292.85 104.325 292.907L103.818 292.924C101.963 292.995 100.166 293.153 98.4839 293.867L97.8848 294.121C97.0628 294.473 96.1632 294.876 95.362 295.352C94.3146 293.366 93.2254 291.399 92.1245 289.452L90.696 286.934C86.9922 280.38 83.2987 273.578 78.6487 267.475C76.5814 264.762 73.8302 263.069 69.8815 262.806C65.8152 262.537 61.5876 262.885 57.5158 263.005C52.7953 263.144 48.0764 263.309 43.3606 263.513C44.5694 262.47 45.6725 261.309 46.8865 260.307C48.9017 258.647 51.0308 257.073 53.2687 255.618C57.6981 252.739 62.5681 250.367 67.6267 248.324C72.6862 246.281 77.8944 244.499 82.644 241.975C85.6494 240.378 88.3357 238.368 90.7866 236.193C92.3294 249.909 100.366 262.651 112.44 272.225C124.981 282.167 142.312 287.63 159.265 289.953C176.557 292.323 194.605 291.454 211.147 286.501C219.677 283.946 227.857 280.298 235.153 275.721C235.233 276.119 235.329 276.513 235.519 276.883C235.773 277.38 236.084 277.803 236.441 278.24L237.077 279.006C237.478 279.487 237.887 279.965 238.342 280.412C239.444 281.494 241.007 281.968 242.689 281.963C245.912 281.954 248.352 279.351 247.484 276.776C246.94 275.158 245.774 274.184 243.953 273.551C243.378 273.35 242.792 273.183 242.202 273.018L241.759 272.894C241.163 272.726 240.572 272.565 239.959 272.472C243.413 269.96 246.618 267.228 249.488 264.279C258.491 255.033 267.37 242.083 264.36 229.803C264.308 229.592 264.078 229.46 263.83 229.426C263.655 228.564 263.098 227.73 262.336 227.17C262.849 227.059 263.366 226.973 263.886 226.914ZM170.408 439.23C168.625 438.413 166.783 440.354 168.232 441.553L170.395 443.337C172.403 444.999 174.357 446.68 176.075 448.574L176.491 449.038C178.811 451.638 181.285 454.651 185.086 455.623C189.683 456.799 194.101 452.184 191.439 448.813C189.113 445.867 184.635 444.756 180.774 443.538C177.121 442.385 173.822 440.794 170.408 439.23ZM318.717 425.635C317.669 424.505 314.938 425.1 315.653 426.7C317.978 431.892 318.925 438.972 324.795 442.422C326.689 443.534 329.663 443.023 331.223 441.739C332.994 440.279 333.065 438.223 332.052 436.442C330.816 434.269 327.777 432.694 325.646 431.039L325.455 430.888C323.163 429.054 320.684 427.758 318.717 425.635ZM73.3807 431.611C71.5111 430.947 66.6383 429.656 65.1942 431.185C65.1268 431.24 65.0691 431.301 65.0227 431.369C64.6687 431.876 64.6161 432.591 65.0227 433.095C66.7054 435.179 68.458 436.734 70.8504 438.217L71.119 438.382C73.7235 439.96 76.1703 441.813 79.3438 442.525C83.7425 443.511 86.8149 438.973 83.7257 436.323C81.2368 434.188 77.4374 433.079 74.1396 431.889L73.3807 431.611ZM250.025 401.942C250.761 400.846 249.258 399.502 247.896 400.187C244.012 402.144 239.488 403.611 235.125 404.665C233.36 405.092 231.767 406.567 231.898 408.158L231.919 408.399C231.971 408.961 232.065 409.519 232.498 409.986C234.018 411.624 236.191 412.255 238.512 411.286C243.685 409.126 247.226 406.11 250.025 401.942ZM136.507 398.623C136.602 398.162 136.193 397.807 135.624 397.896C132.342 398.408 129.31 399.715 126.492 401.216C124.98 402.022 123.522 402.906 122.014 403.72C120.151 404.724 119.453 405.553 119.178 407.397C118.996 408.613 120.375 409.724 121.639 410.06C125.084 410.975 129.031 407.971 131.365 406.02L131.47 405.932C133.913 403.88 135.928 401.453 136.507 398.623ZM37.9254 395.435C38.6735 393.77 36.095 392.39 34.4087 393.208C32.8209 393.977 31.0983 394.616 29.6004 395.498C28.224 396.309 26.969 397.27 25.649 398.149L24.9967 398.574C22.576 400.178 18.5803 404.144 22.0414 406.445C25.3357 408.634 29.7033 405.838 31.9144 403.793L32.0686 403.649C33.3408 402.438 34.9091 401.122 35.832 399.708C36.7007 398.377 37.29 396.848 37.9254 395.435ZM70.4116 266.552C74.5375 267.211 76.2193 271.408 77.9567 274.144C82.0571 280.599 85.8282 287.174 89.6156 293.756C90.7815 295.781 91.9168 297.821 93.0623 299.858C93.1323 300.017 93.2222 300.174 93.3279 300.329C95.6746 304.493 98.0912 308.629 100.916 312.581C98.3307 312.182 95.7323 311.842 93.1241 311.574C93.2557 309.551 91.5741 306.842 90.7424 305.139L90.6732 304.995C89.636 302.812 88.5487 299.373 85.8788 298.24C84.9891 297.863 84.0377 298.335 83.9692 299.142C83.767 301.546 86.6193 304.296 88.0135 306.335C88.8567 307.569 89.6784 308.809 90.4792 310.061C90.7794 310.53 91.0302 310.991 91.3382 311.404C89.993 311.284 88.6463 311.177 87.296 311.1L86.416 311.05C81.41 310.778 76.0932 310.7 71.5703 312.735C67.3739 314.621 65.2289 318.649 67.5343 322.317C70.4065 326.886 76.731 327.492 82.2926 327.862C89.2392 328.324 96.2016 329.157 103.099 329.971C110.234 330.811 116.952 332.979 123.98 334.093C124.634 334.196 125.041 333.492 124.441 333.191C118.897 330.41 112.158 328.88 105.959 327.321L105.458 327.195C102.096 326.344 98.8103 325.371 95.3324 324.889C91.9561 324.42 88.5589 324.041 85.1536 323.752L84.8228 323.727C81.0735 323.468 71.5083 323.556 71.9125 318.982C72.1801 315.954 78.1523 315.431 80.8784 315.395C93.3774 315.23 105.966 317.964 117.845 320.893L120.497 321.548C125.361 322.754 130.231 323.995 135.004 325.409C140.412 327.011 144.673 329.508 148.612 332.927C152.98 336.718 157.21 340.594 161.741 344.256C164.597 346.565 167.49 348.833 170.407 351.083C171.066 351.786 171.593 352.55 171.958 353.542C172.575 355.218 172.433 356.776 172.2 358.497C171.613 362.844 171.483 367.236 170.747 371.569C170.065 375.584 169.111 379.746 167.088 383.47C166.287 384.944 165.244 386.393 164.057 387.688L163.099 388.715C162.681 389.161 162.214 389.649 161.723 390.108C161.003 389.384 159.962 388.913 158.751 389.031C156.177 389.28 154.154 389.221 151.63 388.733C149.676 388.357 147.737 387.915 145.792 387.506C141.972 386.703 138.117 385.973 134.336 385.051L133.686 384.889C130.869 384.177 128.051 383.285 125.706 381.786C122.981 380.044 122.143 377.531 120.125 375.359C115.815 370.719 106.503 370.816 100.198 369.545C94.8394 368.465 89.6829 366.761 85.9747 363.558L85.7583 363.367C85.9227 362.795 85.6561 362.15 85.0116 361.854L84.8711 361.789C84.6198 361.673 84.3492 361.625 84.0836 361.63C83.7394 361.213 83.4074 360.783 83.1056 360.326C82.8574 359.948 82.2369 360.226 82.3181 360.599C82.3666 360.821 82.4341 361.038 82.4979 361.256C78.9059 360.495 74.961 360.64 71.314 360.642L66.5811 360.628C65.7621 360.62 64.5413 360.586 64.4327 360.546L64.3215 360.505C64.0264 360.399 64.4453 360.574 64.2392 360.348C64.0119 360.099 63.7893 359.848 63.5697 359.594C62.7852 358.69 62.0432 357.758 61.3159 356.818C69.2415 358.481 77.4516 359.517 85.5442 360.38C94.2262 361.307 103.023 361.95 111.782 361.957C114.197 361.959 114.175 358.955 111.782 358.879C102.507 358.588 93.2799 358.183 84.0668 357.204C79.3024 356.697 74.558 356.061 69.8401 355.317C68.0187 355.03 66.2016 354.725 64.3889 354.404L63.0303 354.159C62.178 354.004 59.7695 353.78 58.5949 353.131C58.364 352.804 58.1332 352.478 57.9044 352.151C58.0168 351.005 61.5549 351.158 62.3843 351.156C64.7361 351.153 67.0884 351.168 69.4407 351.173C74.1448 351.185 78.8484 351.151 83.553 351.12C92.952 351.057 102.387 350.787 111.778 351.117C114.058 351.197 115.255 348.184 113.002 347.392C103.055 343.892 92.0123 343.132 81.3907 342.056C75.8051 341.49 70.2165 340.837 64.756 339.693L63.406 339.41C59.9757 338.685 56.1879 337.801 53.2994 336.074C57.6409 334.627 63.0374 334.793 67.5377 334.588L67.882 334.572C74.1836 334.253 80.4964 334.089 86.8098 334.082C99.7275 334.067 112.649 334.444 125.553 334.949C125.877 334.961 125.943 334.54 125.629 334.484C112.366 332.099 98.8874 330.95 85.3149 330.773C78.994 330.691 72.67 330.765 66.3543 330.995L64.037 331.083C58.6522 331.274 52.6771 331.326 48.1719 334.006C47.485 334.414 47.1229 334.935 47.0663 335.487C41.0241 325.562 35.4436 315.43 29.8407 305.365C25.4849 297.539 21.2915 289.647 16.7769 281.882L15.3154 279.37C13.3583 276.018 11.3533 272.665 9.12704 269.435C17.452 268.518 25.8235 267.881 34.2001 267.394C41.8328 266.949 66.737 265.964 70.4116 266.552ZM74.098 374.118C73.1486 373.684 71.6941 374.038 71.4602 375.003C71.286 375.721 70.9888 376.518 70.9888 377.253C70.9888 378.134 71.3708 379.09 71.5746 379.951C72.0429 381.932 72.6195 383.541 73.8416 385.305C74.6061 386.409 76.15 387.159 77.7015 387.129C78.9302 387.106 80.0191 386.834 80.8622 386.051C81.8724 385.112 82.5659 383.731 82.0118 382.467C80.5604 379.155 77.8925 375.855 74.098 374.118ZM275.467 370.814C273.246 367.608 267.98 364.742 263.384 365.026C256.484 365.452 255.076 373.108 261.757 374.935C265.75 376.026 271.244 374.905 274.737 373.108C275.679 372.624 276.024 371.617 275.467 370.814ZM346.383 359.86C346.888 359.255 346.054 358.565 345.302 358.701C343.634 359.002 341.837 359.134 340.204 359.544C338.531 359.963 336.912 360.658 335.255 361.137C331.785 362.139 328.077 362.642 324.718 363.851C323.376 364.335 322.32 365.937 322.444 367.118L322.475 367.394C322.55 367.981 322.673 368.492 323.071 369.028C324.14 370.466 326.258 371.21 328.257 370.767C331.965 369.946 335.588 367.837 338.75 366.085L339.334 365.765C340.716 365.015 342.201 364.231 343.314 363.266C344.476 362.258 345.431 361.001 346.383 359.86ZM218.913 348.198C219.34 346.931 217.427 346.094 216.312 346.95C214.084 348.661 211.755 350.247 209.573 352L209.427 352.12C207.864 353.413 205.592 355.907 207.623 357.581C210.227 359.726 213.853 356.543 215.249 354.884C217.021 352.78 218.084 350.659 218.913 348.198ZM48.437 337.725C51.7417 340.609 56.8335 341.935 61.3164 343.034C66.6318 344.336 72.1086 345.113 77.591 345.753C82.8885 346.371 88.1453 346.924 93.3585 347.633C89.4149 347.673 85.4717 347.697 81.5373 347.755C76.9997 347.823 72.4646 347.904 67.9285 348.012C64.6248 348.091 60.7485 347.718 57.6092 348.73C57.0434 348.912 56.5148 349.164 56.0531 349.471C53.4138 345.604 50.8842 341.684 48.437 337.725ZM252.28 310.751C248.831 309.848 245.587 308.65 241.93 308.961C240.959 309.043 240.263 309.823 240.793 310.593C242.526 313.106 245.344 314.525 248.118 316.205L248.362 316.354C251.398 318.215 254.658 319.911 257.96 321.438C263.645 324.067 268.739 316.543 262.998 314.336C259.544 313.007 255.915 311.703 252.28 310.751ZM190.178 304.219C184.901 304.505 179.627 304.7 174.344 304.875C168.223 305.08 170.281 312.84 175.394 311.27C180.444 309.718 185.496 308.185 190.592 306.738C192.143 306.297 192.019 304.198 190.277 304.216L190.178 304.219ZM325.529 290.412C324.161 290.333 322.781 290.579 321.412 290.689L319.954 290.805C316.95 291.051 314.133 291.355 311.268 292.363C305.981 294.222 308.82 301.225 314.128 301.065C318.05 300.946 321.405 299.557 324.717 297.941C327.613 296.529 329.388 294.761 331.343 292.543C331.991 291.808 331.089 290.984 330.207 290.91C328.653 290.78 327.083 290.502 325.529 290.412ZM60.5152 276.11C61.39 280.608 63.5616 284.825 66.8336 288.495C68.4781 290.34 71.3651 290.41 72.9948 288.495C75.3002 285.787 73.8786 282.684 72.1419 280.083L71.628 279.321C70.8503 278.179 69.6559 276.513 68.2911 275.363L68.2682 275.245C67.5368 270.535 59.6138 271.476 60.5152 276.11ZM273.956 247.241C272.641 246.264 270.218 246.558 269.791 248.147C269.193 250.372 268.83 252.88 269.221 255.139C269.433 256.363 269.512 257.738 270.097 258.879C270.725 260.106 271.933 261.049 273.072 261.972C275.344 263.813 280.135 263.204 280.744 260.303L280.821 259.947C281.127 258.574 281.519 257.106 281.066 255.745C280.723 254.718 279.959 253.671 279.326 252.719L279.192 252.516C277.925 250.571 275.949 248.719 273.956 247.241ZM89.0345 251.975L88.5587 251.98C84.8866 252.039 78.1733 252.776 78.1375 256.515C78.129 257.396 78.9211 258.31 79.9828 258.512C82.1778 258.932 83.5966 257.863 85.1609 256.783C86.4402 255.9 87.9314 255.195 89.4804 254.688C91.1535 254.139 91.0442 251.973 89.0345 251.975Z" fill="black"/>
<path fill-rule="evenodd" clip-rule="evenodd" d="M94.6805 73.0723C96.6482 63.2416 90.1902 61.2019 94.6805 51.857C104.66 34.5418 131.856 35.2878 151.813 33.9565C174.073 33.252 196.602 35.6787 217.123 43.0462C222.025 44.8057 226.739 46.8751 231.258 49.2263C235.166 51.2596 234.629 55.1255 232.165 57.2344C249.933 78.0125 239.771 105.903 253.948 127.774C256.567 131.684 260.031 135.189 262.307 139.257C265.768 145.441 265.99 154.301 258.142 158.407C247.09 163.306 240.922 153.607 235.492 167.667C208.371 216.692 153.841 219.453 102.075 193.893C97.5966 191.836 93.0257 189.511 89.6438 186.279C81.9673 179.145 82.8714 169.113 82.7017 160.204C82.6069 154.983 82.5911 149.761 82.6528 144.54C82.8943 123.389 91.3832 94.049 94.6805 73.0723Z" fill="#EDB98A"/>
<path fill-rule="evenodd" clip-rule="evenodd" d="M204.937 14.2739C173.682 2.56588 138.232 -1.87408 104.138 1.0382C87.3094 2.47338 70.7028 5.55245 54.8988 10.5541L53.5135 10.9962C49.6122 12.2361 45.4068 13.4669 42.4422 15.991C38.9915 18.9243 38.0238 23.36 40.4904 26.9835C42.4066 29.799 45.8516 31.8187 49.526 32.8965C48.2316 33.7718 47.0034 34.7482 45.8516 35.8382C43.9099 37.6647 43.7621 40.2693 45.8516 42.071C49.8777 45.543 55.1013 48.055 60.7276 49.2591C60.0957 51.7799 60.4371 54.5702 61.7927 57.0826C65.6827 64.2947 76.6403 65.1542 85.0726 64.726L85.3273 64.7126L85.7962 69.1442C86.0459 71.5051 87.7582 73.3358 90.6631 73.6977C90.765 73.7104 90.8675 73.7188 90.9689 73.7268C86.372 87.4553 83.5946 101.608 81.0312 115.677C79.6918 123.022 78.4929 130.383 77.3452 137.749L76.9643 140.204C75.7412 148.146 74.2123 156.167 73.6823 164.168C73.2084 171.427 74.8851 178.359 80.3024 184.217C85.1642 189.469 91.7945 193.404 98.9242 196.325C115.033 202.927 131.989 207.843 149.805 210.124L150.993 210.275C157.871 211.142 164.957 211.873 171.76 210.301C177.737 208.921 184.006 205.36 182.656 199.641C182.202 197.709 178.93 197.625 177.809 199.119L177.55 199.461C176.206 201.223 174.733 202.86 172.386 203.769C169.64 204.838 166.455 205.137 163.453 205.167C155.07 205.247 146.34 203.521 138.267 201.792C123.193 198.56 107.71 193.29 95.3619 185.307C90.1076 181.915 85.8879 177.673 84.3998 172.214C82.56 165.485 84.252 158.128 85.0878 151.365C86.8078 137.41 88.8547 123.481 91.0145 109.567L91.4479 106.785C93.2668 95.1526 95.1779 83.5161 96.0855 71.8166C96.4627 71.3915 96.7175 70.9075 96.8194 70.3773L96.9616 69.6155C97.0844 68.9632 97.1048 68.3656 97.0181 67.8143C97.013 65.7016 96.9417 63.6016 96.7939 61.4885C96.7689 61.1102 96.748 60.7314 96.7328 60.3568C99.393 60.8408 102.074 61.2322 104.764 61.5647C123.682 63.9172 142.895 64.5064 161.965 63.3364C171.48 62.751 180.923 61.7456 190.336 60.4873C195.127 59.8476 199.902 59.1406 204.662 58.3494C208.101 57.7812 211.47 57.0111 214.854 56.2872C218.345 60.4831 220.231 65.6469 219.864 70.7181C219.451 76.5048 214.783 81.7528 216.092 87.6657C217.322 93.1995 223.063 94.9153 228.731 96.2858L231.142 96.8609C232.996 97.3081 234.343 97.7395 234.679 99.5799C235.254 102.741 234.546 106.297 234.398 109.474C234.22 113.232 233.986 116.99 233.878 120.749C233.822 122.693 233.731 124.646 233.736 126.59C233.741 127.97 233.991 128.913 234.638 129.805C234.138 130.323 233.69 130.883 233.292 131.476C233.165 131.67 233.481 131.875 233.669 131.716C234.174 131.282 234.71 130.891 235.275 130.541C235.56 130.832 235.891 131.127 236.279 131.442L236.309 131.409C237.522 132.406 239.449 132.503 240.953 131.442L241.347 131.16C242.448 130.363 243.204 129.7 243.51 128.383C243.526 128.316 243.541 128.248 243.551 128.181C246.349 128.101 249.193 128.648 251.71 129.797C255.701 131.619 258.509 134.216 260.17 137.423C259.508 138.062 258.733 138.635 257.831 139.114C257.703 139.186 257.816 139.342 257.953 139.287C258.876 138.929 259.701 138.487 260.44 137.97C261.036 139.232 261.454 140.587 261.709 142.023C262.606 147.09 261.006 153.28 255.461 156.167C253.061 157.417 250.319 158.095 247.475 158.103C246.09 158.107 244.891 157.914 243.546 157.64C242.634 157.455 241.727 157.186 240.774 157.186C239.958 157.186 239.204 157.354 238.506 157.691L238.699 157.705C239.17 157.741 239.08 157.758 238.424 157.758C236.386 157.83 235.219 159.538 236.156 161.024L236.279 161.253C236.305 161.3 236.327 161.338 236.345 161.369L236.419 161.763C236.426 161.8 236.434 161.839 236.442 161.878L236.47 161.958C236.475 161.971 236.481 161.983 236.488 161.996L233.43 165.846C229.682 170.556 225.85 175.248 221.489 179.55C218.432 182.567 215.19 185.526 211.766 188.265C208.688 190.727 204.998 191.914 201.512 193.85C199.651 194.877 199.107 197.027 200.798 198.412C205.762 202.482 212.79 199.25 216.862 195.942C220.715 192.806 224.043 189.036 226.912 185.261C232.003 178.548 236.055 171.41 237.828 163.663C238.567 164.222 239.51 164.572 240.463 164.845C242.374 165.392 244.479 165.62 246.497 165.678C250.365 165.784 254.238 165.009 257.719 163.637C271.881 158.061 273.961 141.362 265.302 131.514C266.47 128.718 267.122 125.684 267.83 123.097L268.152 121.941C271.732 109.024 274.137 95.4242 267.789 82.767C266.974 81.1341 266.056 79.5433 264.971 78.0199C264.099 76.7952 262.601 75.4906 262.188 74.0975C261.271 71.038 266.933 67.8227 268.584 65.3944C270.526 62.5453 270.801 59.1827 268.156 56.5772C267.82 56.2494 267.453 55.9459 267.055 55.6812C269.562 51.9272 269.68 47.2053 266.377 43.5018C264.206 41.0609 260.894 39.3523 257.275 38.8346C255.064 38.519 252.403 38.6368 249.972 39.2008C236.661 28.9952 221.474 20.4688 204.937 14.2739ZM256.053 141.972C252.5 139.384 248.576 138.029 243.734 138.37C238.867 138.714 233.007 140.377 230.148 143.824C227.89 146.547 232.492 150.541 235.805 148.495C238.822 146.631 240.835 144.527 244.58 143.525C247.944 142.629 252.108 142.052 255.63 142.565C256.017 142.62 256.404 142.225 256.053 141.972Z" fill="black"/>
<path fill-rule="evenodd" clip-rule="evenodd" d="M145.471 161.06C142.614 157.187 136.524 166.674 135.877 168.305C135.304 169.75 134.926 171.23 134.734 172.728C132.519 173.137 130.219 173.137 127.949 172.779C124.576 172.246 122.514 170.751 119.583 169.468C117.558 168.582 115.006 169.621 113.953 171.092C112.715 172.822 113.504 174.619 115.133 175.909C118.222 178.356 124.3 178.918 128.333 178.268C130.643 177.896 132.761 177.182 134.631 176.144C134.643 176.338 134.651 176.532 134.67 176.725L134.705 177.06C135.015 179.774 135.92 183.186 138.478 184.952C142.673 187.848 147.85 182.278 143.774 179.385L143.648 179.298C141.114 177.611 140.561 173.085 140.698 170.592C140.787 168.965 141.147 167.317 141.77 165.767L141.899 165.458C142.086 165.021 144.133 160.868 144.872 161.397L144.907 161.427C145.212 161.727 145.705 161.377 145.471 161.06ZM122.66 139.207C118.804 141.139 112.928 145.643 117.076 150.432C121.96 154.655 128.991 149.813 132.456 147.624C135.669 145.927 139.278 150.291 136.297 152.272C111.261 167.547 101.1 139.712 120.71 136.936C122.869 136.63 123.671 138.609 122.66 139.207ZM163.841 121.352C160.072 120.801 156.211 121.573 153.093 123.39L152.856 123.53C149.851 125.341 146.49 128.521 148.214 131.642C148.906 132.896 150.978 133.092 152.293 132.524C154.483 131.578 154.88 129.25 156.833 127.962C158.435 126.906 160.592 126.266 162.656 126.42C167.503 126.783 170.484 130.722 171.99 134.117C172.182 134.552 172.956 134.72 173.258 134.254C176.808 128.786 170.524 122.329 163.841 121.352ZM103.471 119.288C96.2509 118.798 87.8003 124.966 89.7011 131.246C90.6127 134.259 96.0369 134.173 97.0011 131.246C97.5317 129.635 97.4786 128.21 98.8856 126.873C100.047 125.768 101.697 125.127 103.471 125.226C105.426 125.334 107.229 126.139 108.599 127.271C109.837 128.293 110.577 129.788 111.859 130.692C112.174 130.915 112.596 130.929 112.908 130.692C115.114 129.016 113.79 125.526 112.391 123.777C110.389 121.273 107.129 119.537 103.471 119.288ZM177.59 110.214C172.958 106.835 164.543 103.572 158.297 105.235C154.706 106.191 153.141 110.959 157.15 112.47C161.791 114.22 167.143 113.508 171.868 115.322C173.852 116.084 175.718 117.036 177.099 118.433C178.188 119.534 179.295 120.983 180.869 121.617C181.282 121.784 181.843 121.788 182.174 121.479C185.624 118.263 180.603 112.411 177.59 110.214ZM111.431 105.067C108.569 104.405 105.393 104.419 102.485 104.835C99.5785 105.251 96.6271 106.243 94.2539 107.691L93.9784 107.861C91.3875 109.47 88.2958 111.811 88.4615 114.661C88.5999 117.041 91.6381 118.65 94.261 117.403C96.3994 116.386 97.4054 114.348 99.2159 112.991C100.71 111.871 102.464 110.988 104.337 110.37C106.416 109.683 108.499 109.361 110.731 109.33C112.45 109.306 114.179 109.771 115.865 109.919C115.726 110.154 117.059 110.045 117.823 109.837C118.389 109.638 118.392 109.048 118.196 108.666C117.223 106.771 113.683 105.588 111.431 105.067Z" fill="black"/>
</svg>
