<svg width="373" height="491" viewBox="0 0 373 491" fill="none" xmlns="http://www.w3.org/2000/svg">
<path fill-rule="evenodd" clip-rule="evenodd" d="M13.6075 426.081C15.5225 416.501 17.2779 406.895 18.8732 397.268C19.6305 392.698 20.3692 388.123 21.0334 383.541C21.4984 380.331 22.2068 376.66 19.7411 374.282C16.2717 370.936 13.1201 368.071 12.6953 363.278C12.2958 358.767 14.0175 353.851 15.094 349.473C17.3516 340.292 20.1621 331.224 23.2676 322.242C26.4226 313.117 29.8821 304.077 33.3914 295.055C36.6723 286.62 39.8263 278.108 44.0996 270.015C52.2096 254.656 65.9297 243.282 82.886 235.687C87.1033 233.798 95.7047 227.055 100.111 225.546C104.161 224.158 104.147 228.211 108.133 226.684C111.32 225.464 114.287 223.836 116.071 221.11C118.009 218.151 122.867 214.011 123.607 210.566C125.174 203.264 123.476 197.048 129.36 191.552C134.583 186.672 141.603 183.328 148.867 181.533C164.846 177.585 186.157 180.346 195.798 193.499C200.403 199.781 202.012 207.374 208.226 212.5C213.651 216.977 212.437 220.037 219.465 222.344C219.863 222.475 230.65 220.425 231.049 220.556C238.736 219.099 246.084 223.178 253.137 225.546C263.652 229.074 273.662 233.667 283.067 239.126C302.032 250.133 318.275 264.427 331.665 280.601C345.167 296.909 355.643 315.188 363.102 334.291C364.914 338.932 366.541 343.628 367.976 348.371C368.779 351.025 369.638 353.778 368.659 356.495C367.859 358.718 366.08 360.374 363.99 361.708C361.157 363.516 355.475 364.691 355.585 368.328C355.67 371.093 356.729 374.003 357.246 376.736C357.861 379.99 358.367 383.263 358.872 386.532C361.171 401.409 362.961 416.37 363.752 431.373C364.532 446.145 365.178 461.22 364.021 475.988C363.945 476.962 363.617 477.856 363.088 478.612C363.582 478.779 363.62 479.594 363.006 479.709C362.575 479.79 362.146 479.871 361.715 479.952C360.821 480.551 359.706 480.918 358.423 480.954C357.553 480.979 356.684 481.013 355.815 481.053C346.646 482.751 337.478 484.355 328.188 485.569C316.897 487.045 305.572 488.249 294.212 489.227C270.869 491.238 247.71 490.571 224.337 489.488C200.999 488.405 177.676 488.152 154.314 488.691C130.932 489.23 107.558 490.131 84.1707 490.499C58.0421 490.911 31.9534 490.279 5.90039 488.439C2.32831 488.187 0.118225 485.669 0.822754 482.526C5.04379 463.696 9.82733 444.992 13.6075 426.081Z" fill="#FFDBB4"/>
<path fill-rule="evenodd" clip-rule="evenodd" d="M253.137 225.545L252.626 225.371C245.729 222.985 238.551 219.134 231.048 220.556C230.783 220.468 225.901 221.35 222.558 221.909L225.731 224.844L231.332 225.798C212.01 254.049 189.156 268.174 162.772 268.174C136.389 268.174 116.368 254.049 102.711 225.798L100.848 225.341C100.618 225.389 100.373 225.456 100.11 225.545C95.7046 227.055 87.1032 233.798 82.886 235.687C65.9297 243.281 52.2095 254.655 44.0995 270.015C39.9687 277.838 36.8837 286.052 33.7191 294.211L33.3914 295.055C29.882 304.077 26.4225 313.116 23.2675 322.242C20.297 330.833 17.5964 339.503 15.3915 348.275L15.0939 349.472C14.0174 353.85 12.2957 358.767 12.6953 363.278C12.8466 364.985 13.344 366.448 14.0786 367.775L52.2965 379.958L34.089 489.965C50.7672 490.598 67.4608 490.762 84.1706 490.499C107.558 490.13 130.932 489.229 154.314 488.69C176.968 488.169 199.586 488.391 222.215 489.391L227.962 489.652C250.107 490.633 272.077 491.133 294.212 489.227L295.72 489.096L295.721 473.004L287.945 383.401L327.35 376.83L366.031 360.187C367.2 359.152 368.138 357.944 368.659 356.495C369.565 353.979 368.896 351.431 368.154 348.96L367.976 348.371C366.541 343.628 364.913 338.931 363.102 334.291C355.643 315.187 345.167 296.909 331.665 280.601C318.274 264.426 302.032 250.133 283.067 239.126C273.662 233.667 263.651 229.074 253.137 225.545Z" fill="#EC7495"/>
<path fill-rule="evenodd" clip-rule="evenodd" d="M238.339 220.093C235.923 220 233.459 220.346 231.048 220.556C230.838 220.574 230.759 220.861 230.995 220.905C235.309 221.703 239.576 222.795 243.813 223.905L245.627 224.38C250.405 225.632 255.043 226.924 259.668 228.594C268.886 231.922 277.641 236.414 285.699 241.575C316.727 261.448 339.184 291.536 353.355 322.688C357.204 331.147 360.465 339.818 363.106 348.634C363.748 350.779 364.353 352.933 364.926 355.093C365.094 355.726 365.827 357.348 365.425 357.996C365.07 358.569 363.688 358.923 363.046 359.221L360.879 360.216C356.653 362.146 349.612 365.318 348.906 365.627L347.805 366.107C329.795 373.929 310.551 380.562 290.284 381.021L290.125 379.487C289.221 371.011 288.035 362.49 285.447 354.274C285.308 353.832 284.674 353.981 284.616 354.374C283.174 364.1 283.635 373.902 284.138 383.673C285.029 400.979 286.212 418.276 287.263 435.575C287.789 444.229 288.47 452.877 289.084 461.526C289.699 470.193 289.898 479.068 291.303 487.663C291.616 489.579 294.149 490.621 296.068 490.419C298.19 490.195 299.823 488.539 299.833 486.64C299.859 481.633 299.148 476.567 298.754 471.572C298.379 466.827 297.976 462.084 297.564 457.341C296.057 440.031 294.324 422.741 292.72 405.439C292.152 399.302 291.538 393.17 290.906 387.04C312.376 386.426 332.434 379.382 351.569 371.151C351.846 376.722 352.515 382.282 353.163 387.83C354.97 403.311 356.564 418.787 357.757 434.316C358.36 442.159 358.798 450.012 359.18 457.866C359.368 461.726 359.521 465.587 359.638 469.449C359.677 470.737 359.713 472.024 359.744 473.311L359.81 476.261C359.863 478.13 360.077 479.861 361.852 481.221C363.655 482.603 366.091 482.677 367.875 481.221C370.264 479.273 369.841 476.618 369.77 474.001C369.712 471.794 369.641 469.587 369.559 467.38C369.394 462.967 369.183 458.555 368.927 454.145C368.031 438.727 366.241 423.37 363.901 408.075L362.988 402.171C361.282 391.195 359.41 379.97 355.597 369.397C357.081 368.743 358.562 368.084 360.036 367.423C362.652 366.249 365.357 365.148 367.899 363.853C369.916 362.826 371.656 361.417 372.218 359.338C372.844 357.021 371.886 354.487 371.25 352.227L371.195 352.028C370.571 349.752 369.899 347.486 369.19 345.23C366.316 336.081 362.762 327.111 358.603 318.36C350.275 300.839 339.525 284.194 326.395 269.144C314.575 255.597 300.613 243.311 284.249 234.097C276.248 229.592 267.723 225.894 258.706 223.278C254.492 222.056 249.907 220.993 245.494 220.556C243.114 220.32 240.73 220.185 238.339 220.093ZM195.528 192.329C192.657 189.598 186.952 192.424 188.331 196.041C191.574 204.55 196.738 212.312 204.797 217.903C212.373 223.16 221.406 226.573 231.135 225.845C231.21 225.839 231.275 225.822 231.332 225.798L230.494 226.806C223.912 234.693 216.968 242.471 208.599 248.918C191.547 262.053 168.33 269.137 145.912 264.098C128.273 260.133 112.733 247.777 108.163 232.031C108.818 232.291 109.597 232.379 110.452 232.215C114.108 231.512 117.728 228.105 120.087 225.662C122.638 223.02 124.63 220.166 126.091 216.941C128.763 211.038 129.62 203.438 125.971 197.72C125.521 197.015 124.482 197.41 124.394 198.098L124.255 199.172C123.551 204.531 122.675 209.715 119.822 214.6C118.427 216.991 116.754 219.324 114.717 221.326C113.627 222.397 112.446 223.42 111.17 224.318C109.927 225.193 108.423 225.826 107.308 226.83L107.104 227.023L107.099 226.988C106.817 224.867 105.137 223.932 103.494 223.991C101.904 224.047 100.036 224.667 99.3127 224.964L99.2442 224.993C88.1503 229.711 77.9327 235.86 68.3174 242.682C48.4327 256.79 33.5339 275.234 26.3152 296.953C22.7722 307.613 20.7391 318.597 18.593 329.529L17.2718 336.227C15.2687 346.32 13.0312 356.611 8.50937 366C7.33975 368.428 8.24146 370.706 11.1095 371.661C14.6906 372.854 18.285 374.009 21.8851 375.149C20.1173 381.867 19.0394 388.818 17.7149 395.569C14.8996 409.92 11.4501 424.178 8.49231 438.51C6.98013 445.838 5.61572 453.19 4.10498 460.519C3.37762 464.048 2.61847 467.572 1.88022 471.1C1.48257 473.002 1.12198 474.91 0.742401 476.815L0.676361 477.131C0.458923 478.136 0.185699 479.175 0.497772 480.181C0.853577 481.328 1.86404 482.138 2.7662 482.96C3.50876 483.637 4.58194 483.641 5.49173 483.272L5.79095 483.149C7.41583 482.476 8.68875 481.804 9.26523 480.181C9.6301 479.153 9.76169 477.994 10.0002 476.935C10.4577 474.905 10.8914 472.871 11.3009 470.832C12.12 466.753 12.92 462.671 13.701 458.585L14.4305 454.76C16.9343 441.575 19.312 428.31 20.514 414.986C21.0473 409.075 21.6124 403.169 22.1827 397.262L22.611 392.831C23.1526 387.223 23.8144 381.474 23.908 375.79L26.0607 376.467L36.5649 379.756C39.1693 380.572 42.4853 382.242 45.2882 381.939C46.6602 381.79 47.7063 381.407 48.5139 380.712C47.5467 392.804 46.2374 404.875 44.4924 416.885C42.9047 427.813 41.1446 438.726 39.0657 449.589C38.0362 454.968 36.9782 460.343 35.829 465.703C35.2546 468.383 34.6617 471.06 34.0508 473.734C33.7462 475.068 33.3838 476.403 33.1462 477.748C32.8745 479.289 33.3534 480.236 34.3249 481.503C35.1226 482.544 36.7183 483.079 38.0119 482.36C39.7251 481.408 40.6187 480.583 41.1227 478.849C41.5807 477.273 41.8591 475.629 42.2135 474.033C42.8677 471.088 43.5 468.14 44.1105 465.187C45.387 459.012 46.5638 452.823 47.6146 446.614C51.3178 424.743 53.6675 402.689 54.8543 380.599C55.44 369.7 55.621 358.792 55.517 347.882C55.4638 342.29 55.2576 336.681 54.811 331.103C54.3588 325.456 53.4181 319.923 52.5782 314.33C52.5487 314.134 52.2352 314.122 52.2219 314.33C51.8242 320.6 51.201 326.863 50.8955 333.149C50.6038 339.148 50.476 345.155 50.2441 351.156C49.9396 359.043 49.5173 366.935 48.9581 374.822C47.9457 373.841 46.4198 373.275 44.8929 373.496C42.681 373.085 40.2999 372.057 38.191 371.433L30.2411 369.08C26.062 367.844 21.8827 366.616 17.6888 365.425C21.4384 354.25 24.0071 342.908 26.2004 331.402L27.1786 326.227C29.1148 316.04 31.2025 305.849 34.7097 295.985C38.3968 285.615 43.9142 275.973 51.2337 267.242C58.4487 258.637 67.2266 251.06 76.2644 243.973C84.002 237.906 92.2791 232.428 100.171 226.528C100.088 226.918 100.071 227.349 100.144 227.822C101.821 238.701 108.228 248.832 117.156 256.367C135.092 271.506 161.643 274.647 184.599 267.548C206.806 260.681 226.439 244.419 233.376 224.295C233.494 223.951 232.974 223.814 232.765 224.067C232.38 224.534 231.993 225.001 231.606 225.468C231.632 225.283 231.523 225.081 231.265 224.992C223.171 222.224 215.224 218.298 209.157 212.744C206.2 210.037 203.62 206.969 201.583 203.662C200.607 202.077 199.73 200.436 199.031 198.741L198.853 198.302C198.006 196.178 197.298 194.012 195.528 192.329Z" fill="black"/>
<path fill-rule="evenodd" clip-rule="evenodd" d="M91.8422 73.0723C93.6726 63.2416 87.6652 61.2019 91.8422 51.857C101.125 34.5418 126.424 35.2878 144.989 33.9565C165.695 33.252 186.653 35.6787 205.742 43.0462C210.302 44.8057 214.687 46.8751 218.891 49.2263C222.527 51.2596 222.027 55.1255 219.735 57.2344C236.263 78.0125 226.81 105.903 239.998 127.774C242.434 131.684 245.657 135.189 247.774 139.257C250.993 145.441 251.199 154.301 243.9 158.407C233.618 163.306 227.881 153.607 222.83 167.667C197.6 216.692 146.875 219.453 98.721 193.893C94.5548 191.836 90.3029 189.511 87.1569 186.279C80.016 179.145 80.857 169.113 80.6991 160.204C80.611 154.983 80.5963 149.761 80.6536 144.54C80.8783 123.389 88.775 94.049 91.8422 73.0723Z" fill="#FFDBB4"/>
<path fill-rule="evenodd" clip-rule="evenodd" d="M194.407 14.2739C165.332 2.56588 132.355 -1.87408 100.64 1.0382C84.9854 2.47338 69.5374 5.55246 54.836 10.5541L53.5474 10.9962C49.9183 12.2361 46.0063 13.4669 43.2485 15.991C40.0386 18.9243 39.1383 23.36 41.4328 26.9835C43.2153 29.799 46.42 31.8187 49.8381 32.8965C48.634 33.7718 47.4915 34.7482 46.4201 35.8382C44.6138 37.6647 44.4764 40.2693 46.4201 42.071C50.1652 45.543 55.0244 48.055 60.2582 49.2591C59.6703 51.7799 59.988 54.5702 61.249 57.0826C64.8675 64.2947 75.0607 65.1542 82.9046 64.726L83.1416 64.7126L83.5778 69.1442C83.8101 71.5051 85.4029 73.3358 88.1051 73.6978C88.2 73.7104 88.2953 73.7188 88.3896 73.7268C84.1135 87.4553 81.5298 101.608 79.1452 115.677C77.8993 123.022 76.784 130.383 75.7164 137.749L75.3621 140.204C74.2243 148.146 72.8021 156.167 72.3091 164.168C71.8682 171.427 73.4279 178.359 78.4673 184.217C82.9899 189.469 89.1576 193.404 95.7899 196.325C110.775 202.927 126.548 207.843 143.121 210.124L144.226 210.275C150.624 211.142 157.215 211.873 163.544 210.301C169.105 208.921 174.936 205.36 173.68 199.641C173.258 197.709 170.214 197.625 169.171 199.119L168.931 199.461C167.68 201.223 166.309 202.86 164.127 203.769C161.572 204.838 158.609 205.137 155.817 205.167C148.018 205.247 139.897 203.521 132.388 201.792C118.365 198.56 103.963 193.29 92.4761 185.307C87.5884 181.915 83.6631 177.673 82.2788 172.214C80.5674 165.485 82.1413 158.128 82.9188 151.365C84.5188 137.41 86.4229 123.481 88.4321 109.567L88.8352 106.785C90.5272 95.1526 92.3049 83.5162 93.1493 71.8166C93.5001 71.3915 93.7371 70.9075 93.8319 70.3773L93.9642 69.6155C94.0784 68.9632 94.0974 68.3656 94.0168 67.8143C94.0121 65.7016 93.9457 63.6016 93.8082 61.4885C93.785 61.1102 93.7656 60.7314 93.7513 60.3568C96.226 60.8408 98.7196 61.2322 101.223 61.5647C118.82 63.9172 136.693 64.5064 154.432 63.3365C163.283 62.7511 172.067 61.7456 180.824 60.4873C185.281 59.8476 189.722 59.1406 194.15 58.3494C197.35 57.7812 200.484 57.0111 203.632 56.2872C206.879 60.4831 208.633 65.6469 208.292 70.7181C207.908 76.5048 203.565 81.7528 204.784 87.6657C205.927 93.1995 211.268 94.9153 216.54 96.2858L218.783 96.8609C220.508 97.3081 221.761 97.7395 222.073 99.58C222.609 102.741 221.95 106.297 221.812 109.474C221.646 113.232 221.429 116.99 221.329 120.749C221.277 122.693 221.192 124.646 221.196 126.59C221.201 127.97 221.433 128.913 222.035 129.805C221.57 130.323 221.154 130.883 220.784 131.476C220.665 131.67 220.959 131.875 221.134 131.716C221.604 131.283 222.102 130.891 222.628 130.541C222.893 130.832 223.201 131.127 223.562 131.442L223.59 131.409C224.718 132.406 226.51 132.503 227.909 131.442L228.276 131.16C229.3 130.363 230.004 129.7 230.289 128.383C230.303 128.316 230.318 128.248 230.327 128.181C232.929 128.101 235.575 128.648 237.916 129.797C241.628 131.619 244.241 134.216 245.786 137.423C245.17 138.062 244.449 138.635 243.61 139.115C243.492 139.186 243.596 139.342 243.724 139.287C244.582 138.929 245.35 138.487 246.037 137.97C246.592 139.232 246.981 140.587 247.218 142.023C248.052 147.09 246.564 153.28 241.406 156.167C239.173 157.417 236.622 158.095 233.977 158.103C232.688 158.107 231.573 157.914 230.322 157.64C229.473 157.455 228.629 157.186 227.743 157.186C226.984 157.186 226.283 157.354 225.633 157.691L225.813 157.705C226.251 157.741 226.167 157.758 225.557 157.758C223.661 157.83 222.576 159.538 223.448 161.024L223.562 161.253C223.586 161.3 223.607 161.338 223.623 161.369L223.692 161.763C223.698 161.8 223.706 161.839 223.713 161.878L223.74 161.958C223.744 161.971 223.75 161.983 223.756 161.996L220.912 165.846C217.425 170.556 213.86 175.248 209.804 179.55C206.96 182.567 203.944 185.526 200.759 188.265C197.895 190.727 194.463 191.914 191.22 193.85C189.49 194.877 188.983 197.028 190.556 198.412C195.174 202.482 201.712 199.25 205.499 195.942C209.083 192.806 212.179 189.036 214.848 185.261C219.584 178.548 223.353 171.41 225.003 163.663C225.69 164.222 226.567 164.572 227.454 164.845C229.231 165.392 231.189 165.62 233.067 165.678C236.665 165.784 240.268 165.009 243.506 163.637C256.68 158.061 258.614 141.362 250.56 131.514C251.646 128.718 252.253 125.684 252.912 123.097L253.211 121.941C256.542 109.024 258.778 95.4242 252.873 82.767C252.115 81.1341 251.262 79.5433 250.252 78.0199C249.441 76.7952 248.047 75.4906 247.663 74.0976C246.81 71.038 252.077 67.8227 253.613 65.3944C255.419 62.5453 255.675 59.1827 253.215 56.5772C252.902 56.2494 252.561 55.9459 252.191 55.6812C254.523 51.9272 254.632 47.2053 251.56 43.5019C249.541 41.0609 246.459 39.3523 243.093 38.8346C241.036 38.519 238.561 38.6368 236.3 39.2008C223.918 28.9952 209.79 20.4688 194.407 14.2739ZM241.956 141.972C238.651 139.384 235.001 138.029 230.497 138.37C225.97 138.714 220.518 140.377 217.859 143.824C215.758 146.547 220.039 150.541 223.12 148.495C225.927 146.631 227.8 144.527 231.284 143.525C234.413 142.629 238.286 142.052 241.562 142.566C241.923 142.62 242.282 142.225 241.956 141.972Z" fill="black"/>
<path fill-rule="evenodd" clip-rule="evenodd" d="M119.709 171.606C118.98 170.483 117.302 169.443 115.767 169.603C108.888 170.318 108.9 177.705 111.556 182.018C113.911 185.842 118.785 188.087 123.663 187.759C128.788 187.415 133.154 184.746 135.076 180.499C136.347 177.69 136.934 172.503 133.553 170.616C133.49 170.581 133.387 170.589 133.337 170.64C131.716 172.311 131.652 174.819 130.233 176.678C128.914 178.408 126.863 179.836 124.461 180.057C122.667 180.222 120.853 179.649 120.151 178.222C119.771 177.45 119.814 177.031 119.957 176.5L120.087 176.039C120.536 174.422 120.738 173.191 119.709 171.606ZM117.87 139.207C114.283 141.139 108.817 145.643 112.676 150.432C117.219 154.654 123.759 149.813 126.982 147.623C129.971 145.926 133.329 150.291 130.556 152.272C107.266 167.547 97.8144 139.712 116.056 136.936C118.064 136.63 118.81 138.609 117.87 139.207ZM155.754 125.961C153.552 123.034 148.526 123.465 147.313 126.938C146.656 128.819 147.563 130.51 147.516 132.389C147.477 133.976 147.594 135.744 148.143 137.281C149.396 140.786 152.954 143.261 157.163 143.159C161.359 143.057 165.055 140.704 166.812 137.391C168.576 134.065 168.202 130.623 166.915 127.241C166.853 127.078 166.613 126.999 166.468 127.136C164.946 128.569 163.832 130.081 162.679 131.686L161.498 133.33C160.595 134.568 159.283 136.15 157.597 136.05L157.344 136.028C156.876 135.993 156.948 136.075 156.586 135.509C156.419 135.248 156.449 134.761 156.369 134.452L156.341 134.348L156.356 134.292C156.392 134.142 156.427 133.86 156.456 133.371L156.462 133.263C156.584 130.975 157.314 128.034 155.754 125.961ZM99.9367 127.909C100.332 124.166 94.3912 123.335 92.4163 126.105C91.3863 127.549 91.0864 129.363 90.8586 131.082L90.7521 131.898C90.5184 133.663 90.4258 135.5 91.2909 137.147C92.6534 139.74 95.6164 141.112 98.8127 140.894C101.865 140.687 104.65 139.119 106.118 136.739C107.427 134.615 108.728 130.469 107.138 128.254C107.042 128.12 106.85 128.103 106.719 128.206C105.217 129.388 104.972 131.542 104.079 133.081C103.158 134.669 101.761 136.216 99.6431 136.457C97.6174 136.688 96.8435 135.707 97.3604 133.997C98.0269 131.788 99.6859 130.286 99.9367 127.909ZM154.149 103.708L153.178 103.378C149.85 102.264 145.28 100.977 142.574 103.374C140.904 104.853 140.587 107.031 141.778 108.835C143.222 111.02 145.811 111.074 148.312 111.396C151.156 111.762 154.049 112.458 156.697 113.451C159.68 114.569 162.448 115.963 165.161 117.52C167.738 118.999 170.307 121.417 173.393 121.872C173.519 121.891 173.662 121.843 173.694 121.72C174.395 119.048 172.448 116.418 170.71 114.333C168.607 111.809 166.06 109.737 163.212 107.88C160.464 106.086 157.323 104.791 154.149 103.708ZM93.6881 113.209L93.3914 113.163C91.373 112.865 89.5439 112.934 88.0228 114.35C86.8618 115.43 86.4142 116.83 86.9677 118.259C87.4784 119.576 88.6205 120.915 90.278 121.191C95.8739 122.124 102.072 121.97 107.696 121.264C110.269 120.94 112.865 120.545 115.372 119.921L116.525 119.625C118.617 119.096 121.012 118.542 122.532 117.179C123.079 116.689 122.764 115.988 122.11 115.761C119.458 114.842 115.823 115.331 112.996 115.259C109.706 115.176 106.412 114.957 103.138 114.656C99.9386 114.362 96.843 113.722 93.6881 113.209Z" fill="black"/>
</svg>
