<svg width="360" height="527" viewBox="0 0 360 527" fill="none" xmlns="http://www.w3.org/2000/svg">
<path fill-rule="evenodd" clip-rule="evenodd" d="M46.948 311.378C53.0042 282.681 74.4821 260.411 103.368 249.318C108.92 246.177 114.303 232.699 121.765 230.231C122.962 229.835 121.073 232.983 121.765 233.171C124.233 233.842 126.998 233.912 129.723 231.491C134.593 227.161 136.121 214.513 139.082 208.796C154.697 178.648 193.685 190.444 198.908 223.772C202.55 226.147 207.699 228.238 211.663 230.152C215.745 232.122 219.337 236.894 223.543 238.601C227.296 240.123 233.482 239.044 237.264 240.371C254.661 246.475 269.395 254.177 280.947 269.782C283.381 273.073 286.125 277.12 288.34 280.445C299.759 293.594 307.692 308.332 314.997 324.143C335.435 370.553 340.995 421.94 345.982 471.945C345.869 480.694 351.673 504.955 343.088 509.149C343.602 509.681 343.416 510.75 342.464 510.741C320.696 510.521 298.978 512.47 277.548 516.257C267.208 518.086 256.925 520.592 246.392 521.005C224.529 520.853 202.744 517.189 180.91 520.656C154.661 520.656 122.762 519.892 93.5612 518.768C66.2701 517.72 38.8327 520.089 11.8797 515.447C9.74623 515.11 8.70435 512.506 9.15156 510.642C12.3138 499.116 13.8661 487.255 15.6405 475.459C15.2871 467.892 15.9194 459.993 18.7177 452.946C26.0291 405.372 35.4046 358.108 46.948 311.378Z" fill="#FFDBB4"/>
<path fill-rule="evenodd" clip-rule="evenodd" d="M121.765 233.347C121.073 233.158 122.962 230.009 121.765 230.405C114.303 232.873 108.92 246.352 103.368 249.493C74.4821 260.586 53.0042 282.855 46.948 311.553C35.4046 358.282 26.029 405.546 18.7177 453.121C15.9193 460.169 15.2871 468.067 15.6405 475.633L15.3619 477.496C13.6983 488.677 12.1474 499.897 9.15155 510.816C8.70437 512.682 9.74622 515.284 11.8797 515.621C38.5264 520.211 65.6466 517.947 92.6307 518.908L98.2551 519.119C126.149 520.145 156.062 520.831 180.91 520.831C202.744 517.363 224.529 521.028 246.392 521.179C256.925 520.766 267.208 518.26 277.548 516.432C298.978 512.644 320.696 510.696 342.464 510.915C343.416 510.924 343.602 509.856 343.088 509.323C351.673 505.129 345.869 480.869 345.982 472.12L345.532 467.615C340.647 419.036 334.822 369.336 314.997 324.317L314.403 323.037C307.261 307.71 299.451 293.413 288.34 280.619L287.661 279.602C285.58 276.492 283.137 272.919 280.947 269.956C269.395 254.352 254.661 246.65 237.264 240.546C233.482 239.218 227.296 240.297 223.543 238.775C219.608 237.179 216.213 232.901 212.449 230.742V246.845L158 300.495L127.118 253.13L123.976 233.732C123.22 233.685 122.48 233.541 121.765 233.347Z" fill="#8FA7DF"/>
<path fill-rule="evenodd" clip-rule="evenodd" d="M55.7556 373.912C56.3315 376.709 57.1386 379.506 58.2119 382.156C59.2459 384.713 60.8036 387.004 61.8763 389.531C62.0203 389.871 62.256 390.128 62.54 390.324L62.4514 391.012L62.3698 391.7C61.8347 396.338 61.2328 400.963 60.7116 405.6L60.4584 407.92C59.4336 417.603 57.8148 427.24 56.5584 436.897C55.328 446.353 54.0755 455.81 52.7364 465.253C51.3534 474.989 49.9442 484.712 48.2994 494.408C47.6049 498.503 46.8802 502.595 46.1252 506.684L45.542 509.813C39.5386 511.257 37.8981 519.627 44.0106 522.717C46.785 524.113 50.3495 523.777 52.6361 521.583C55.0123 519.295 55.1108 515.171 55.6624 512.073L56.1936 509.194C60.1688 487.547 63.6189 465.652 65.2319 443.699C65.6464 438.031 65.9953 432.358 66.2223 426.68C66.4378 421.34 66.3348 416 66.4173 410.66L66.4448 409.203C66.5708 403.508 66.4666 397.822 66.3183 392.127C66.3008 391.433 66.2702 390.739 66.2353 390.041C66.4356 389.806 66.5799 389.526 66.6406 389.256L66.7196 388.898C66.9159 387.977 66.6934 386.899 65.9862 386.24C65.6813 382.361 65.2798 378.486 65.1708 374.61C65.1621 374.292 64.704 374.301 64.6773 374.61C64.4199 377.909 63.9056 381.217 63.3906 384.521C60.0793 381.859 57.6317 377.468 56.1875 373.794C56.0828 373.528 55.6941 373.624 55.7556 373.912ZM134.105 219.682C133.556 222.196 132.468 224.453 131.012 226.551C130.318 227.555 129.529 228.489 128.582 229.27C127.77 229.938 126.845 230.374 125.981 230.955C124.725 230.758 123.412 231.234 122.53 232.159L122.67 230.806C122.714 230.37 121.989 230.283 121.906 230.705C118.088 249.96 114.608 269.227 111.595 288.621L110.273 297.185L109.031 305.225C106.967 318.623 104.971 332.015 103.468 345.511C101.466 363.522 99.7819 381.579 98.5516 399.663C97.3169 417.874 96.5573 436.098 96.0163 454.343C95.8814 458.944 95.7371 463.538 95.5979 468.138L94.6659 462.639C93.7359 457.139 92.8238 451.634 92.0421 446.109C89.2367 426.336 86.9937 406.423 85.8991 386.48C84.8952 368.23 85.2311 349.618 89.8733 331.839C91.0429 327.367 92.474 322.963 94.2013 318.673C95.8771 314.501 98.1629 310.635 99.9652 306.525C102.059 301.742 102.688 297.229 101.61 292.08C100.667 287.594 99.0136 283.374 98.7173 278.757C98.1629 270.186 100.951 261.885 104.89 254.385C105.929 252.408 107.024 250.457 108.168 248.524C111.627 242.68 115.527 237.05 119.576 231.653C119.794 231.365 119.332 231.046 119.096 231.282C115.406 234.931 111.37 238.518 108.049 242.502C106.435 244.439 104.86 246.416 103.368 248.446C86.9981 251.182 72.932 261.379 63.3166 274.847C52.405 290.129 46.8858 308.524 42.8017 326.637C38.2599 346.769 34.4293 367.083 30.35 387.313C26.1271 408.248 21.9256 429.182 17.6761 450.11C15.5645 460.5 13.4523 470.891 11.3455 481.286C10.2766 486.549 9.15486 491.799 7.9817 497.044C7.37918 499.732 6.73346 502.417 6.17501 505.114C5.54719 508.155 6.13179 510.1 8.19066 512.335C8.95026 513.165 10.1501 513.151 11.0925 512.711L11.387 512.572L11.6718 512.434C12.8379 511.861 13.7521 511.268 14.4777 509.991C15.2765 508.592 15.4031 507.038 15.6774 505.48C16.1839 502.612 16.6853 499.745 17.1914 496.874C17.9476 492.58 18.7698 488.298 19.6067 484.018L23.8054 462.624C24.9251 456.921 26.0464 451.217 27.1742 445.516C31.2012 425.127 35.2325 404.743 39.2634 384.359C43.1338 364.787 46.5586 345.08 50.9648 325.621L51.2153 324.525L51.47 323.43C55.4101 306.654 60.915 290.427 70.9037 276.213C78.5912 265.281 89.2669 255.519 101.841 250.579C100.955 251.854 100.104 253.154 99.2928 254.481C94.197 262.807 90.4758 272.691 91.3484 282.606C91.7755 287.45 93.6167 292.211 93.4426 297.095C93.2812 301.432 90.5975 305.242 88.7433 309.016C84.5336 317.57 81.4877 326.66 79.5244 335.985C75.5848 354.711 75.5978 373.978 76.9551 392.987C78.4298 413.65 81.2304 434.309 84.4197 454.771C86.0557 465.265 88.2328 475.674 89.8999 486.152C90.7241 491.318 91.8458 496.473 92.8274 501.614L93.2953 504.069C93.5572 505.433 93.829 506.791 94.1429 508.135L94.3366 508.94V509.084C94.3453 510.075 94.6163 510.895 95.0525 511.55C95.6498 513.465 96.3915 515.334 97.3775 517.127C97.8837 518.043 98.617 518.557 99.4154 518.746C100.218 520.584 102.038 521.997 104.21 521.988L132.783 521.879C149.38 521.814 165.976 521.705 182.572 521.612C186.76 521.591 190.945 521.513 195.128 521.403C199.051 521.294 202.812 520.823 206.69 520.335C211.071 519.785 213.444 516.681 212.789 512.305C212.646 511.34 212.489 510.381 212.34 509.42C213.213 509.709 214.251 509.573 214.954 508.888L215.613 508.243C216.526 507.34 217.341 506.453 217.921 505.248C218.518 504.009 219.003 502.7 219.531 501.434C220.669 498.711 221.778 495.979 222.856 493.234C225.015 487.745 227.175 482.233 229.181 476.686C233.156 465.702 236.673 454.552 239.731 443.276C245.184 423.159 249.129 402.653 251.616 381.964L252.211 377.033L252.383 375.576C253.327 367.557 254.12 359.414 253.745 351.411C253.513 346.402 252.737 341.353 250.865 336.674C249.138 332.359 246.472 328.667 243.937 324.809L243.648 324.364L243.356 323.908C241.139 320.404 239.375 316.741 239.287 312.486C239.196 308.168 240.455 303.966 241.861 299.923L242.212 298.926L242.447 298.265C245.438 289.911 248.843 281.674 247.72 272.582C246.062 259.194 237.947 248.402 227.737 240.08C236.817 241.877 245.804 245.43 253.736 249.933C263.103 255.257 271.537 262.283 278.81 270.212C292.553 285.197 302.365 303.177 310.398 321.742C318.805 341.169 325.039 361.527 329.738 382.152C334.463 402.893 337.626 423.966 339.786 445.123C340.863 455.652 341.71 466.208 342.412 476.769C342.77 482.181 343.04 487.601 343.459 493.003C343.879 498.401 344.067 503.882 345.384 509.137C345.999 511.585 350.148 511.833 350.593 509.137C351.579 503.114 351.303 496.885 351.028 490.786L351.003 490.232C350.732 484.158 350.379 478.088 349.961 472.018C349.106 459.611 347.963 447.221 346.47 434.872C341.239 391.52 331.593 348.396 312.67 308.824C303.761 290.186 292.326 272.076 276.419 258.617C268.845 252.216 260.307 247.105 251.106 243.405C242.876 240.093 234.517 238.526 225.774 238.53C221.389 235.17 216.681 232.242 211.979 229.742C211.696 229.589 211.399 229.956 211.634 230.191C211.756 230.308 211.874 230.43 211.996 230.545C211.464 230.579 210.914 230.828 210.422 231.348C208.693 233.159 207.236 235.423 205.932 237.775C203.947 240.254 202.053 242.816 200.072 245.268C196.9 249.195 193.655 253.066 190.369 256.906C184.851 263.36 179.153 269.692 173.211 275.769L172.22 276.78C169.139 279.9 166.02 283.635 162.377 286.105L162.183 286.234C160.645 287.236 159.556 287.419 158.245 285.923C157.053 284.561 156.062 282.981 155.042 281.48L154.806 281.136C149.602 273.573 144.777 265.731 140.409 257.658C138.418 253.984 136.525 250.256 134.728 246.488L134.192 245.355C133.215 243.279 132.155 241.24 131.348 239.102C131.16 238.601 130.977 238.099 130.798 237.601C133.546 235.799 135.675 231.898 136.447 228.843C137.25 225.67 136.844 222.414 135.414 219.512C135.144 218.967 134.236 219.102 134.105 219.682ZM269.7 348.605C270.08 360.667 270.311 372.742 270.878 384.796L271.074 388.91C270.189 389.897 269.669 391.036 270.084 392.598C270.246 393.197 270.721 393.737 271.314 393.939L271.5 397.764C272.342 414.978 273.328 432.155 275.132 449.325C277.388 470.813 279.997 492.265 282.601 513.715C282.972 516.752 285.084 519.16 288.369 518.716C291.693 518.266 293.041 515.372 292.605 512.357C290.89 500.527 289.242 488.688 287.797 476.817L286.153 463.295C284.09 446.39 281.979 429.488 279.547 412.637C278.531 405.595 277.475 398.555 276.415 391.516L276.785 391.036C278.3 389.068 279.866 387.143 281.415 385.207C284.389 381.47 287.326 377.766 290.053 373.855C290.188 373.659 289.913 373.371 289.717 373.519C285.896 376.343 282.278 379.362 278.639 382.431L275.455 385.127C273.622 372.965 271.807 360.799 270.189 348.605C270.149 348.301 269.691 348.278 269.7 348.605ZM214.723 233.171C217.022 235.34 219.373 237.462 221.691 239.617L222.54 240.411L223.385 241.207C227.456 245.07 231.358 249.09 234.609 253.709C240.578 262.188 244.134 272.525 241.651 282.876C239.591 291.451 234.866 299.224 233.597 308.013C232.96 312.415 233.269 316.841 234.928 321C236.621 325.242 239.325 328.876 241.756 332.704C247.035 341.021 247.755 350.151 247.231 359.787C246.681 369.849 245.525 379.917 244.098 389.889C241.21 410.093 236.856 430.089 231.093 449.67C228.208 459.476 224.802 469.072 221.412 478.707C219.723 483.504 217.755 488.186 215.726 492.846C214.658 495.299 213.562 497.738 212.449 500.172C212.86 496.734 212.86 493.204 213.061 489.787C213.349 484.89 213.715 480.004 214.051 475.111C214.735 465.184 215.346 455.247 215.892 445.31C217.825 409.875 219.247 374.409 219.142 338.918C219.09 321.17 218.728 303.422 217.965 285.691C217.607 277.342 216.913 269 216.287 260.661L216.153 258.876C215.6 251.391 214.937 243.89 213.798 236.471C214.135 235.71 214.428 234.94 214.645 234.15L214.723 233.853L214.666 233.861C214.718 233.629 214.735 233.399 214.723 233.171ZM194.837 202.677C194.788 202.472 194.497 202.489 194.444 202.677C193.148 207.041 193.607 211.84 194.723 216.231C195.325 218.609 196.18 220.918 197.214 223.144L197.576 223.923C198.462 225.817 199.46 227.77 201.184 228.952C201.904 229.444 203.192 229.475 203.912 228.952L204.278 228.673C204.339 228.626 204.399 228.577 204.457 228.528C205.129 227.965 205.46 226.721 205.151 225.901C204.352 223.785 202.541 222.231 201.289 220.346C200.181 218.67 199.2 216.902 198.384 215.065C196.626 211.09 195.836 206.871 194.837 202.677Z" fill="black"/>
<path fill-rule="evenodd" clip-rule="evenodd" d="M164.322 44.4942C139.6 44.4942 114.031 63.7008 104.97 75.9569C94.4915 90.1287 86.2261 158.161 90.1036 181.245C93.9811 204.33 113.242 229.491 146.677 229.491C180.113 229.491 200.461 225.363 201.278 219.367C201.821 215.37 209.173 202.246 223.33 179.996C237.811 175.914 245.08 168.997 245.137 159.245C245.193 149.494 241.313 142.844 233.497 139.296C236.284 100.812 234.168 76.5609 227.15 66.5416C216.621 51.5127 189.042 44.4942 164.322 44.4942Z" fill="#FFDBB4"/>
<path fill-rule="evenodd" clip-rule="evenodd" d="M180.99 7.22016C177.665 3.29844 171.801 7.00537 171.933 11.2908C170.606 11.6509 169.04 12.8934 168.436 14.5132C167.129 14.4282 165.812 14.6885 164.626 15.3688L164.376 15.0598C160.264 10.0277 154.822 5.70958 149.207 9.41534C147.679 10.4239 146.994 12.0905 147.331 13.8971L147.358 14.025L147.233 13.4673C147.107 12.9373 147.296 13.9977 147.366 14.2221L147.375 14.2476C147.523 14.6254 147.671 14.8156 147.806 15.1013C142.057 11.0075 133.303 13.4038 137.916 21.3285L136.04 20.5953C129.551 18.0814 121.481 15.3821 115.565 19.9017C112.92 22.4516 115.856 25.8515 118.55 26.6757L118.087 26.5981C112.916 25.7179 102.129 23.5426 100.588 30.2896C100.034 32.7172 101.65 34.4914 103.689 35.4682C99.3744 35.4523 95.1187 36.1653 91.3849 38.276C87.8333 40.8059 90.7037 44.9924 94.4179 44.8098C93.2664 46.2371 92.8843 48.6525 93.996 50.1942C91.8853 50.7496 89.9381 51.4638 88.1433 52.5774L87.65 52.641C84.0623 53.0896 79.9692 53.3566 77.9956 56.8883C75.0909 64.5514 85.4341 64.2462 89.8737 61.5547C89.6103 61.9839 89.4148 62.4525 89.3053 62.953L87.8667 63.3576C82.4394 64.8706 76.297 66.5422 72.8027 71.1206C71.2011 73.7554 73.43 78.2329 76.7788 77.4328C67.7042 81.7646 71.1823 93.176 80.0571 87.2398C80.4721 87.6249 80.977 87.9109 81.5058 88.0372L79.6331 89.0548C74.8766 91.665 69.1564 95.2383 70.1496 101.164C71.0942 104.3 75.4344 103.727 77.6404 102.527C73.786 105.849 70.1492 109.446 66.8455 113.335L65.9312 114.425C63.3619 117.512 58.892 123.194 63.7339 126.163C69.703 129.208 72.678 120.216 76.1497 117.007C73.3739 123.553 82.3983 128.119 85.5482 121.525C86.0773 121.618 86.6093 121.628 87.1306 121.557C84.4149 124.442 77.0702 144.185 86.2061 139.855C87.6609 138.313 88.9378 136.626 90.1116 134.856C88.6449 146.168 87.5721 157.533 86.8784 168.906L86.6315 173.028C86.3791 177.305 86.1883 181.599 86.6675 185.861C87.2208 190.823 88.6441 195.479 90.7991 199.974C92.7849 204.12 95.3449 207.96 98.2745 211.491C99.8418 213.38 101.505 215.218 103.551 216.6C105.18 217.7 107.083 218.425 108.915 219.123C111.897 222.107 115.724 224.364 119.464 226.166C125.628 229.13 132.312 230.766 139.073 231.586C145.987 232.42 152.971 232.219 159.827 231.028C166.38 229.893 173.402 226.991 177.438 221.462C177.786 220.986 177.138 220.537 176.712 220.733C165 226.166 151.839 227.584 139.073 225.87C133.118 225.071 127.257 223.422 121.82 220.86C117.231 218.7 113.36 215.558 109.242 212.713C108.441 211.643 107.631 210.591 106.708 209.614L105.267 208.1C104.19 206.962 103.133 205.809 102.172 204.565C99.2018 200.729 96.7424 196.378 95.1181 191.801C91.9592 182.89 92.8134 173.217 93.3717 163.931L93.4201 163.112C93.9948 153.18 94.9312 143.282 96.2282 133.42C96.7677 129.316 97.3678 125.218 98.0252 121.13C99.0786 119.412 100.204 117.75 101.463 116.193C100.438 120.184 103.987 125.734 108.339 123.1C113.321 118.83 113.081 111.938 117.257 106.71C121.586 100.007 151.456 86.9715 160.336 85.1409C158.906 87.2271 156.292 88.6802 155.683 91.1424C144.761 100.815 162.564 105.964 168.123 92.1792C168 96.7684 167.536 101.318 166.518 105.797C165.034 109.911 163.87 121.831 171.309 118.234C174.869 119.265 177.584 116.224 178.031 112.795C180.602 120.545 178.171 132.929 182.886 138.641C184.333 140.143 186.568 139.143 187.32 137.427C191.682 136.282 191.309 131.185 191.839 127.537C195.817 142.078 200.796 152.172 201.481 167.34C198.403 171.733 205.155 174.963 208.053 171.443C212.12 165.554 208.37 157.502 207.412 151.054C208.556 150.995 209.689 150.486 210.634 149.374C211.149 151.397 210.853 154.062 210.68 156.258C213.259 166.364 223.064 159.891 222.657 151.692C223.081 154.006 223.402 156.342 223.605 158.695C221.712 160.879 220.308 163.493 219.478 166.267C218.881 168.272 220.914 169.474 222.465 169.183C223.291 172.007 226.872 174.044 229.228 171.345C231.556 168.985 231.96 165.575 232.145 162.18C232.47 161.834 232.667 161.382 232.635 160.834C232.605 160.319 232.479 159.884 232.279 159.516C232.319 158.822 232.368 158.141 232.443 157.483C234.246 163.101 233.073 168.989 232.916 174.744C229.732 176.54 226.099 177.308 222.45 178.066L221.92 178.176C220.793 178.412 220.435 180.096 221.285 180.803C219.025 183.02 217.075 185.665 215.172 188.104C212.646 191.341 210.229 194.705 207.88 198.076L206.499 200.057C202.47 205.81 196.899 213.603 199.394 220.689C199.734 221.662 201.153 222.012 201.706 220.99C203.522 217.63 204.536 213.929 206.26 210.53C207.953 207.196 210.061 204.106 212.15 201.017L213.356 199.227C215.364 196.236 217.352 193.214 219.195 190.134L220.478 188C221.684 185.987 222.878 183.906 223.767 181.742C226.931 182.507 230.244 181.958 233.279 180.635L233.318 180.846L233.394 181.227C233.828 183.056 236.346 184.306 237.954 183.109C241.803 180.2 243.37 175.871 243.78 171.241C244.555 169.933 245.212 168.553 245.749 167.123C246.002 169.974 247.1 172.738 250.481 172.653C256.349 172.17 256.926 166.615 255.339 161.09C262.286 163.217 263.1 153.369 260.908 148.179C261.721 147.936 262.476 147.45 262.907 146.795L263.267 147.428C264.602 149.745 266.116 151.994 268.225 153.197C271.172 154.877 275.457 152.796 275.261 149.096C274.63 143.068 269.358 138.475 266.148 133.644C266.719 133.725 267.313 133.704 267.896 133.596C274.312 137.183 277.373 128.74 275.113 123.848C273.458 119.454 270.461 115.675 267.249 112.343L268.191 112.907C269.89 113.911 271.784 114.879 273.652 114.485C285.874 122.535 289.885 108.997 276.171 104.766L276.176 104.703C277.552 103.372 278.149 101.266 277.079 99.163C282.11 100.934 289.291 96.9269 284.858 91.4503C281.965 88.7206 278.553 86.3725 274.77 85.1437C274.959 84.1387 275.02 83.116 274.941 82.087L275.168 82.1177C277.556 82.4624 280.5 83.4397 281.972 80.8623C282.72 79.5644 282.631 77.4255 281.408 76.4165C277.192 72.942 272.381 70.0521 267.157 68.8805C266.965 68.2429 266.765 67.6089 266.553 66.9782C271.011 66.8951 276.015 60.9612 270.895 57.599C266.394 55.3002 261.757 53.8217 256.675 53.9588C259.654 51.0139 257.895 45.6758 253.933 44.8552C256.528 39.3173 250.118 36.46 245.336 37.3333C245.512 34.8729 244.198 32.1305 241.669 31.5129C242.996 23.7272 234.77 24.4637 229.617 26.3093C231.342 23.3076 229.569 19.7763 226.525 18.7237C221.54 17.5926 216.769 22.3526 212.973 25.2716C214.267 22.2263 213.176 19.4186 210.093 18.2051C206.917 16.9595 203.495 19.3667 200.845 21.0025C199.404 19.1888 196.944 18.5975 194.737 18.7096C194.502 18.0285 194.155 17.4604 193.711 17.0113C193.724 12.8144 186.595 10.507 184.107 14.4165C183.684 11.6981 182.568 9.08248 180.99 7.22016ZM91.8008 83.3417L91.7186 83.7935C91.6132 83.887 91.5141 83.9856 91.4128 84.0815C91.095 84.1568 90.7882 84.2363 90.4974 84.3176C90.9211 83.9739 91.3575 83.6555 91.8008 83.3417ZM86.2979 72.3277L86.3947 72.462C86.4112 72.4842 86.4281 72.506 86.4457 72.5271C86.1771 72.629 85.909 72.7332 85.6421 72.8408L85.2423 73.0047L85.1013 73.067C85.4984 72.8172 85.897 72.5697 86.2979 72.3277ZM150.471 16.881L150.711 16.9407C150.787 16.9594 150.86 16.9767 150.927 16.9927C150.951 16.999 150.974 17.0017 150.996 17.0109L150.933 16.9972C151.047 17.0839 151.197 17.1861 151.321 17.2678C151.199 17.2579 151.077 17.246 150.955 17.2393C150.795 17.1194 150.633 16.9999 150.471 16.881Z" fill="black"/>
<path fill-rule="evenodd" clip-rule="evenodd" d="M127.491 189.417C126.823 188.252 125.282 187.174 123.872 187.34C117.554 188.08 117.566 195.741 120.005 200.213C122.167 204.179 126.643 206.506 131.123 206.166C135.829 205.809 139.84 203.042 141.604 198.638C142.771 195.725 143.311 190.348 140.206 188.39C140.148 188.353 140.054 188.363 140.008 188.415C138.519 190.147 138.46 192.748 137.157 194.676C135.945 196.47 134.062 197.951 131.857 198.179C130.209 198.35 128.542 197.756 127.898 196.277C127.549 195.477 127.589 195.042 127.72 194.491L127.839 194.013C128.251 192.336 128.437 191.061 127.491 189.417ZM125.804 155.821C122.509 157.824 117.489 162.494 121.032 167.461C125.204 171.839 131.211 166.819 134.172 164.548C136.917 162.788 140 167.314 137.453 169.369C116.065 185.208 107.385 156.345 124.137 153.466C125.981 153.148 126.667 155.201 125.804 155.821ZM160.595 142.085C158.572 139.051 153.956 139.498 152.843 143.099C152.239 145.05 153.072 146.803 153.029 148.752C152.993 150.397 153.101 152.231 153.605 153.824C154.755 157.459 158.023 160.025 161.889 159.919C165.743 159.813 169.136 157.374 170.75 153.938C172.37 150.489 172.027 146.92 170.845 143.413C170.788 143.244 170.567 143.162 170.433 143.304C169.036 144.791 168.013 146.358 166.954 148.022L165.87 149.727C165.041 151.011 163.836 152.65 162.288 152.548L162.055 152.526C161.624 152.488 161.69 152.574 161.359 151.987C161.206 151.715 161.233 151.211 161.159 150.891L161.133 150.783L161.148 150.724C161.18 150.569 161.213 150.277 161.239 149.77L161.244 149.657C161.357 147.285 162.027 144.236 160.595 142.085ZM109.334 144.106C109.696 140.225 104.241 139.363 102.427 142.234C101.481 143.732 101.206 145.614 100.997 147.396L100.899 148.242C100.684 150.073 100.599 151.978 101.394 153.685C102.645 156.374 105.366 157.796 108.301 157.571C111.105 157.356 113.662 155.73 115.01 153.261C116.213 151.06 117.407 146.76 115.947 144.464C115.859 144.324 115.683 144.307 115.562 144.414C114.183 145.639 113.958 147.873 113.138 149.47C112.292 151.116 111.009 152.72 109.064 152.97C107.203 153.209 106.493 152.193 106.967 150.419C107.58 148.128 109.103 146.57 109.334 144.106ZM159.121 119.011L158.229 118.669C155.172 117.514 150.975 116.179 148.49 118.665C146.957 120.198 146.665 122.456 147.76 124.327C149.085 126.593 151.463 126.649 153.76 126.983C156.372 127.363 159.029 128.085 161.461 129.114C164.2 130.273 166.743 131.718 169.234 133.333C171.6 134.867 173.96 137.374 176.794 137.846C176.909 137.865 177.04 137.816 177.071 137.689C177.714 134.917 175.926 132.191 174.329 130.028C172.399 127.411 170.059 125.263 167.444 123.337C164.92 121.478 162.036 120.134 159.121 119.011ZM103.595 128.863L103.323 128.815C101.469 128.506 99.7894 128.577 98.3925 130.046C97.3262 131.166 96.9152 132.618 97.4235 134.099C97.8925 135.465 98.9413 136.854 100.464 137.14C105.603 138.108 111.295 137.947 116.46 137.215C118.823 136.88 121.207 136.47 123.508 135.823L124.567 135.516C126.489 134.967 128.689 134.393 130.085 132.98C130.587 132.472 130.297 131.745 129.697 131.51C127.262 130.555 123.923 131.063 121.326 130.989C118.306 130.902 115.28 130.676 112.274 130.364C109.335 130.059 106.493 129.394 103.595 128.863Z" fill="black"/>
<path fill-rule="evenodd" clip-rule="evenodd" d="M86.7569 158.479C92.054 163.954 100.897 165.524 107.944 162.588C126.04 155.026 117.183 131.439 103.227 125.105C101.484 124.67 99.155 123.639 97.0316 123.405C96.8396 123.311 96.4217 123.584 95.9151 123.325C80.5267 125.044 77.0223 148.937 86.7569 158.479ZM145.123 159.88C151.065 167.761 162.109 170.194 171.133 166.529C188.961 159.507 182.639 138.592 170.441 130.392C144.675 120.707 134.034 145.348 145.123 159.88ZM183.77 142.417C183.787 142.409 183.804 142.404 183.82 142.397C183.726 142.355 183.631 142.314 183.538 142.272C183.568 142.352 183.602 142.431 183.631 142.51C183.678 142.479 183.719 142.441 183.77 142.417ZM74.4918 133.897C75.9465 133.9 78.0476 134.139 79.2518 135.148C82.2212 125.132 93.1818 115.861 102.714 122.621C110.22 125.035 115.791 130.391 118.956 137.51C124.664 134.114 133.64 135.564 138.589 140.055C141.831 129.342 149.809 125.59 159.305 125.035C169.669 123.338 180 133.406 183.223 141.483C185.904 141.177 189.908 140.325 192.43 141.979C208.794 137.687 237.404 135.32 240.73 137.704C243.101 138.615 244.402 144.212 241.091 144.513C238.204 144.104 241.428 140.413 238.518 140.01C223.02 139.049 207.975 142.171 192.64 143.48C191.271 145.323 186.847 145.939 184.488 145.199C188.204 158.9 180.182 168.221 168.159 171.014C149.544 175.29 133.348 158.634 138.216 141.309C132.577 138.503 126.09 138.624 119.947 140.102C130.213 177.889 69.3685 176.193 78.8713 136.444C72.5473 139.59 71.1738 134.532 74.4918 133.897Z" fill="black"/>
</svg>
