<svg width="36" height="42" viewBox="0 0 36 42" fill="none" xmlns="http://www.w3.org/2000/svg">
<path fill-rule="evenodd" clip-rule="evenodd" d="M16.0004 0.00406674L16.0943 0.00446633C21.9181 0.0424663 27.8413 2.74537 31.3061 7.46707L31.4103 7.61077C31.416 7.61827 31.5197 7.77397 31.5442 7.81827C31.6878 8.07827 31.857 8.32147 31.9867 8.58577C32.0963 8.81017 32.1692 9.06087 32.2497 9.29987L32.2741 9.37117C32.4809 9.96777 32.6551 10.5699 32.8091 11.1823C33.1075 12.3744 33.3402 13.5852 33.5665 14.7932C34.3748 19.1189 34.9034 23.5063 35.1698 27.8994L35.2223 28.7828C35.2761 29.699 35.3167 30.6191 35.2147 31.5323C35.0968 32.5953 34.7938 33.593 34.3349 34.556C33.9121 35.4442 33.3671 36.267 32.7433 37.0234C32.4096 37.4283 32.0554 37.8219 31.6197 38.1182C31.273 38.3539 30.8678 38.5091 30.4776 38.6587C29.8427 39.2983 29.0278 39.7816 28.2315 40.1678C26.9189 40.8026 25.4959 41.1533 24.0563 41.329C22.5842 41.5075 21.0973 41.4646 19.6373 41.2094C18.2421 40.9663 16.7468 40.3445 15.8875 39.1599C15.8134 39.058 15.9514 38.9617 16.0423 39.0037C18.536 40.1678 21.3382 40.4717 24.0563 40.1042C25.3244 39.9331 26.5721 39.5797 27.73 39.0308C28.7071 38.568 29.5311 37.8948 30.4081 37.2852C30.5787 37.0562 30.751 36.8308 30.9477 36.6214L31.2544 36.297C31.4837 36.0533 31.7088 35.8063 31.9135 35.5396C32.5458 34.7178 33.0695 33.7856 33.4154 32.8048C34.088 30.8956 33.9061 28.8232 33.7872 26.8335L33.7769 26.6582C33.6545 24.5302 33.4551 22.4096 33.179 20.2965C32.9026 18.1807 32.5513 16.0732 32.1361 13.9807C31.9312 12.9494 31.7012 11.9247 31.4983 10.8934C31.3935 10.3614 31.3203 9.82187 31.2406 9.28427C31.1923 8.95697 31.1932 8.64187 31.1923 8.32217C31.1831 8.33707 31.1719 8.35117 31.1608 8.36517C31.1942 8.44467 31.1711 8.54657 31.0895 8.59327C30.7808 8.77097 30.4248 8.71107 30.0772 8.71207C29.7082 8.71387 29.3392 8.71487 28.9703 8.71577C28.586 8.71717 28.2018 8.71717 27.8175 8.71657L26.6648 8.71387L22.0539 8.69987C19.0342 8.69077 15.9633 8.81187 12.9534 8.52477L12.7236 8.50187C12.4871 8.47437 9.8178 8.14517 9.096 8.06017L9.074 8.05757C7.7548 7.90417 6.4543 7.67697 5.1723 7.33667C5.5912 7.50587 5.9945 7.73407 6.4097 7.90697C6.9456 8.12957 7.4953 8.32397 8.0451 8.51007C9.1732 8.89247 10.3032 9.26367 11.4267 9.65827C11.7488 9.77117 12.4808 12.5545 12.6653 12.9948L12.6707 13.0074C12.7644 13.2196 12.8933 13.4524 12.8218 13.6937C12.6643 14.2266 11.829 14.6212 11.4147 14.9222L10.9887 15.2323L10.4316 15.6388C10.2031 15.8039 9.9922 15.9302 9.6932 15.8357C9.6923 15.8348 9.6914 15.8348 9.6905 15.8348C9.9464 17.0325 10.0706 20.9062 10.1086 21.5859C10.1419 22.1777 10.3143 22.936 10.0399 23.4755C9.975 23.6036 9.8064 23.7046 9.6626 23.6943C9.0359 23.6466 8.4094 23.5998 7.7827 23.5531C7.6148 23.54 7.4619 23.4437 7.4155 23.2717L7.4137 23.2623C7.3934 23.2679 7.3702 23.2642 7.3507 23.2436C7.3164 23.209 7.2812 23.1754 7.245 23.1426C6.42 22.4003 5.1296 22.217 4.1117 22.6032C3.5778 22.8051 2.9706 23.1454 2.5942 23.5868C2.1761 24.0767 2.0863 24.7611 2.0853 25.3866C2.0834 26.5927 2.5155 27.8138 3.397 28.6506C4.207 29.4188 5.2521 29.6423 6.3036 29.8622L6.4163 29.8858C6.6563 29.9362 6.7324 30.2971 6.5517 30.4486C7.0328 30.9236 7.4481 31.4902 7.8532 32.0128C8.3911 32.7062 8.9055 33.4271 9.406 34.1495L9.6475 34.499C10.5085 35.7382 11.7546 37.4452 11.2126 38.9944C11.1403 39.2029 10.8381 39.2777 10.7203 39.0589C10.3338 38.339 10.1178 37.5461 9.7507 36.8177C9.3902 36.1034 8.9415 35.4414 8.4964 34.7795L8.2397 34.3958C7.8124 33.7552 7.389 33.1076 6.9965 32.4476L6.7233 31.9907C6.4665 31.5592 6.2124 31.1133 6.0232 30.6496C4.7578 30.9572 3.3821 30.2728 2.4931 29.3612C1.3753 28.2131 0.849702 26.5217 0.994202 24.9313C1.0703 24.0991 1.3141 23.2941 1.9184 22.6957C1.9796 22.6359 2.0436 22.5788 2.1095 22.5218C2.0863 22.5097 2.0668 22.491 2.0575 22.4685C1.6524 21.498 1.5661 20.3414 1.5318 19.2961C1.4958 18.2153 1.519 17.1316 1.6004 16.0526C1.7498 14.0742 2.1038 12.1061 2.6657 10.2043C3.4971 7.39367 4.9257 4.64207 7.208 2.75617C9.6417 0.744767 12.9023 -0.00113326 16.0004 0.00406674ZM3.8856 24.5872C4.2293 24.4299 4.7655 24.7101 5.0715 24.8887L5.0916 24.9004C5.9954 25.4305 6.6388 26.3337 6.9363 27.3342C7.1273 27.9793 6.0547 28.2364 5.9639 27.6044C5.8898 27.0892 5.7192 26.6068 5.4384 26.1757C5.3715 26.1982 5.3066 26.2272 5.2483 26.2646C5.0249 26.4104 4.895 26.661 4.5846 26.6236C4.3546 26.5965 4.1191 26.4357 4.1349 26.1701C4.16 25.7316 4.5103 25.5568 4.8859 25.5343C4.8323 25.4859 4.7782 25.4381 4.7228 25.3919L4.6622 25.3428C4.5935 25.2928 3.8589 24.7817 3.8378 24.9132L3.8373 24.921C3.8383 24.9733 3.7687 25.0033 3.7335 24.964C3.5917 24.8107 3.7234 24.662 3.8856 24.5872Z" fill="black"/>
</svg>
