<svg width="40" height="12" viewBox="0 0 40 12" fill="none" xmlns="http://www.w3.org/2000/svg">
<path fill-rule="evenodd" clip-rule="evenodd" d="M38.6686 0.977364C38.5922 0.964564 38.5156 0.952566 38.4391 0.941266C38.3793 0.907066 38.3092 0.880864 38.2276 0.864964C38.0414 0.817464 37.8564 0.785365 37.6718 0.768065C35.0212 0.167665 28.8894 1.02016 28.6364 3.29666C27.7923 3.58016 27.062 3.32626 26.0837 3.35156C25.339 0.218865 12.4651 0.660966 11.846 2.54967C11.8436 2.54907 11.8413 2.54846 11.8389 2.54766C11.244 2.36236 10.367 2.40706 9.686 2.37776C8.2321 2.34706 6.7765 2.47747 5.354 2.78617C2.6902 3.21217 -0.945304 3.71107 0.907296 7.05907C0.907696 7.05957 0.907995 7.06027 0.908395 7.06077L0.908696 7.06047C1.228 7.38987 1.7699 7.12467 1.79 6.67877C1.1671 5.09267 2.574 4.90216 3.6564 4.44636C6.3497 3.47246 9.0919 3.33747 11.8775 3.63877C12.087 3.88707 12.405 4.10366 12.7411 4.21696C14.6036 4.52806 13.6221 5.91866 14.7993 6.12086C14.5831 10.968 20.4301 13.6139 23.8179 10.4275C25.1706 9.09647 25.493 7.12466 25.8066 5.34736C25.9725 5.30986 26.0779 5.21857 26.1395 5.09777C26.5383 4.69707 26.7888 4.32696 27.5774 4.21696C28.366 4.10696 28.9731 4.32777 29.0552 4.39537C29.0759 4.43737 29.0982 4.47936 29.124 4.52146C29.16 4.58416 29.2091 4.63426 29.2648 4.67356C28.4861 9.50036 32.2091 12.5529 35.9676 10.0495C37.6007 8.50326 37.9458 6.13607 38.014 4.02317C38.2354 3.88877 38.3755 3.62817 38.2989 3.30057C38.1933 2.84897 38.4409 2.45796 38.8354 2.26156C39.3479 2.00666 39.2572 1.07546 38.6686 0.977364ZM22.5188 3.26726C22.0523 3.16396 21.853 3.88797 22.321 3.99147C22.6525 4.06487 22.9333 4.23307 23.1231 4.51797L23.1431 4.54896C23.3977 4.95686 24.0416 4.58036 23.7852 4.16986C23.4967 3.70796 23.0484 3.38446 22.5188 3.26726ZM36.1826 2.81846C36.0181 2.70186 35.7692 2.78837 35.6738 2.95317C35.5687 3.13457 35.6376 3.33656 35.7916 3.45526L35.8073 3.46686C35.9486 3.56706 36.0862 3.74676 36.1034 3.93086L36.105 3.95386C36.1235 4.43556 36.8673 4.43806 36.8487 3.95386C36.8306 3.48016 36.5581 3.08446 36.1826 2.81846Z" fill="black"/>
</svg>
