<svg width="201" height="284" viewBox="0 0 201 284" fill="none" xmlns="http://www.w3.org/2000/svg">
<path fill-rule="evenodd" clip-rule="evenodd" d="M155.076 154.064C152.899 153.288 150.802 152.393 148.89 151.075C143.381 146.976 139.788 140.808 136.393 134.964C131.612 126.464 128.205 117.407 125.85 107.958C124.839 103.899 124.495 99.1921 122.196 95.5931C116.985 88.0571 101.704 89.0336 93.5895 90.3564C88.1556 91.3173 87.0325 97.3946 85.7984 101.892C84.7708 105.628 84.0981 109.407 83.5334 113.237C82.19 114.119 80.6734 114.836 79.2277 115.461C63.4729 120.289 60.7039 129.24 54.6863 143.066C44.5227 163.163 16.9439 171.031 12.778 194.815C10.094 210.517 17.7266 225.289 25.5959 238.343C32.9245 252.601 43.1557 259.444 59.4494 256.076C74.732 252.649 89.4194 246.918 104.433 242.489C111.705 240.702 118.965 236.055 126.614 237.675C142.375 241.213 158.569 242.876 174.722 242.417C197.401 243.333 197.397 221.58 195.069 204.734C193.439 178.517 180.208 161.683 155.076 154.064Z" fill="#AE5D29"/>
<path fill-rule="evenodd" clip-rule="evenodd" d="M156.592 191.999C158.487 193.252 160.081 195.15 161.361 197.149C156.019 196.594 150.687 195.953 145.366 195.224C146.063 194.78 146.766 194.344 147.485 193.934C150.108 192.456 153.663 190.063 156.592 191.999ZM67.8454 207.779C66.8666 207.396 66.4879 205.905 66.1064 205.05C64.9104 202.369 63.8189 199.643 62.6832 196.935C66.9952 195.707 71.1884 194.344 75.6552 193.689C80.4582 192.986 85.3321 192.816 90.1794 192.974C99.9978 193.294 109.725 194.897 119.378 196.617C129.02 198.335 138.661 199.985 148.37 201.28C157.883 202.549 167.425 203.477 176.986 204.292C178.843 204.451 181.94 205.118 183.434 203.658C184.617 202.501 184.655 200.367 183.175 199.426C182.253 198.84 180.918 198.831 179.864 198.696C178.538 198.525 177.206 198.412 175.872 198.323C175.328 198.288 174.785 198.255 174.241 198.221C178.606 196.577 183.166 195.68 187.898 195.93C188.166 197.554 189.372 199.226 190.031 200.566C191.184 202.906 192.082 205.274 192.672 207.818C193.905 213.135 193.958 218.654 193.61 224.077C193.29 228.599 192.603 233.601 189.054 236.803C186.367 239.228 182.576 240.126 179.059 240.408C174.971 240.736 170.82 240.386 166.766 239.838C161.081 239.07 155.369 238.054 149.795 236.692C139 234.055 128.653 229.859 119.106 224.17C114.451 221.396 110.008 218.275 105.289 215.606C100.48 212.886 95.3628 210.776 89.9896 209.466C83.9766 208 77.6906 207.374 71.5104 207.736C70.4379 207.799 68.8885 208.187 67.8454 207.779ZM60.8771 205.057C61.509 207.106 61.9925 209.446 63.3412 211.168C64.677 212.874 66.6924 213.477 68.7802 213.628C71.2976 213.811 73.8446 213.694 76.3675 213.788C81.5419 213.98 86.6454 214.82 91.592 216.36C96.2017 217.796 100.481 220.036 104.603 222.521C108.414 224.819 112.114 227.286 115.927 229.577C114.913 230.042 113.909 230.545 112.9 230.983C110.785 231.901 108.656 232.787 106.517 233.651C102.3 235.355 98.0654 237.017 93.7873 238.561C85.1609 241.674 76.3926 244.394 67.5188 246.711C63.2865 247.816 58.9941 249.107 54.5972 249.291C50.6983 249.454 47.0868 248.352 43.9423 246.035C37.4203 241.23 32.2313 234.294 28.0367 227.452C25.5446 223.388 23.3698 219.117 21.571 214.701C20.6612 212.468 19.8361 210.2 19.0934 207.906C18.745 206.829 18.4147 205.746 18.1019 204.658C17.9643 204.18 17.8325 203.7 17.7019 203.219C24.3711 201.185 31.1195 199.349 38.0263 198.33C41.7139 197.786 45.4507 197.51 49.1787 197.55C51.0291 197.57 52.8786 197.67 54.7192 197.861C55.71 197.963 56.6968 198.096 57.6793 198.26C58.0853 198.327 58.5026 198.427 58.9212 198.5C59.5605 200.69 60.2052 202.877 60.8771 205.057ZM198.738 196.352C199.098 195.625 199.249 194.91 199.378 194.119C199.476 193.516 199.737 192.666 199.509 191.883C199.253 191.005 198.556 190.22 198.056 189.472C197.504 188.645 196.953 187.817 196.402 186.989C195.3 185.333 194.2 183.676 193.102 182.017C188.619 175.243 184.167 168.45 179.707 161.662C175.749 155.637 171.859 149.558 167.78 143.615C164.293 138.532 160.492 133.534 155.719 129.581C149.684 124.583 142.498 122.229 134.992 120.392C134.172 119.542 133.077 119.077 131.906 119.171C130.253 117.297 128.938 115.988 128.342 113.604C128.057 112.462 128.146 109.254 127.034 108.579C125.712 107.776 125.022 108.838 124.658 110.036C123.438 114.041 124.838 119.426 128.058 123.438C126.701 128.125 124.902 134.786 121.693 138.541C118.256 142.561 113.503 143.813 108.375 143.895C98.596 144.052 88.8269 140.42 81.3677 134.125C79.1005 132.212 76.9949 130.075 75.0898 127.802C73.6609 126.097 71.9706 123.465 70.8528 121.477C70.8528 120.702 69.9371 119.891 79.2591 119.265C88.5811 118.639 89.2881 105.882 89.4954 104.146C89.6638 102.736 90.3801 100.548 89.3861 99.3982C88.9643 98.91 88.0986 98.8314 87.5637 99.163C86.5552 99.789 86.2238 101.39 85.9068 102.476C85.4626 103.999 84.0107 113.449 81.2595 114.544C79.9714 115.056 78.4942 115.065 77.1317 115.16C75.4492 115.277 73.7631 115.363 72.0874 115.559C71.4693 115.631 70.7951 115.831 70.1853 115.837C69.7885 115.841 69.3793 115.648 68.9958 115.513C67.7015 115.056 66.4082 115.398 65.0748 115.578C53.2858 117.161 41.1472 120.775 31.0917 127.277C22.2286 133.008 15.9845 141.251 11.8643 150.888C7.66036 160.722 5.25073 171.357 3.23135 181.827C2.55488 185.335 1.96413 188.859 1.45659 192.395C0.966092 195.812 0.352532 199.305 0.205659 202.757C0.147511 204.122 0.474091 205.391 0.976619 206.638C1.54256 208.042 2.88021 208.596 4.16322 209.252C6.97963 210.691 9.95068 211.808 13.0117 212.599C14.8817 215.999 16.4555 219.531 17.7202 223.198C17.251 224.127 17.2412 225.514 17.151 226.417C16.9272 228.666 16.8314 230.926 16.8114 233.185C16.771 237.713 17.0435 242.236 17.257 246.757C17.4736 251.341 18.1934 269.432 18.3107 271.641C18.4019 273.357 18.2791 275.757 19.1837 277.281C20.5737 279.622 24.0044 279.544 25.5934 277.645C65.0748 286.127 139.289 283.572 169.178 279.305C173.067 278.749 171.846 279.365 172.835 278.383C173.577 277.646 174.209 276.383 174.414 275.368C174.688 274.014 174.246 272.788 173.47 271.692C172.654 270.539 172.505 268.673 172.202 267.303C171.486 264.064 171.129 249.839 170.795 248.262C170.69 247.771 170.589 247.252 170.467 246.732C175.95 247.251 181.663 247.251 186.879 245.419C189.837 244.38 192.595 242.747 194.719 240.416C197.29 237.594 198.72 234.041 199.456 230.333C200.405 225.551 200.606 220.597 200.42 215.736C200.161 209.991 199.207 204.165 196.841 198.89C197.62 198.167 198.272 197.295 198.738 196.352Z" fill="black"/>
<path fill-rule="evenodd" clip-rule="evenodd" d="M106.602 3.33984C120.803 3.33984 135.492 14.3644 140.698 21.3994C146.717 29.5341 151.465 68.5845 149.238 81.8352C147.01 95.0858 135.946 109.528 116.738 109.528C97.5299 109.528 85.8406 107.159 85.3718 103.717C85.0594 101.423 80.8364 93.8896 72.7029 81.1181C64.3842 78.7748 60.2086 74.8044 60.1758 69.207C60.1436 63.6097 62.3725 59.7927 66.8627 57.7562C65.2617 35.6665 66.4772 21.7461 70.5093 15.9951C76.5573 7.36841 92.4008 3.33984 106.602 3.33984Z" fill="#AE5D29"/>
<path fill-rule="evenodd" clip-rule="evenodd" d="M99.3716 0.0186274L99.6248 0.0197406C115.338 0.121414 131.319 7.36279 140.667 20.0125L140.948 20.3975C140.963 20.4175 141.243 20.8345 141.309 20.9534C141.697 21.6498 142.153 22.3014 142.503 23.0096C142.799 23.6108 142.995 24.2824 143.213 24.9227L143.278 25.1138C143.836 26.7119 144.306 28.325 144.722 29.9657C145.527 33.1595 146.155 36.4033 146.765 39.6396C148.946 51.2283 150.372 62.9826 151.091 74.7521L151.233 77.1187C151.378 79.5732 151.487 82.0382 151.212 84.4847C150.894 87.3328 150.077 90.0055 148.839 92.5855C147.698 94.9652 146.227 97.1695 144.544 99.196C143.644 100.281 142.688 101.335 141.513 102.129C140.577 102.76 139.484 103.176 138.431 103.577C136.718 105.29 134.52 106.585 132.371 107.62C128.83 109.321 124.991 110.26 121.107 110.731C117.135 111.209 113.123 111.094 109.184 110.41C105.42 109.759 101.385 108.093 99.067 104.92C98.8669 104.647 99.2394 104.389 99.4845 104.501C106.213 107.62 113.773 108.434 121.107 107.45C124.528 106.991 127.894 106.044 131.018 104.574C133.655 103.334 135.878 101.531 138.244 99.8973C138.704 99.2836 139.169 98.6799 139.7 98.1189L140.527 97.2497C141.146 96.5968 141.753 95.9352 142.305 95.2207C144.011 93.0189 145.424 90.5215 146.358 87.8939C148.172 82.779 147.681 77.2269 147.361 71.8965L147.333 71.4267C147.003 65.7256 146.465 60.0445 145.72 54.3834C144.974 48.7149 144.026 43.0688 142.906 37.4629C142.353 34.7 141.733 31.9546 141.185 29.1917C140.902 27.7664 140.705 26.3211 140.49 24.8808C140.36 24.0041 140.362 23.1599 140.36 22.3033C140.335 22.3433 140.305 22.3809 140.275 22.4185C140.365 22.6314 140.302 22.9044 140.082 23.0297C139.249 23.5056 138.289 23.3453 137.351 23.3478C136.355 23.3528 135.36 23.3553 134.365 23.3578C133.328 23.3616 132.291 23.3616 131.254 23.36L128.144 23.3528L115.704 23.3152C107.557 23.2908 99.2716 23.6152 91.1506 22.846L90.5306 22.7847C89.8925 22.7111 82.6907 21.8291 80.7432 21.6013L80.6841 21.5944C77.1248 21.1836 73.616 20.5749 70.157 19.6631C71.2872 20.1165 72.3755 20.7277 73.4957 21.1911C74.9416 21.7873 76.4245 22.3083 77.9079 22.8067C80.9517 23.8312 84.0003 24.8257 87.0316 25.8828C87.9007 26.1853 89.8756 33.6418 90.3734 34.8215L90.388 34.8553C90.6406 35.4239 90.9885 36.0476 90.7957 36.6939C90.3708 38.1217 88.117 39.1787 86.9993 39.9853L85.8499 40.816L84.3469 41.9051C83.7304 42.3473 83.1612 42.6857 82.3545 42.4326C82.352 42.4301 82.3498 42.4301 82.3473 42.4301C83.0376 45.6388 83.3727 56.0166 83.4753 57.8377C83.5651 59.4233 84.0303 61.4547 83.2899 62.9001C83.1149 63.2432 82.6599 63.5138 82.272 63.4862C80.5813 63.3585 78.8908 63.2332 77.2001 63.108C76.7471 63.0729 76.3344 62.8149 76.2094 62.354L76.2044 62.3289C76.1496 62.344 76.0871 62.334 76.0346 62.2789C75.942 62.1862 75.847 62.096 75.7492 62.0083C73.5235 60.0194 70.042 59.5285 67.2955 60.563C65.8551 61.1041 64.2169 62.0158 63.2012 63.1981C62.0733 64.5107 61.8309 66.3443 61.8282 68.0201C61.8232 71.2514 62.9889 74.5228 65.3672 76.7646C67.5526 78.8226 70.3725 79.4215 73.2095 80.0105L73.5135 80.0736C74.161 80.2089 74.3663 81.1758 73.8786 81.5816C75.1767 82.854 76.2972 84.372 77.3901 85.7722C78.8414 87.6298 80.2294 89.5611 81.5796 91.4965L82.2314 92.4328C84.5542 95.7528 87.9163 100.326 86.4541 104.476C86.259 105.035 85.4436 105.235 85.1257 104.649C84.0828 102.72 83.5 100.596 82.5096 98.6449C81.5369 96.7311 80.3264 94.9577 79.1256 93.1842L78.4331 92.1565C77.28 90.44 76.1377 88.705 75.0789 86.937L74.3416 85.7128C73.6489 84.5568 72.9632 83.3623 72.4528 82.1201C69.0388 82.9442 65.3272 81.1106 62.9286 78.6684C59.9126 75.5924 58.4945 71.061 58.8844 66.8002C59.0897 64.5708 59.7475 62.4141 61.378 60.811C61.543 60.6507 61.7159 60.4979 61.8934 60.3451C61.8309 60.3125 61.7784 60.2624 61.7531 60.2023C60.6601 57.6022 60.4275 54.5037 60.335 51.7032C60.2377 48.8075 60.3002 45.9044 60.5201 43.0137C60.923 37.7134 61.8782 32.4406 63.3941 27.3456C65.6373 19.8159 69.4917 12.444 75.6494 7.39164C82.2157 2.00294 91.0129 0.00465674 99.3716 0.0186274ZM66.6856 65.8784C67.6129 65.4569 69.0596 66.2076 69.8851 66.686L69.9392 66.7175C72.3778 68.1378 74.1138 70.5575 74.9164 73.2378C75.4316 74.9661 72.5379 75.655 72.2928 73.9617C72.0929 72.5815 71.6325 71.2889 70.8749 70.1342C70.6946 70.1943 70.5195 70.272 70.3622 70.3722C69.7594 70.7629 69.409 71.4342 68.5714 71.334C67.9509 71.2614 67.3156 70.8306 67.3581 70.1192C67.4259 68.9444 68.3711 68.476 69.3842 68.4158C69.2396 68.2862 69.0937 68.158 68.9444 68.0343L68.7808 67.9028C68.5954 67.7687 66.6135 66.3996 66.5565 66.7517L66.5553 66.7726C66.5578 66.9129 66.3702 66.9931 66.2752 66.8879C65.8925 66.4771 66.2479 66.0788 66.6856 65.8784Z" fill="black"/>
<path fill-rule="evenodd" clip-rule="evenodd" d="M122.657 91.4285C120.972 90.7416 119.469 89.5957 118.37 88.132C117.988 87.6231 117.889 87.0858 117.969 86.5943C118.059 86.0417 118.386 85.5408 118.832 85.2049C119.28 84.8679 119.839 84.7017 120.381 84.7864C120.851 84.86 121.319 85.1173 121.689 85.651L121.767 85.7578C122.42 86.6412 123.272 87.3661 124.242 87.8333C125.177 88.2837 126.223 88.4938 127.305 88.3716C129.366 88.1389 130.787 87.0249 132.297 85.512C132.484 85.321 132.671 85.124 132.86 84.9238C132.979 84.7424 133.143 84.6258 133.327 84.5646C133.53 84.4966 133.76 84.5005 133.971 84.574C134.174 84.6448 134.355 84.7791 134.477 84.9579C134.593 85.1277 134.659 85.3376 134.637 85.579C134.499 87.1468 133.679 88.546 132.514 89.6447C131.22 90.865 129.505 91.7092 127.89 92.0052C126.111 92.3314 124.298 92.0977 122.657 91.4285ZM128.729 67.2414C130.622 68.3912 133.506 71.0722 131.47 73.9226C129.073 76.4358 125.622 73.5542 123.922 72.2509C122.345 71.2409 120.574 73.8386 122.037 75.018C134.324 84.1096 139.31 67.542 129.687 65.8896C128.627 65.7075 128.233 66.8857 128.729 67.2414ZM106.711 56.6656C106.92 54.0714 110.873 53.4823 111.266 56.0494C111.618 58.3488 111.204 60.4612 110.167 62.5315C109.177 64.5094 106.688 63.5866 106.5 61.7856C106.248 59.3714 106.581 58.2793 106.711 56.6656ZM136.803 55.5171C137.354 54.7957 138.15 54.3032 139.103 54.5815C142.082 55.4515 141.204 59.678 140.158 61.7352C139.59 62.8524 137.752 63.1357 136.922 62.1521C135.568 60.5479 134.92 57.3444 136.641 55.7643C136.687 55.6827 136.739 55.6003 136.803 55.5171ZM110.125 45.3144L110.596 45.2321C112.052 44.9805 113.862 44.7387 114.891 45.9083C115.437 46.5285 115.625 47.6813 114.891 48.2749C113.6 49.3195 112.172 48.9147 110.625 49.0031C109.35 49.0763 108.124 49.2872 106.896 49.6381C104.201 50.4079 102.005 51.8131 99.7034 53.3561C99.4014 53.5585 99.0931 53.1725 99.2372 52.8902C100.566 50.2894 103.141 48.153 105.72 46.8507C107.096 46.1556 108.603 45.5789 110.125 45.3144ZM134.088 44.1494L134.448 44.223C138.367 45.0418 143.459 46.6773 145.315 50.5247C145.386 51.0687 145.311 51.1853 145.25 51.2615L145.23 51.2868C145.18 51.3519 145.14 51.4416 144.904 51.5156C144.839 51.5 144.772 51.4835 144.706 51.466C143.855 51.2432 143.182 50.9362 142.53 50.6177L141.824 50.2698C141.004 49.8681 140.177 49.4811 139.301 49.1953C137.43 48.5856 135.506 48.1562 133.553 47.9268C133.13 47.8772 132.722 47.7343 132.4 47.4896C132.095 47.2572 131.862 46.9356 131.755 46.508C131.617 45.9547 131.657 45.5357 131.954 45.0365C132.177 44.6616 132.497 44.4018 132.864 44.2526C133.238 44.1005 133.664 44.0646 134.088 44.1494Z" fill="black"/>
</svg>
