<svg width="193" height="286" viewBox="0 0 193 286" fill="none" xmlns="http://www.w3.org/2000/svg">
<path fill-rule="evenodd" clip-rule="evenodd" d="M9.50479 270.325C9.16919 270.336 9.27497 270.238 9.39826 270.214C9.43377 270.251 9.46928 270.288 9.50479 270.325ZM19.4137 277.685C28.7904 278.796 38.1788 277.78 47.5095 276.761C66.4124 275.361 85.1825 279.44 104.123 278.196C127.793 277.199 151.527 275.328 175.118 278.482C181.643 278.632 192.051 280.391 189.685 270.298C186.576 244.349 182.42 218.531 177.969 192.782C174.196 178.347 173.923 153.379 163.592 143.34C162.081 141.962 156.663 137.505 155.231 136.906C148.11 134.257 135.272 132.19 129.976 126.574C125.686 119.321 127.682 109.424 121.011 103.585C115.164 98.8152 102.404 99.8234 96.1532 103.405C91.2215 106.6 90.449 112.806 87.3761 117.395C86.6181 118.495 84.8176 121.146 83.8009 122.001C81.3261 124.381 72.6338 126.883 70.1236 127.342C55.9582 130.243 48.895 132.035 37.7537 141.44C8.64274 171.135 12.7693 223.657 4.71419 262.488C4.38451 266.757 1.78727 272.55 6.42103 275.298C10.412 277.209 15.1044 277.001 19.4137 277.685Z" fill="#AE5D29"/>
<path fill-rule="evenodd" clip-rule="evenodd" d="M126.729 116.702C126.763 116.601 126.926 116.584 126.951 116.702C127.348 118.518 128.092 120.509 128.847 122.211C129.614 123.936 130.662 125.52 131.986 126.866C134.76 129.684 138.328 130.97 142.241 130.973L142.335 130.975C142.353 130.844 142.373 130.712 142.392 130.581L142.419 130.384C142.776 127.684 145.984 127.762 146.611 129.8C146.929 129.901 147.247 130.002 147.562 130.108L147.625 130.131C148.157 130.333 149.957 131.228 150.287 130.99C151.014 130.467 151.845 131.066 152.122 131.734C152.573 132.827 152.648 134.178 152.795 135.365L152.815 135.518L152.837 135.703C163.132 138.377 168.909 148.668 171.858 158.149C173.456 163.288 174.501 168.591 175.552 173.863C176.676 179.503 177.712 185.157 178.809 190.799C180.972 201.918 183.018 213.063 184.796 224.248L185.312 227.497C186.94 237.783 188.527 248.062 189.861 258.395C190.581 263.965 191.257 269.541 191.908 275.122C192.024 276.117 192.14 277.112 192.255 278.108L192.426 279.603C192.578 280.944 192.837 282.269 192.174 283.523C190.736 286.243 186.382 286.223 186.135 282.74C186.086 282.047 186.32 281.518 186.707 281.148L186.702 281.09C186.698 281.055 186.694 281.029 186.693 281.017C186.564 280.325 186.53 279.593 186.451 278.893C186.278 277.401 186.111 275.907 185.94 274.412C185.612 271.564 185.282 268.716 184.939 265.87C184.247 260.097 183.514 254.332 182.738 248.571L181.968 242.876C179.393 223.89 176.71 204.909 173.18 186.074C172.218 180.947 171.23 175.827 170.216 170.709C169.254 165.863 168.174 161.039 166.561 156.36C163.928 148.717 159.324 141.56 152.933 136.543C153.032 137.502 153.103 138.465 153.194 139.424C153.429 141.885 153.678 144.344 153.929 146.803C154.844 155.712 156.084 164.606 158.2 173.318C159.248 177.635 160.525 181.895 162.081 186.057C162.848 188.106 163.684 190.129 164.601 192.115C165.509 194.079 167.099 196.178 167.195 198.366C167.24 199.379 166.179 200.278 165.198 200.169C165.657 204.2 165.915 208.273 166.189 212.294C166.589 218.118 166.907 223.953 167.373 229.772C168.206 240.197 169.252 250.606 170.347 261.006C170.564 263.068 170.799 265.128 171.033 267.188L171.228 268.918C171.36 270.039 171.559 271.382 170.963 272.377C171.496 273.66 171.861 274.979 172.073 276.353C172.341 278.063 171.363 279.98 169.365 279.906C169.138 279.899 168.911 279.879 168.685 279.855C166.833 280.283 164.986 280.66 163.062 280.673C160.607 280.69 158.146 280.641 155.69 280.623C150.938 280.591 146.186 280.559 141.435 280.52C124.233 280.382 107.024 280.389 89.8252 280.113L82.9437 280.004C76.6352 279.903 70.3258 279.786 64.0204 279.556C59.6781 279.399 55.336 279.239 50.9959 279.064L50.1123 279.03C46.283 278.891 42.449 278.819 38.6619 278.233C38.567 278.217 38.5259 278.119 38.5406 278.032L38.546 278.009L38.3808 277.972C38.2846 278.386 36.2873 276.647 36.3021 275.491C35.4736 274.414 35.8607 272.695 35.9495 271.448C36.0358 270.233 36.1443 269.016 36.2404 267.801C36.4451 265.207 36.6202 262.61 36.8298 260.016C37.6756 249.554 38.4054 239.066 38.8789 228.582C39.1181 223.297 39.3104 218.01 39.5126 212.725C39.6036 210.319 39.7304 207.911 39.9666 205.515L40.0279 204.917C40.2869 202.488 40.2622 199.876 41.1573 197.587C41.1696 197.555 41.2115 197.555 41.2239 197.587C42.1288 199.815 42.2151 202.404 42.3976 204.848C42.4297 204.838 42.4617 204.833 42.4962 204.826C43.7464 204.232 45.0089 203.698 46.1925 202.963C46.3528 202.865 46.5081 202.761 46.6659 202.66C48.5276 196.969 50.6852 191.371 52.6702 185.717C59.0838 167.433 62.6247 147.961 63.4088 128.6C58.5167 131.751 53.1886 134.203 48.0092 136.836L47.524 137.083C42.4223 139.69 37.5375 142.649 33.9053 147.17C30.7392 151.107 28.6704 155.904 26.7347 160.529C24.656 165.498 22.782 170.557 21.0683 175.662C17.5915 186.02 14.8988 196.631 12.7979 207.351C10.7241 217.931 9.24219 228.589 8.25093 239.322C7.74544 244.797 7.28433 250.276 6.89719 255.763C6.69993 258.54 6.52486 261.319 6.36211 264.101C6.28321 265.451 6.22403 266.804 6.13526 268.154C6.08101 268.932 6.07115 269.735 5.8147 270.475C5.60017 271.09 5.22044 271.606 4.86536 272.15C4.21685 273.143 2.57955 273.323 1.97049 272.15L1.70676 271.642C1.35768 270.966 1.0389 270.285 0.991557 269.504C0.947172 268.765 1.03841 267.994 1.08033 267.252C1.1617 265.752 1.2554 264.249 1.3491 262.748C1.54637 259.592 1.76582 256.436 2.01241 253.282C2.5031 246.965 3.13435 240.665 3.92835 234.377C6.72212 212.294 10.7562 190.326 18.4545 169.369C20.3581 164.188 22.4812 159.048 24.878 154.074C27.1958 149.264 30.1277 144.723 34.3837 141.412C38.3014 138.363 42.8554 136.323 47.3803 134.342L47.9457 134.094C53.0179 131.879 58.0802 129.494 63.3768 127.849C63.2584 127.863 63.1425 127.878 63.0417 127.913C62.9255 127.95 62.8568 127.799 62.9283 127.718C63.2288 127.385 63.3546 127.043 63.7001 126.715C63.9386 126.489 64.1867 126.275 64.4419 126.068L64.8092 125.776C65.4811 125.243 66.1877 124.698 67.0336 124.513C68.2298 124.251 68.8166 125.338 68.481 126.188C68.6536 125.964 69.1172 126.03 69.238 126.338C73.1735 136.479 75.7577 147.214 81.0543 156.796C84.965 163.875 90.2123 170.411 97.1758 174.686C100.916 176.982 105.197 178.746 109.618 179.025C113.588 179.274 117.408 178.266 120.784 176.184C127.328 172.151 131.601 165.07 134.649 158.208C138 150.654 140.392 142.605 141.797 134.444C137.344 134.506 132.644 132.476 129.683 129.167C128.124 127.425 126.963 125.303 126.374 123.042C125.779 120.76 125.969 118.885 126.729 116.702ZM89.3689 110.777C89.9117 109.808 91.115 109.488 92.0988 109.882C93.1909 110.321 93.5191 111.38 93.3638 112.457C93.1835 113.719 92.3723 115.081 91.7413 116.182C91.0804 117.335 90.2297 118.398 89.3492 119.39C87.6924 121.263 85.9192 122.95 83.8161 124.33C81.7227 125.703 79.3552 126.73 76.9217 127.304L76.3431 127.439C74.4501 127.871 71.7568 128.367 70.1799 127.339C70.1037 127.289 70.1059 127.188 70.1799 127.139C71.0331 126.545 72.175 126.439 73.1562 126.159C74.2263 125.851 75.2992 125.501 76.3223 125.062C78.342 124.195 80.2752 123.051 81.9961 121.687C83.7249 120.317 85.3965 118.683 86.5532 116.798C87.1351 115.852 87.6308 114.859 88.1064 113.859C88.5875 112.856 88.8289 111.743 89.3689 110.777Z" fill="black"/>
<path fill-rule="evenodd" clip-rule="evenodd" d="M154.108 65.9595C154.01 60.4342 153.901 54.7983 153.081 49.3268C152.279 43.9775 150.074 39.1423 146.283 35.2579C138.232 27.0069 126.562 24.9915 115.698 23.1446L97.1255 19.9869C91.4592 19.0237 85.4142 17.4841 79.6893 18.8501C76.8683 19.5232 74.4727 21.0869 72.2832 22.937C70.1727 24.7202 67.9036 26.6352 66.4736 29.0343C65.0411 31.4369 64.5483 34.2454 64.0826 36.9627C63.5573 40.0263 63.1493 43.1138 62.8594 46.2087C62.2785 52.4093 62.1992 58.6566 62.6205 64.8701C62.8247 67.8839 63.1495 70.889 63.5642 73.8808C63.7698 75.3644 64.0023 76.8442 64.2648 78.3189C64.3422 78.7537 64.401 79.2352 64.4803 79.7216C63.8945 81.3904 63.5615 83.1186 63.5884 84.8395C63.6674 89.9085 67.9393 93.0999 72.246 94.8133C74.7431 95.8068 77.3537 96.4819 79.8073 97.5918C82.3883 98.7591 84.1452 100.652 85.9099 102.811C89.2756 106.928 93.0737 110.629 97.4106 113.716C106.606 120.262 118.252 123.359 129.409 121.008C132.085 120.445 134.786 119.569 137.192 118.25C139.733 116.857 141.643 114.839 143.247 112.452C146.226 108.022 148.362 103.034 149.978 97.9578C151.626 92.7797 152.796 87.5923 153.434 82.193C154.07 76.8112 154.204 71.3746 154.108 65.9595Z" fill="#AE5D29"/>
<path fill-rule="evenodd" clip-rule="evenodd" d="M94.7837 0.758616C102.46 -0.299054 113.054 3.13856 116.877 10.07C135.127 5.75994 158.145 5.61877 173.187 19.9667C188.883 36.9864 169.168 59.4271 156.096 64.4866C157.047 69.1201 155.563 98.8041 145.063 112.045C136.73 123.264 117.323 128.441 108.343 115.041L108.273 114.931C107.311 113.383 108.14 113.433 109.127 114.584C117.921 122.33 129.876 122.463 139.09 114.287C156.356 99.3451 154.576 62.7073 146.36 41.5118C122.964 38.9377 97.9136 46.0413 81.7541 63.6837L82.8468 70.2736C83.033 71.3963 83.2445 72.518 83.4058 73.6447C83.5091 74.3666 83.5207 75.0845 83.0214 75.6689C81.3729 77.5979 78.5945 74.6992 76.3085 73.5461C75.6336 73.451 74.9575 73.4143 74.2945 73.4611C63.3113 74.8783 65.4753 96.2214 77.5465 92.4802C78.5608 91.8473 79.4322 92.0404 79.8257 92.9589C82.7029 95.599 84.6001 100.308 89.3804 104.843C91.0671 106.544 92.602 107.967 94.4992 109.332C95.6135 110.461 98.976 111.612 97.9101 113.544C95.8944 117.939 84.0079 104.132 81.9063 100.313C75.3218 102.918 68.0247 102.033 61.2011 101.396C25.2029 99.5215 30.0086 61.509 59.5155 37.5097C65.0698 33.4136 71.1978 30.0721 77.5679 27.5007C78.4376 27.1496 78.0576 25.7192 77.1757 26.0752C72.9607 27.7769 68.8518 29.8023 64.935 32.1465L64.9291 30.745C64.9233 28.3845 64.9603 25.9269 65.3696 23.7701C65.5742 22.2757 65.9183 20.6794 66.448 19.4786C67.1029 15.7971 77.3623 3.16024 94.7837 0.758616ZM73.8141 78.3611C74.3699 77.8321 75.4075 78.4629 75.9023 78.4471C77.1677 78.6205 78.3698 79.1559 79.3074 79.8167C79.9264 80.164 80.3602 80.4902 80.7228 80.7903L80.7326 80.7876C80.7299 80.7876 80.7264 80.7903 80.7235 80.7911L80.7576 80.8142C81.2855 81.1899 83.2178 83.306 81.997 82.7369C81.906 82.6184 81.8128 82.5046 81.7188 82.393C81.7087 82.4082 81.6947 82.4233 81.678 82.4378L81.7466 82.5397C82.7842 84.1033 80.9927 82.456 80.7171 82.0185C80.7041 82.0291 80.6893 82.0362 80.6748 82.0439L81.0337 82.4815C81.0839 82.5436 81.1234 82.5932 81.1561 82.6351L81.2318 82.7083C82.4315 83.8896 82.469 84.9527 81.0752 83.2062C81.13 83.2885 81.174 83.3757 81.1802 83.4531L81.2628 83.5586C82.3571 84.9712 81.467 84.4695 80.9232 83.8662L80.8777 83.8143L80.887 83.8284C81.3929 84.6091 80.3892 84.0613 80.2118 83.6437L80.2043 83.6248C80.011 83.4668 79.8921 83.2896 79.8513 83.2448L79.8438 83.2373C78.9028 82.2715 77.5388 81.4543 76.3802 81.083C76.2122 81.051 76.0423 81.0254 75.8706 81.0071C75.1739 80.8514 74.4695 80.7448 73.7577 80.6871C73.6707 80.6768 73.5824 80.6127 73.5165 80.5299C72.4402 80.4936 72.7724 80.0516 73.219 79.9696L73.2268 79.9682L73.1382 79.9607C72.4475 79.8932 71.9758 79.645 72.6742 79.4926L72.7627 79.475C72.7518 79.458 72.7422 79.4409 72.7329 79.424C72.1348 79.3582 72.5251 78.7757 72.8571 78.9167C72.7174 78.4592 73.3559 78.6875 73.4356 78.6196C73.4963 78.552 73.5718 78.4924 73.6153 78.4892C73.8077 78.3532 73.7144 78.3655 73.8141 78.3611ZM77.4737 70.9538L77.3335 71.0359C77.2202 71.1021 77.1036 71.1462 76.9865 71.1721C77.1518 71.2426 77.3151 71.3187 77.4767 71.4C77.4741 71.3006 77.4722 71.2014 77.4722 71.1023L77.4737 70.9538Z" fill="black"/>
<path fill-rule="evenodd" clip-rule="evenodd" d="M121.349 90.3257C122.728 88.0585 125.668 93.6124 125.981 94.5674C126.257 95.4134 126.44 96.28 126.533 97.1566C127.602 97.3961 128.713 97.3965 129.808 97.1867C131.437 96.8745 132.433 95.9996 133.848 95.2485C134.826 94.7294 136.058 95.3381 136.566 96.1989C137.164 97.2122 136.783 98.2639 135.997 99.0193C134.505 100.452 131.57 100.781 129.623 100.4C128.508 100.182 127.485 99.7645 126.583 99.157C126.577 99.2704 126.573 99.3838 126.564 99.497L126.546 99.6933C126.397 101.282 125.96 103.28 124.725 104.313C122.699 106.009 120.2 102.748 122.168 101.054L122.229 101.003C123.452 100.016 123.719 97.3658 123.653 95.9063C123.61 94.9537 123.436 93.9889 123.135 93.0816L123.073 92.9009C122.983 92.6446 121.995 90.2135 121.638 90.5231L121.621 90.5405C121.473 90.7162 121.236 90.5116 121.349 90.3257ZM132.362 77.5322C134.224 78.6631 137.061 81.3002 135.058 84.1039C132.7 86.5759 129.305 83.7415 127.633 82.4596C126.081 81.4662 124.339 84.0213 125.778 85.1813C137.866 94.1239 142.772 77.8279 133.304 76.2025C132.261 76.0234 131.874 77.1824 132.362 77.5322ZM112.479 67.079C114.299 66.7565 116.163 67.2086 117.669 68.2724L117.783 68.3545C119.233 69.4146 120.857 71.2761 120.024 73.1035C119.69 73.8373 118.689 73.9523 118.054 73.6197C116.997 73.0658 116.806 71.7031 115.863 70.9489C115.089 70.3307 114.048 69.9557 113.051 70.0462C110.711 70.2585 109.271 72.5649 108.545 74.5525C108.452 74.8068 108.078 74.9056 107.932 74.6326C106.218 71.4316 109.252 67.6511 112.479 67.079ZM141.627 65.8709C145.113 65.5839 149.194 69.1949 148.276 72.8714C147.836 74.6355 145.217 74.585 144.751 72.8714C144.495 71.9285 144.521 71.0943 143.841 70.3113C143.28 69.6648 142.484 69.2893 141.627 69.3469C140.683 69.4105 139.813 69.8818 139.151 70.5443C138.554 71.1426 138.196 72.018 137.578 72.5474C137.425 72.6775 137.221 72.6859 137.071 72.5474C136.006 71.5661 136.645 69.5231 137.32 68.4986C138.287 67.0326 139.861 66.0166 141.627 65.8709ZM105.841 60.5584C108.077 58.5804 112.14 56.6702 115.156 57.6437C116.889 58.2032 117.645 60.9945 115.71 61.8792C113.469 62.9037 110.885 62.4868 108.604 63.5487C107.646 63.9949 106.745 64.5525 106.078 65.3702C105.552 66.0148 105.017 66.8628 104.258 67.2344C104.058 67.3322 103.787 67.3347 103.627 67.1533C101.961 65.2705 104.386 61.8448 105.841 60.5584ZM137.784 57.5455C139.166 57.1579 140.699 57.1658 142.103 57.4092C143.507 57.6527 144.932 58.2339 146.078 59.0817L146.211 59.181C147.461 60.1228 148.954 61.4933 148.874 63.1618C148.807 64.5551 147.341 65.4975 146.074 64.7672C145.042 64.1717 144.556 62.9787 143.682 62.1844C142.96 61.5288 142.113 61.0119 141.209 60.6497C140.205 60.2473 139.199 60.0588 138.122 60.0409C137.292 60.0271 136.457 60.2991 135.643 60.386C135.71 60.5235 135.067 60.4595 134.698 60.3375C134.425 60.2212 134.423 59.876 134.518 59.6521C134.987 58.5426 136.697 57.85 137.784 57.5455Z" fill="black"/>
</svg>
