<svg width="197" height="286" viewBox="0 0 197 286" fill="none" xmlns="http://www.w3.org/2000/svg">
<path d="M167.421 179.949H110.025V250.587H167.421V179.949Z" fill="#FDEA6B"/>
<path fill-rule="evenodd" clip-rule="evenodd" d="M93.2847 110.857C99.4717 106.149 115.004 104.032 121.608 108.565C128.13 113.118 128.841 120.48 131.88 127.253C134.748 125.901 139.483 127.837 140.314 130.496C141.345 131.75 141.392 135.274 142.103 136.96C173.042 141.882 177.739 165.989 181.463 193.357C186.39 221.128 197.573 248.839 192.718 277.416C193.351 278.331 193.85 279.22 194.311 280.276C195.416 282.155 193.992 284.815 191.764 284.712C188.878 284.459 186.022 284.114 183.123 284.006C175.088 283.727 167.045 283.76 159.007 283.862L157.911 283.876C117.399 284.38 76.8905 285.374 36.3775 285.637C34.9078 285.639 34.1882 284.322 34.3844 283.022C34.7797 280.406 35.1464 277.788 35.5291 275.171C25.9467 277.7 15.7598 278.337 6.20456 275.437C5.53611 274.756 7.76201 275.125 8.11516 275.022C-0.678693 269.016 1.94748 256.365 2.72646 247.252C7.57028 216.029 9.27787 181.482 27.9927 154.838C36.089 143.965 47.959 135.356 61.5984 133.419L61.9768 133.367C65.9649 132.836 70.4097 132.664 73.8966 130.496C77.8184 127.367 79.4896 121.586 83.6155 121.532C84.9779 121.514 86.8312 123.236 88.8256 124.406C88.9745 121.833 90.3617 119.662 90.668 117.667L90.6928 117.497C91.0125 115.171 90.5747 113.079 93.2847 110.857ZM159.776 194.181C151.081 188.145 128.621 191.178 128.106 191.516C126.974 192.26 126.487 192.326 125.875 193.292C125.27 193.373 124.666 193.456 124.062 193.541C122.852 193.937 123.749 195.425 125.147 194.894C124.306 198.52 126.782 201.098 127.767 204.683C128.087 205.846 127.779 207.939 127.767 209.129C127.863 210.645 129.54 212.436 129.261 213.957C128.267 219.365 122.874 224.64 125.147 229.884C126.654 232.846 131.184 234.357 134.196 235.364C140.437 237.758 151.311 235.274 154.937 229.884C156.871 227.01 159.111 219.759 160.265 217.51L160.52 213.942C161.151 205.073 161.711 195.525 159.776 194.181Z" fill="#EDB98A"/>
<path fill-rule="evenodd" clip-rule="evenodd" d="M83.2938 121.548L85.7821 123.074L100.233 130.213C103.035 130.997 104.436 131.937 104.436 133.032V144.184C104.436 145.676 107.065 149.058 112.323 154.33L117.181 149.49L117.072 148.857C116.61 146.126 116.379 144.3 116.379 143.377C116.379 142.385 121.131 138.619 130.636 132.078L134.795 128.166L134.351 126.818C136.915 126.939 139.696 128.517 140.314 130.496C141.345 131.75 141.392 135.274 142.103 136.96C173.042 141.882 177.739 165.989 181.463 193.357C186.39 221.128 197.573 248.839 192.718 277.417C193.351 278.331 193.85 279.221 194.311 280.277C195.416 282.156 193.992 284.816 191.764 284.713C188.878 284.46 186.022 284.114 183.123 284.006C175.088 283.727 167.045 283.76 159.007 283.862L157.911 283.877C117.399 284.381 76.8905 285.374 36.3775 285.637C34.9078 285.639 34.1882 284.322 34.3844 283.022C34.7797 280.406 35.1464 277.788 35.5291 275.171C25.9467 277.7 15.7598 278.337 6.20456 275.437C5.53611 274.756 7.76201 275.125 8.11516 275.022C-0.678693 269.016 1.94748 256.365 2.72646 247.253C7.57028 216.029 9.27787 181.482 27.9927 154.838C36.089 143.965 47.959 135.356 61.5984 133.419L61.9768 133.367L62.3579 133.318C66.2462 132.823 70.5204 132.596 73.8966 130.496C77.7149 127.45 79.3998 121.889 83.2938 121.548ZM117.921 187.002C116.504 187.002 113.601 189.202 109.213 193.602L108.826 193.78C103.521 196.243 100.007 198.379 98.2834 200.189L98.2218 200.254C96.4805 202.121 93.0321 207.086 87.8767 215.148L80.4111 219.56H77.5863L75.5752 234.14L80.4111 244.55L91.3649 240.862L109.213 236.161L119.454 225.777L125.231 223.838C124.53 225.862 124.276 227.876 125.147 229.885C126.654 232.847 131.184 234.357 134.196 235.364C140.437 237.758 151.311 235.274 154.937 229.885C156.871 227.01 159.111 219.759 160.265 217.51L160.595 212.875C161.191 204.322 161.634 195.472 159.776 194.182C151.081 188.145 128.621 191.178 128.106 191.516C126.974 192.26 126.487 192.326 125.875 193.293L125.558 193.335L127.34 190.919L126.709 190.582C122.205 188.195 119.276 187.002 117.921 187.002ZM125.147 194.894C124.342 198.365 126.577 200.877 127.634 204.23L124.933 199.064L124.933 194.961C125.003 194.944 125.075 194.922 125.147 194.894Z" fill="#9DDADB"/>
<path fill-rule="evenodd" clip-rule="evenodd" d="M82.1006 121.009C82.7009 120.478 83.5892 121.145 83.2077 121.863C82.3505 123.476 81.4713 125.004 80.3208 126.43C79.6233 127.294 78.8762 128.112 78.119 128.92C80.0622 130.6 81.7287 132.686 83.3024 134.641C85.3148 137.141 87.2174 139.747 89.4764 142.035C91.7042 144.291 94.1676 145.868 97.1461 146.92L97.7477 147.129C100.74 148.179 103.938 149.597 105.624 152.428C105.957 152.986 105.287 153.676 104.724 153.328C101.794 151.514 98.3502 151.149 95.1601 149.951C92.0785 148.794 89.3922 147.012 87.0186 144.738C84.6491 142.468 82.6595 139.886 80.5843 137.358C78.5321 134.858 76.3224 132.723 73.895 130.608C70.1491 133.127 65.8733 134.223 61.5254 135.299L61.0509 135.417C56.6978 136.494 52.368 137.745 48.2842 139.62C44.6835 141.274 41.142 143.248 38.209 145.939C35.0956 148.795 32.6725 152.442 30.4546 156.009C25.4935 163.988 22.0056 172.73 18.935 181.579C15.7414 190.782 13.0701 200.17 10.9137 209.669C9.81686 214.501 8.9261 219.367 8.19399 224.268C7.84159 226.628 7.52854 228.993 7.2536 231.363C6.9601 233.894 6.89268 236.499 6.1157 238.932C5.78261 239.975 4.99611 240.408 4.20885 240.371L4.04895 242.37C3.83692 245.035 3.63926 247.7 3.57249 250.381C3.46173 254.84 3.51195 259.285 3.83282 263.734L3.87826 264.34C4.13041 267.587 4.69384 271.235 7.1368 273.613C9.66673 276.075 13.5574 276.849 16.9673 276.894C24.9092 276.997 32.5542 273.247 39.582 269.957C46.8199 266.568 53.8601 262.807 60.7316 258.728C64.2309 256.651 67.6925 254.505 71.1099 252.295C72.7869 251.211 74.4522 250.108 76.1049 248.988C77.0515 248.346 77.9486 247.643 78.9123 247.073C78.4401 246.634 78.2293 245.943 78.6248 245.34C75.839 242.923 74.6795 238.61 74.5439 235.121C74.4344 232.304 74.8492 229.495 75.1765 226.705C75.3417 225.298 75.5457 223.894 75.7575 222.493C75.8412 221.94 75.9051 221.348 76.0029 220.764C68.4805 224.895 60.7473 228.574 52.8094 231.843C48.7406 233.518 44.6196 235.025 40.4417 236.405L39.5949 236.684C35.6364 237.979 31.5831 239.202 27.4908 239.942C27.272 239.982 27.0943 239.659 27.3279 239.556C31.316 237.797 35.4423 236.314 39.4903 234.694L40.1555 234.424C40.079 234.419 39.9998 234.409 39.9171 234.389C37.5431 233.816 35.1876 232.934 32.8592 232.191C30.6982 231.501 28.2703 231.068 26.2504 230.027C26.095 229.947 26.182 229.731 26.3334 229.721C28.6036 229.564 31.0681 230.225 33.294 230.614L34.1302 230.76C35.5311 231.007 36.963 231.272 38.3569 231.619C38.4073 231.152 38.6682 230.683 39.0394 230.408C43.124 227.385 42.7092 221.279 43.1461 216.777L43.47 213.434C44.0398 207.584 44.6426 201.734 45.5585 195.928C45.6073 195.618 46.0873 195.707 46.0893 195.999C46.1366 203.197 45.5929 210.362 45.3204 217.548L45.2782 218.727C45.1275 223.162 45.0095 227.766 42.215 231.178C42.6057 230.95 43.1341 230.95 43.4506 231.326C43.8396 231.789 44.0642 232.308 44.0572 232.818C46.5823 231.76 49.0965 230.674 51.5983 229.567C59.642 226.005 67.5171 222.02 75.1838 217.707C76.0089 217.243 76.7931 217.608 77.2012 218.22L77.2601 218.211C77.2699 218.21 77.2799 218.209 77.2901 218.209L77.3485 218.206C77.3508 218.206 77.3531 218.207 77.3551 218.207C78.4343 217.614 79.9045 218.036 80.8306 218.9C80.858 218.927 80.8813 218.955 80.9056 218.982C82.0781 218.456 83.1728 217.746 84.1664 216.846C86.1995 215.004 87.9217 212.727 89.423 210.444C92.1878 206.238 94.5362 201.561 98.271 198.099C101.305 195.286 105.068 193.535 109.014 192.436C108.998 192.321 109.042 192.198 109.122 192.116C109.324 191.908 109.469 191.837 109.731 191.963C109.752 191.973 109.764 191.987 109.773 192.002L110.158 191.344C110.368 190.987 110.584 190.628 110.659 190.534C111.107 189.97 111.568 189.41 112.036 188.862C112.83 187.935 113.735 187.019 114.782 186.376C117.075 184.968 119.486 185.765 121.844 186.534C123.269 187 124.688 187.48 126.111 187.952L126.257 188C127.318 188.34 128.558 188.638 129.033 189.761C129.22 190.205 129.249 190.667 129.162 191.114C139.234 188.554 150.42 189.73 160.248 192.735C160.625 192.85 161.002 193.16 161.082 193.568C162.208 199.339 162.709 205.258 162.2 211.128C161.76 216.195 160.637 221.16 158.52 225.799L158.4 226.061C156.41 230.36 153.257 235.66 148.442 237.007C145.534 237.821 142.318 237.341 139.352 237.192C136.47 237.047 133.524 237.026 130.67 236.573C128.127 236.17 125.899 235.031 124.328 232.965C122.973 231.182 122.259 229.028 121.674 226.885C121.407 226.97 121.141 227.061 120.879 227.163C119.774 227.594 118.839 228.29 117.992 229.109C116.206 230.838 114.82 232.939 112.95 234.589C111.258 236.083 109.329 237.245 107.261 238.138C102.975 239.989 98.3765 240.728 93.8426 241.709L93.5264 241.778C90.1132 242.527 86.6294 243.446 83.6167 245.222C83.5578 245.744 83.3195 246.236 82.9375 246.558C83.4688 247.057 83.6939 247.847 83.227 248.588C81.9227 250.657 79.6761 251.834 77.6592 253.157L77.528 253.243C75.544 254.558 73.5426 255.846 71.525 257.108C67.4233 259.675 63.2359 262.1 58.9894 264.419C52.1593 268.148 45.1825 271.665 38.0795 274.856C38.5058 276.952 38.35 279.114 38.6705 281.224L38.7196 281.525C38.8565 282.308 38.6716 282.963 38.1318 283.475L38.0747 283.527L38.0757 283.52L38.0251 283.567L38.0081 283.581L38.0138 283.577C37.9516 283.633 37.8874 283.686 37.8219 283.732L37.7386 283.785C37.2187 284.101 36.5494 284.098 36.0171 283.819L35.9563 283.785L35.8541 283.727C35.1508 283.323 34.6658 282.321 34.9575 281.525C35.6746 279.569 35.9455 277.482 36.6077 275.513L36.0824 275.748L35.39 276.049C27.9015 279.286 19.5832 282.011 11.4239 279.805C7.81878 278.83 4.44922 276.767 2.64538 273.405C0.870368 270.097 0.61948 266.256 0.525241 262.577C0.408945 258.035 0.652564 253.424 1.25184 248.921C1.65411 245.899 2.1406 242.819 2.891 239.828C2.50502 239.488 2.2213 239 2.14636 238.395C1.79221 235.538 2.41204 232.568 2.7915 229.726C3.16219 226.951 3.57174 224.182 4.03491 221.421C4.97004 215.845 6.05655 210.281 7.32152 204.771C9.57274 194.964 12.5455 185.332 16.1246 175.929L16.4381 175.11C19.7454 166.516 23.5747 158.105 28.9069 150.556C31.4576 146.944 34.154 143.669 37.7581 141.066C41.1347 138.627 44.9434 136.871 48.8739 135.529C52.8087 134.186 56.8529 133.286 60.9687 132.726C65.1485 132.158 69.5605 131.809 73.4597 130.095C72.9664 129.212 73.3897 128.019 74.2198 127.471C77.0134 125.626 79.5968 123.226 82.1006 121.009ZM171.529 201.221C171.646 201.043 171.924 201.156 171.873 201.366C170.514 206.929 169.239 212.503 168.406 218.173C166.902 228.405 167.179 238.771 167.302 249.079L167.308 249.612C167.371 255.165 167.459 260.717 167.643 266.268C167.736 269.073 167.919 271.905 167.819 274.712C167.765 276.234 167.359 277.674 167.215 279.178C167.089 280.494 167.201 281.829 167.264 283.146C167.306 284.022 166.013 283.985 165.925 283.146L165.812 282.062C165.666 280.69 165.486 279.326 165.036 278.012C164.495 276.432 164.235 274.881 164.047 273.222C163.76 270.68 163.632 268.113 163.521 265.553L163.445 263.783C162.981 253.086 162.998 242.339 163.748 231.653L163.803 230.89C164.546 220.789 165.835 209.875 171.529 201.221ZM142.567 137.56C142.212 137.414 142.336 136.878 142.729 136.971L143.444 137.142C148.681 138.395 153.823 139.754 158.711 142.086C163.602 144.42 167.743 147.905 171.034 152.19C177.43 160.519 180.088 170.641 182.186 180.754C184.518 191.991 186.641 203.269 188.994 214.503L189.43 216.596C191.607 227.058 193.662 237.527 195.176 248.114L195.285 248.882C196.812 259.768 197.73 271.032 196.064 281.947C195.734 284.106 192.139 283.569 192.279 281.435C192.685 275.267 192.976 269.132 192.695 262.95C192.414 256.768 191.834 250.612 190.969 244.483C190.241 239.325 189.156 234.232 188.196 229.115L188.045 228.307C187.241 223.955 186.412 219.608 185.585 215.26L184.349 208.75C182.497 199.003 180.608 189.247 178.474 179.561L178.347 178.991C176.259 169.672 173.18 159.911 166.915 152.511C160.558 145.001 151.457 141.219 142.567 137.56ZM119.467 236.402C119.619 236.062 120.154 236.099 120.319 236.402C120.963 237.59 121.035 239.107 121.156 240.448L121.169 240.586C121.324 242.222 121.461 243.864 121.545 245.506C121.704 248.622 121.78 251.734 121.771 254.854C121.761 258.051 121.696 261.244 121.524 264.437L121.477 265.292C121.32 268.066 121.056 271.161 119.737 273.586C119.257 274.468 117.953 274.209 117.675 273.317C116.765 270.398 117.233 266.936 117.466 263.946L117.647 261.612C117.827 259.279 117.998 256.944 118.133 254.608C118.319 251.411 118.473 248.212 118.62 245.014C118.668 243.975 118.72 242.936 118.775 241.898L118.859 240.34C118.931 239.037 118.925 237.607 119.467 236.402ZM17.1696 240.54L17.5723 240.152C18.8087 238.942 20.3711 237.08 22.1989 237.195C22.9278 237.242 23.3922 237.846 23.2411 238.563C22.9182 240.095 21.3545 240.89 20.2289 241.825C18.9958 242.85 17.8336 243.944 16.6736 245.05C15.6446 246.03 14.6549 247.038 13.689 248.077L13.3279 248.469C12.9816 248.846 10.5161 251.075 10.7827 251.653L10.7972 251.679C10.8714 251.79 10.7478 251.942 10.6247 251.903C9.56003 251.567 9.62645 250.655 10.029 249.731C10.8024 247.956 12.1569 246.313 13.3396 244.797C14.5192 243.285 15.7959 241.876 17.1696 240.54ZM123.325 196.015C122.501 194.07 119.468 194.111 117.746 194.228C113.41 194.52 108.719 195.617 104.861 197.642C100.861 199.742 98.1669 203.107 95.7561 206.827L95.6433 207.002C93.2936 210.652 91.0306 214.973 87.3512 217.483C85.4772 218.762 83.2889 219.929 81.0151 220.435C80.859 220.709 80.6061 220.927 80.2745 221.006L80.1203 221.041C79.4727 221.184 78.4667 221.342 77.5977 221.247C77.6034 221.672 77.5989 222.094 77.6097 222.496C77.6403 223.65 77.6533 224.808 77.6533 225.963C77.6538 228.381 77.5237 230.804 77.6247 233.222C77.7142 235.361 78.0165 237.596 79.0441 239.508C79.7978 240.911 80.7925 241.839 81.9934 242.725C84.9474 240.926 88.2876 239.83 91.6777 239.005C95.7776 238.008 99.9756 237.342 103.982 235.99C105.911 235.339 107.765 234.487 109.444 233.33C111.227 232.101 112.589 230.439 113.99 228.813L114.209 228.561C115.639 226.922 117.199 225.354 119.22 224.465C120.96 223.7 123.253 223.563 124.775 222.379C125.571 221.759 125.637 220.86 125.721 219.939C124.747 220.079 123.715 219.855 122.744 219.742L122.241 219.683C121.322 219.574 120.425 219.454 119.521 219.22C119.353 219.177 119.353 218.924 119.521 218.88C120.589 218.605 121.648 218.487 122.744 218.359L123.001 218.327C123.992 218.197 125.034 218.001 126.006 218.219C126.18 217.556 126.432 216.922 126.786 216.288C127.282 215.397 128.22 214.387 128.347 213.346C128.385 213.035 128.313 212.669 128.166 212.394L128.115 212.3C128.054 212.19 127.981 212.078 127.874 212.009C127.862 212.023 127.837 212.039 127.783 212.056C127.035 212.292 126.382 211.926 126.036 211.361C124.565 211.544 122.96 211.482 121.581 211.543L120.187 211.611C118.697 211.679 117.14 211.709 115.74 211.408C115.544 211.366 115.485 211.041 115.681 210.957C117.402 210.222 119.49 209.987 121.332 209.704C122.361 209.546 123.398 209.426 124.43 209.287C125.117 209.194 125.847 209.041 126.559 209.005C128.344 206.784 127.382 203.28 124.898 202.323C123.993 202.721 123.179 202.49 122.19 202.405C121.203 202.32 120.214 202.263 119.222 202.267C117.237 202.276 115.132 202.798 113.166 202.573C112.846 202.536 112.549 202.111 112.867 201.851C114.372 200.624 116.529 200.223 118.44 199.962L118.836 199.909C119.477 199.825 120.256 199.702 121.064 199.63C121.247 199.273 121.574 199.004 122.067 198.937C122.213 198.917 122.36 198.905 122.507 198.893L122.505 198.878C123.706 198.821 123.654 196.793 123.325 196.015ZM41.0984 233.946C41.0772 233.978 41.0539 234.01 41.0292 234.039L40.9911 234.084L41.1886 234.003L41.0984 233.946ZM144.283 191.67C139.228 191.127 134.165 191.241 129.095 191.387C128.69 192.713 127.278 193.842 125.91 193.885C126.981 195.514 127.092 197.72 126.341 199.448C127.936 200.082 129.31 201.222 130.144 202.845C131.3 205.095 131.149 207.599 130.006 209.679C130.982 210.561 131.557 211.995 131.5 213.346C131.435 214.853 130.537 216.14 129.79 217.387C128.983 218.736 128.956 219.924 128.708 221.435C128.346 223.646 126.853 224.988 124.933 225.825L125.035 226.227C125.53 228.152 126.146 230.184 127.561 231.592C129.381 233.404 132.205 233.387 134.61 233.502L134.726 233.508C136.928 233.618 139.129 233.747 141.33 233.871L142.981 233.964C145.515 234.103 147.949 234.12 150.018 232.445C153.396 229.712 155.712 225.188 157.177 221.184C160.254 212.778 160.291 203.554 158.879 194.8C154.143 193.274 149.229 192.201 144.283 191.67ZM102.242 205.615L102.279 205.617C103.32 205.736 104.035 206.578 104.29 207.578C104.66 209.03 104.478 210.343 105.368 211.654C106.284 213.002 106.847 214.082 106.98 215.747C107.034 216.432 107.009 217.116 107.162 217.787L107.273 218.257C107.39 218.758 107.486 219.241 107.428 219.779C107.374 220.269 107.135 220.652 106.643 220.809C105.038 221.322 103.799 220.14 103.384 218.646C103.026 217.354 103.504 215.816 102.999 214.604C102.719 213.932 102.203 213.369 101.911 212.693C101.622 212.022 101.477 211.322 101.431 210.593C101.343 209.214 102.563 207.558 101.882 206.308C101.737 206.042 101.901 205.607 102.242 205.615ZM80.9245 191.387C82.0113 191.167 83.2441 190.661 84.3159 191.081C84.8668 191.298 85.139 191.969 84.6735 192.436C83.8654 193.245 82.691 193.29 81.6025 193.481L81.5067 193.498C80.2197 193.736 78.9304 193.962 77.6394 194.176C75.2105 194.578 72.7758 194.933 70.3326 195.236C67.8232 195.546 65.3068 195.822 62.7869 196.03L61.8114 196.11C59.6828 196.28 57.4679 196.409 55.3793 196.083C55.0758 196.035 55.1247 195.594 55.3793 195.516C57.6674 194.824 60.1773 194.639 62.5428 194.346C65.0577 194.034 67.5683 193.705 70.0724 193.314C72.5725 192.924 75.0694 192.505 77.5569 192.042C78.6813 191.833 79.8039 191.615 80.9245 191.387ZM120.138 189.165C119.184 188.828 118.135 188.328 117.102 188.495C115.32 188.784 113.734 190.519 112.323 191.661L113.031 191.524C116.655 190.828 121.454 190.078 124.497 192.381C124.504 192.367 124.51 192.354 124.519 192.341C124.765 191.968 125.049 191.677 125.36 191.358C125.39 191.33 125.418 191.302 125.446 191.272L125.614 191.094L125.231 190.961C124.41 190.671 123.438 190.297 123.284 190.242L123.273 190.238C122.227 189.884 121.179 189.534 120.138 189.165ZM90.3617 113.248C90.2126 111.331 93.1979 111.347 93.3458 113.248C93.6684 117.399 92.7337 121.51 90.7221 125.149C90.7073 125.176 90.691 125.199 90.6755 125.224C91.9337 125.878 93.2062 126.506 94.507 127.067C96.171 127.785 97.8663 128.439 99.5919 128.993C101.153 129.495 103.076 129.694 104.388 130.738C107.156 132.94 106.116 137.511 105.584 140.473L105.501 140.941C105.236 142.466 105.044 144.03 105.687 145.493C106.374 147.056 107.762 148.215 109.001 149.333L109.252 149.56C110.349 150.559 111.603 151.773 112.408 153.128C113.143 151.609 114.145 150.369 115.204 148.972C115.96 147.975 115.422 147.646 114.879 146.672C114.356 145.735 114.101 144.736 114.265 143.666C114.566 141.691 116.146 140.265 117.717 139.193C119.574 137.928 121.646 136.99 123.565 135.813C127.509 133.395 131.349 130.63 134.809 127.559C134.905 127.475 135.07 127.586 134.994 127.702C132.26 131.857 129.056 135.447 125.117 138.494C123.52 139.73 121.842 140.755 120.153 141.832L119.667 142.144C118.989 142.583 118.143 143.17 117.837 143.917C117.528 144.669 118.186 145.236 118.54 145.859C119.665 147.837 119.122 149.682 117.789 151.359L117.727 151.436C116.402 153.068 115.398 154.585 114.918 156.67C113.886 161.148 115.323 165.812 116.828 170.016L116.887 170.182C117.701 172.448 118.566 174.697 119.273 176.999L119.467 177.636C120.108 179.754 120.633 181.843 119.914 184.021C119.67 184.762 118.659 184.937 118.239 184.24C116.758 181.781 116.389 178.823 115.461 176.12C114.556 173.486 113.517 170.9 112.643 168.255C111.517 164.849 110.764 161.184 111.173 157.612C111.161 157.591 111.148 157.571 111.138 157.549L110.851 156.923C110.07 155.227 109.316 153.746 107.895 152.395C106.413 150.985 104.805 149.737 103.639 148.03C101.106 144.322 102.673 140.198 102.979 136.144L103.014 135.647C103.069 134.805 103.1 133.661 102.549 133.079C101.931 132.423 100.479 132.256 99.6583 131.965C97.5364 131.215 95.4454 130.34 93.4538 129.29C91.558 128.291 89.7216 127.187 88.0117 125.893L87.1451 125.242C85.7777 124.211 84.3598 123.085 83.4434 121.681C83.3376 121.519 83.5173 121.259 83.7088 121.336C85.2387 121.957 86.6365 122.943 88.0679 123.802C88.0902 123.75 88.116 123.697 88.1453 123.644C89.9163 120.441 90.6447 116.892 90.3617 113.248ZM139.232 135.195C139.841 133.524 142.619 133.653 142.509 135.638C142.424 137.163 141.776 138.54 141.184 139.924L141.12 140.072C140.509 141.515 139.802 142.869 138.957 144.191C137.342 146.719 135.451 149.065 133.431 151.278C131.599 153.285 129.195 154.512 126.424 154.308C125.257 154.222 124.079 153.926 123.056 153.343C121.841 152.651 120.522 150.572 118.972 151.075C118.822 151.124 118.682 150.904 118.812 150.8C120.601 149.36 122.632 151.593 124.345 152.131C126.927 152.942 129.575 152.046 131.237 149.96C132.972 147.783 134.568 145.344 136.026 142.974C136.767 141.77 137.442 140.52 138.025 139.233C138.614 137.933 138.748 136.52 139.232 135.195ZM135.071 124.914C134.996 124.684 135.282 124.464 135.485 124.596C136.661 125.361 137.68 126.372 138.764 127.258C139.968 128.24 141.18 129.203 142.411 130.151C144.205 131.534 142.124 134.079 140.544 132.569C138.383 130.503 136.016 127.802 135.071 124.914ZM128.616 116.829C129.093 114.988 131.918 115.747 131.507 117.566L131.493 117.622C130.714 120.627 131.824 123.686 134.195 125.634L134.282 125.705C135.782 126.904 133.657 129.002 132.172 127.814C128.93 125.22 127.581 120.816 128.616 116.829Z" fill="black"/>
<path fill-rule="evenodd" clip-rule="evenodd" d="M89.3949 9.95117L91.555 12.5241C90.3589 13.3683 89.2298 14.2166 88.1676 15.0689L88.1667 15.0663C93.0865 11.8515 98.5352 9.95117 104.421 9.95117C115.758 9.95117 138.786 19.7045 143.992 26.7395C146.575 30.2308 151.376 40.9486 153.866 52.6008C155.867 61.9632 158.843 88.4133 155.867 98.3521C152.058 111.072 139.528 122.828 126.607 122.828C113.686 122.828 93.6268 113.486 79.35 93.0132C78.6972 92.077 71.2005 90.9919 65.8526 87.4782L67.2567 102.97L68.3238 111.982L68.0883 112.624C64.2581 122.998 61.2229 128.411 58.9827 128.861C56.6967 129.321 52.0414 125.568 45.0167 117.602L44.1191 113.829C41.8393 104.204 40.6993 99.0376 40.6993 98.3297L40.7009 98.2007C40.7345 96.5717 41.2948 87.3515 41.3064 84.8703L41.3065 47.6816C48.8614 22.528 56.0708 9.95117 62.9347 9.95117H89.3949Z" fill="#EDB98A"/>
<path fill-rule="evenodd" clip-rule="evenodd" d="M71.4939 1.38523C73.7151 0.523551 76.2884 0.686369 78.3968 1.9839C82.5364 1.80606 86.6532 4.23079 88.8114 7.77021C88.8564 7.8203 88.9042 7.8704 88.9467 7.9205L89.4041 8.45441C89.8372 8.96427 90.294 9.52624 90.6559 10.1065C88.8831 10.1471 87.4062 10.8708 86.3753 12.3324C85.6397 13.3753 87.3248 14.3663 88.0766 13.3799L88.1031 13.3438C88.7221 12.4664 89.6565 12.1265 90.6967 12.1087C90.9953 12.1037 91.2219 11.9892 91.382 11.8204C91.4458 12.0531 91.5028 12.2883 91.5551 12.5245C96.7928 10.4843 102.439 9.94395 108.063 10.4279C107.816 10.8277 107.61 11.256 107.452 11.7061C107.272 12.2164 107.656 12.8023 108.151 12.9386C108.686 13.0858 109.17 12.7717 109.363 12.2862L109.381 12.2387C109.597 11.6255 109.95 11.0992 110.424 10.6912C113.071 11.0506 115.7 11.6222 118.264 12.3592C121.346 13.2457 124.399 14.3275 127.385 15.5662C126.879 15.7648 126.442 16.1005 126.137 16.6608C125.526 17.7793 127.205 18.7811 127.842 17.7119L127.864 17.6723C127.927 17.5576 127.982 17.4887 128.023 17.4494L128.037 17.4361L128.125 17.3955L128.289 17.3484L128.352 17.3329C128.408 17.3204 128.431 17.3212 128.577 17.3131C128.772 17.3021 128.967 17.3031 129.161 17.3028C129.62 17.3026 129.912 17.0468 130.044 16.7197C131.518 17.3857 132.972 18.0871 134.401 18.8218L134.741 18.9979C139.151 21.3058 143.33 24.3367 145.754 28.7963C145.914 29.0944 145.964 29.42 145.924 29.7306C146.441 30.3518 146.942 30.9931 147.422 31.6443C148.887 33.6382 149.96 35.9052 150.976 38.1521C153.019 42.6709 154.395 47.3124 155.468 52.1519C156.506 56.816 157.344 61.5302 158.122 66.2444C158.984 71.4822 159.702 76.765 159.852 82.0779C160.118 91.5489 158.269 101.075 152.959 109.048C148.222 116.162 141.089 121.81 132.63 123.619C124.027 125.458 114.923 123.664 108.142 117.923C107.049 116.999 107.2 115.132 108.142 114.186C109.21 113.118 110.786 113.266 111.874 114.186C118.259 119.594 127.553 120.428 135.247 117.672C142.36 115.122 147.932 109.241 151.351 102.636C155.523 94.5798 156.226 85.3267 155.585 76.4143C155.235 71.5197 154.507 66.6653 153.757 61.8183L153.304 58.9007C152.81 55.7405 152.291 52.5847 151.614 49.4566L151.455 48.7279C150.628 44.9558 149.659 41.0869 148.16 37.5409C147.374 35.6797 146.429 33.8862 145.461 32.1153C145.274 31.7721 145.081 31.4239 144.883 31.0732C144.618 31.1659 144.315 31.1809 143.998 31.0807C141.264 30.2291 138.455 29.658 135.597 29.4676C134.295 29.3804 132.99 29.3669 131.687 29.4177C129.457 29.2877 127.165 29.4841 125.04 30.169C124.832 29.9904 124.622 29.8155 124.411 29.6407C124.354 29.6362 124.298 29.6302 124.24 29.6189C123.698 29.5122 123.317 29.1264 123.088 28.6392C123.076 28.6134 123.065 28.5876 123.055 28.5618C122.783 28.3537 122.509 28.1488 122.232 27.9466C121.558 28.1217 120.967 27.5599 120.808 26.9442C120.658 26.8427 120.505 26.7445 120.354 26.6451C120.235 26.6741 120.117 26.6982 120.002 26.7067C119.505 26.7425 119.026 26.6664 118.586 26.4292C118.029 26.1288 117.673 25.6444 117.435 25.094C116.593 25.1459 115.74 24.8721 114.987 24.3771C114.376 23.9756 113.908 23.4213 113.442 22.8679C107.77 20.3342 101.605 18.8383 95.4245 18.4551C94.8157 18.5723 94.2112 18.7118 93.6142 18.8741C93.4729 18.9127 93.2723 18.9884 93.0414 19.079C94.4193 18.9122 95.8149 18.8957 97.2303 19.0998C103.947 20.0725 109.178 25.1088 113.68 29.8629C114.751 29.6462 115.833 31.0352 114.842 31.955L107.115 39.1267C107.304 39.9288 106.386 40.7193 105.581 40.5267C104.232 40.2021 102.881 39.8864 101.528 39.5761C100.118 40.2597 98.3442 40.1427 97.0647 39.1518C97.0052 39.1057 96.8759 39.032 96.7636 38.9589C96.6585 39.0458 96.5172 39.133 96.4609 39.17C96.006 39.4716 95.4517 39.5603 94.9203 39.4756C94.3735 39.3887 93.8801 39.1109 93.4546 38.765C93.1838 38.5447 92.5527 37.6252 92.2015 37.5575L92.1673 37.5536C92.4017 37.5604 91.6483 38.2615 91.446 38.4065C90.9738 38.744 90.4518 38.9213 89.8643 38.8567C88.8404 38.7438 87.96 37.8093 87.4593 36.9463L87.4215 36.8801L87.4058 36.839L87.3924 36.8834C87.39 36.8913 87.3872 36.8997 87.3837 36.9091C87.3087 37.1123 87.0731 37.3432 86.913 37.4852C86.4568 37.8893 85.8921 38.0669 85.2888 37.9614C84.7782 37.8724 84.3489 37.5635 84.0038 37.1896L83.95 37.1301C83.8479 37.0147 83.1752 36.1095 83.2814 35.8926L83.2937 35.8744L83.2602 35.8673C82.851 35.968 82.5076 35.8671 82.256 35.6559C80.8519 35.3478 79.4661 34.9889 78.1245 34.5325C78.0194 34.8281 77.9166 35.1236 77.8168 35.4217C78.5494 35.8751 79.2272 36.5214 79.85 36.9823C81.0307 37.854 82.211 38.7257 83.389 39.5999L88.0565 43.0481L88.5903 42.9046C89.2723 42.7212 89.8575 43.1189 90.1078 43.7267L90.1284 43.7793C90.2277 44.0456 90.3473 44.2918 90.4878 44.5275C91.6546 44.4809 92.6425 45.1983 92.9619 46.2273C93.25 46.2208 93.5412 46.2318 93.8388 46.2646C94.6539 46.3543 95.2033 46.9605 95.0557 47.7929L95.0446 47.85L95.0248 47.9427C95.4973 48.1436 95.8399 48.5316 95.9159 49.1182C96.0425 49.3088 96.1445 49.5163 96.2098 49.7472C96.5508 50.9456 95.8875 52.4269 95.5342 53.5749L95.507 53.6649C95.2803 54.4193 95.0456 55.1702 94.8082 55.9207L94.2168 57.784C92.5771 62.9772 90.9784 68.4526 92.3054 73.8969C92.5882 75.0491 91.1174 75.5701 90.4796 74.6684C88.9334 72.4851 87.2629 70.4278 85.5089 68.453L85.4239 68.4395C84.1956 68.1922 83.7187 67.3233 83.1549 66.4375C82.8228 66.5355 82.4656 66.5585 82.1205 66.4919C81.6207 66.3955 81.173 66.1097 80.8196 65.7487C80.5203 65.4426 80.2459 64.6576 79.892 64.4629C79.4493 64.2197 78.5594 64.5674 78.0307 64.4892C77.6008 64.4259 77.1993 64.2781 76.8099 64.0925C76.0941 65.0696 75.6196 66.2184 75.5033 67.4568C75.4581 67.9277 75.318 68.326 75.1154 68.6566C75.8607 68.6291 76.6086 68.6817 77.3466 68.8195C80.0778 69.3279 82.0362 71.0162 83.1367 73.5312C83.1839 73.6414 83.0414 73.7316 82.9763 73.6263C81.3434 71.1089 77.7891 70.9812 75.208 71.8679C72.4668 72.8098 70.9286 75.227 70.3811 77.9849C69.7809 81.0083 70.5509 84.2671 72.1944 86.8422C72.957 88.0395 73.9977 89.1316 75.3805 89.5725C77.024 90.096 78.5419 89.1592 80.2251 89.6426C81.3706 89.9708 81.8761 91.0804 81.6683 92.1901C81.5857 92.626 81.4332 93.0067 81.2281 93.3373C81.8336 94.5397 82.3936 95.7771 83.1064 96.9143C84.2069 98.6703 85.5377 100.123 86.9881 101.588C88.4862 103.101 90.0119 104.584 91.6151 105.987C93.151 107.332 94.9118 108.289 96.5225 109.521C97.6529 110.386 98.2129 111.598 97.6552 112.986C97.1952 114.133 95.6443 115.11 94.3888 114.591C91.9852 113.599 89.8818 111.911 87.9662 110.173C86.1905 108.56 84.6446 106.631 83.4765 104.537C82.3747 102.562 81.5628 100.32 80.8779 98.1608L80.7929 97.8912C80.4702 96.8642 80.1303 95.7095 79.9103 94.5447C78.5922 95.2661 76.8037 95.3713 75.3933 95.1759C73.1146 94.8628 71.0362 93.7131 69.4655 92.0373C68.7334 91.2575 68.0864 90.368 67.5276 89.4039C67.5784 89.9908 67.6087 90.5587 67.6412 91.0754C68.947 92.5077 69.4707 94.5748 69.0073 96.4607C70.0997 97.5869 70.4059 99.2775 69.8356 100.717C71.0314 101.905 70.9864 103.795 70.4694 105.511C71.883 107.094 72.0168 109.559 70.9131 111.344L70.8798 111.473C71.9943 113.34 71.743 115.754 70.3466 117.403C71.3003 119.256 71.1527 121.748 68.7694 122.466C67.9008 122.728 67.0589 122.505 66.4289 122.017C67.0042 124.883 67.2615 127.792 66.4944 130.67C66.1891 131.812 65.0736 132.647 63.9006 132.647C62.9201 132.647 62.2073 132.153 61.7149 131.427C61.7724 132.872 61.6848 134.325 61.3772 135.79C61.1916 136.675 60.372 137.365 59.5019 137.579C59.8158 137.933 59.9408 138.446 59.64 138.98C58.3642 141.242 55.2816 140.304 55.0732 138.137C54.2026 137.486 53.7979 136.418 53.6304 135.263C53.3862 133.579 53.2977 131.923 53.0211 130.261L52.9153 130.36L52.8608 130.407L52.8433 130.528C52.6847 131.349 52.222 131.924 51.6215 132.268C51.752 133.701 51.5104 135.161 50.6025 136.249C49.9978 136.974 48.9676 137.26 48.0845 137.103C48.0289 137.105 47.9722 137.105 47.9131 137.097C45.913 136.831 44.7558 134.931 45.2822 133.187C44.4769 132.199 44.1377 130.945 44.3761 129.705C42.8177 128.672 42.8494 126.402 43.3892 124.578C41.7555 123.287 41.1409 120.873 41.9618 118.955C40.4894 117.123 40.2846 114.571 41.285 112.486C39.665 111.153 39.6743 108.58 41.281 107.217C40.4254 105.516 39.9094 103.477 40.7645 101.921C40.1613 101.254 39.8301 100.303 39.8999 99.3852C40.0022 98.0365 40.8931 97.1047 41.9986 96.4837L42.0751 96.0619C42.3347 96.0942 42.6113 96.0216 42.8552 95.7871C43.0965 95.5549 43.3449 95.3678 43.6018 95.2135C43.8926 95.2098 44.143 95.08 44.3191 94.8804C44.8008 94.7165 45.3188 94.6441 45.8932 94.6376C47.134 94.6241 47.1778 92.7657 46.0231 92.6452C45.8407 92.4611 45.5896 92.3452 45.3172 92.3452L45.104 92.346C44.6053 92.3508 44.1019 92.3815 43.6393 92.5801C43.3386 92.7089 43.1068 92.903 42.937 93.1405C42.9052 93.4997 42.7101 93.8579 42.2877 94.1537C41.7997 94.4954 41.1324 94.5352 40.6102 94.2261C39.8791 93.7932 39.8716 93.1177 39.9559 92.3832C40.1405 90.7766 39.2181 89.2646 39.4377 87.6209C39.535 86.8943 39.7766 86.2668 40.1705 85.76C39.3399 84.5149 39.1933 82.9075 39.8329 81.5406C38.5005 80.105 38.2702 77.8922 39.1198 76.1646C39.1321 76.1227 39.1416 76.0799 39.1548 76.0386C39.2509 75.745 39.3832 75.4802 39.529 75.227C38.7832 73.9329 38.7887 72.3451 39.5467 71.0566C38.3985 69.716 38.362 67.5825 39.3832 66.1382C39.3892 66.0185 39.4017 65.8988 39.4119 65.779C38.9432 64.5604 39.0558 63.1749 39.6503 62.0417C39.4382 61.552 39.2746 61.0247 39.1701 60.4631C38.9022 59.0153 39.04 57.6076 39.4402 56.1948C39.505 55.9719 39.5775 55.7489 39.655 55.526C39.668 54.5583 39.7048 53.595 39.7533 52.6333C39.5632 51.8193 39.5325 50.9247 39.5283 50.0943L39.5271 49.5557C39.5178 48.1853 39.4224 46.1787 40.2876 45.0137C39.7321 43.7552 39.9604 42.1697 40.8876 41.1722C40.2368 40.0513 40.1002 38.6748 40.7543 37.4311C40.8593 37.231 40.9811 37.0446 41.1147 36.8683C41.0607 35.7293 41.3 34.5548 41.906 33.4228C42.2997 32.6859 42.8877 32.0479 43.5867 31.5374C43.575 31.3863 43.5677 31.2355 43.5702 31.087C43.5825 30.4242 43.7293 29.7587 43.9764 29.1377C43.533 28.3797 43.3274 27.5253 43.5867 26.6045C43.8769 25.5625 44.64 24.6657 45.5926 24.1597C45.6694 23.1773 45.8227 22.2006 46.0418 21.237C45.4563 19.9312 45.9225 18.2078 47.2458 17.4386C47.0733 16.3951 47.2288 15.3129 47.9872 14.4978C48.2745 14.189 48.6132 13.9548 48.9776 13.7995C48.802 12.7502 49.0001 11.6586 49.7247 10.8041C50.3164 10.1065 51.1933 9.68269 52.0857 9.62032C52.4293 7.79526 54.1703 6.43059 56.0071 6.5393C56.2367 5.73573 56.7852 5.03511 57.6361 4.67992C57.8539 4.58899 58.074 4.52913 58.2934 4.49581C59.787 2.98686 62.0107 1.96412 63.9358 1.44034C65.8668 0.917058 67.8243 0.866406 69.4823 1.4748L69.603 1.5205L69.7381 1.50296C70.3236 1.43784 70.9086 1.40026 71.4939 1.38523ZM56.82 125.061C56.3043 124.9 55.729 125.251 55.5892 125.76C55.4416 126.298 55.7703 126.832 56.288 126.993C56.933 127.194 57.6106 127.245 58.2829 127.245C58.8234 127.246 59.2833 126.784 59.2833 126.243C59.2833 125.7 58.8254 125.242 58.2829 125.241C57.7361 125.241 57.3325 125.221 56.82 125.061ZM52.2322 114.42C51.4612 114.421 50.7999 114.605 50.2281 115.146C49.847 115.507 49.8375 116.205 50.2281 116.564C50.6227 116.926 51.1952 116.947 51.6003 116.602L51.6783 116.532C51.6876 116.524 51.6949 116.517 51.7008 116.511C51.7333 116.49 51.766 116.469 51.8006 116.45L51.7353 116.493C51.6856 116.529 51.8009 116.47 51.8655 116.443L51.8858 116.434L51.8924 116.433L51.9441 116.429C52.0399 116.424 52.1362 116.424 52.2322 116.424C52.7555 116.424 53.2567 115.964 53.2327 115.422C53.2082 114.88 52.793 114.42 52.2322 114.42ZM66.7831 108.063C67.866 107.398 66.8987 105.697 65.8127 106.31L65.7734 106.333C65.2166 106.675 64.5318 106.629 63.9011 106.629C62.6138 106.63 62.6115 108.634 63.9011 108.633L64.1142 108.632C65.0389 108.625 65.9742 108.56 66.7831 108.063ZM58.2606 100.749C57.4424 100.595 56.526 100.457 55.6651 100.551L55.5222 100.569H55.2573C55.0272 100.569 54.8044 100.662 54.6255 100.808C54.3424 100.925 54.0743 101.083 53.8297 101.295C52.855 102.142 54.2754 103.554 55.2446 102.713C55.2984 102.666 55.3608 102.627 55.4303 102.596L55.4837 102.573H56.5539C56.6512 102.573 56.746 102.553 56.8382 102.524C57.1856 102.571 57.5093 102.64 57.7286 102.682C58.9872 102.919 59.5264 100.988 58.2606 100.749ZM57.347 81.5168C55.7788 80.7883 54.042 80.7936 52.5917 81.8051C51.5545 82.5284 52.5179 84.2341 53.564 83.5605L53.6013 83.5355C53.7314 83.4448 53.865 83.3689 54 83.3C54.7363 83.5132 55.4775 83.5232 56.1893 83.2611L56.282 83.2253L56.3373 83.2469C57.4978 83.7859 58.5152 82.0593 57.347 81.5168ZM74.4236 78.3769C72.8395 78.1991 72.8267 75.6927 74.4236 75.8721C77.7954 76.2508 80.8547 77.752 83.0954 80.33C84.1376 81.529 82.4213 83.2831 81.3595 82.1376L81.3269 82.1012C79.5451 80.0512 77.1406 78.682 74.4236 78.3769ZM56.6762 65.5087C56.324 65.4702 55.9726 65.4509 55.6267 65.4677C54.7959 65.5077 53.7839 66.0628 54.1486 67.0658C54.441 67.8694 55.3994 67.9012 55.8726 67.4726C56.0694 67.4773 56.266 67.4904 56.4618 67.5104C56.9843 67.5643 57.5018 67.6639 58.0168 67.7656C59.2746 68.0134 59.813 66.0824 58.5487 65.8331L57.9895 65.7223C57.8011 65.6854 57.611 65.6493 57.42 65.6162C57.3057 65.5593 57.1832 65.521 57.0522 65.5112L56.9861 65.5087H56.6762ZM46.7356 49.9621L46.6181 49.9462C44.9286 49.7297 42.2166 49.9289 42.0116 52.0828C41.8983 53.2756 43.619 53.3505 43.9587 52.3305C45.2062 52.1053 46.464 52.0622 47.703 52.199C48.1757 51.7181 48.1795 50.7935 47.3926 50.5628C47.2816 50.2637 47.0498 50.0075 46.7356 49.9621ZM85.3536 46.3243C84.9632 45.9653 84.3229 45.9177 83.9388 46.3243C83.7174 46.5582 83.5326 46.8182 83.3863 47.1043L83.2889 47.2974C83.2724 47.3295 83.2555 47.3614 83.2379 47.3929C83.2052 47.4512 83.1684 47.5068 83.1326 47.5634L83.1086 47.5871C83.099 47.5968 83.0878 47.6085 83.0744 47.6228C82.7145 48.0038 82.6687 48.6668 83.0744 49.0398C83.4648 49.3988 84.1048 49.4464 84.4892 49.0398C84.7103 48.8059 84.8952 48.5461 85.0417 48.2598L85.1389 48.0668C85.1554 48.0348 85.1722 48.003 85.1898 47.9715C85.2226 47.9129 85.2596 47.8573 85.2951 47.8006L85.3349 47.7608C85.3407 47.7549 85.3469 47.7484 85.3536 47.7413C85.7135 47.3605 85.759 46.6972 85.3536 46.3243ZM64.8382 43.7149C63.4286 42.7145 61.7524 42.6679 60.4566 43.8715C59.5214 44.7402 60.8954 46.1321 61.8383 45.3181L61.8714 45.2885C61.9057 45.2564 61.9405 45.2284 61.975 45.2016C62.144 45.3459 62.3589 45.4373 62.6045 45.4375C62.6687 45.4377 62.7328 45.4375 62.7968 45.4389L62.8929 45.4423L62.9444 45.4465L62.9509 45.4478L62.9959 45.467C63.0782 45.5041 63.1917 45.5615 63.0359 45.4638C63.0707 45.4821 63.1032 45.5037 63.1362 45.5247L63.1938 45.5771C63.5709 45.9342 64.2234 45.9813 64.5979 45.5863C65.2609 45.3619 65.6128 44.2642 64.8382 43.7149ZM78.6199 40.4323L78.6455 40.4242C79.8815 40.0708 79.356 38.1368 78.1135 38.4917C76.7952 38.8687 76.1656 40.0974 75.902 41.3558C75.7912 41.8851 76.0571 42.4389 76.6008 42.5885C77.0975 42.725 77.7201 42.4206 77.8316 41.8886C77.9098 41.5145 78 41.197 78.1428 40.9025L78.2292 40.7343C78.2696 40.6577 78.2837 40.645 78.4201 40.5257C78.443 40.5056 78.5471 40.4571 78.6199 40.4323ZM57.6844 30.3398L57.491 30.2956C56.2869 30.0315 54.6887 29.8935 53.9615 31.089C53.2987 32.1781 54.9707 33.1696 55.6592 32.1401C55.6697 32.1397 55.6818 32.1398 55.6959 32.141L55.7185 32.1436L56.0271 32.1185C56.4116 32.1158 56.7795 32.1839 57.1524 32.2723C58.4044 32.5691 58.9389 30.6374 57.6844 30.3398ZM100.912 22.6362C101.824 21.7232 100.409 20.3057 99.4975 21.2195C98.7764 21.9416 98.0809 22.6688 97.6122 23.5864C97.3663 24.0678 97.4866 24.6735 97.9711 24.9573C98.418 25.219 99.0928 25.0813 99.3399 24.5978C99.7461 23.8025 100.259 23.291 100.912 22.6362ZM89.4086 20.2396C88.508 20.7736 87.925 21.6533 87.5711 22.6716C87.3935 23.1826 87.7734 23.7675 88.2699 23.904C88.8034 24.0508 89.2909 23.7378 89.4828 23.2517L89.5004 23.2041C89.5952 22.9318 89.7468 22.6102 89.9341 22.3675C90.0942 22.1603 90.343 21.9529 90.5306 21.884C90.9816 21.7182 91.3012 21.3089 91.2594 20.831C90.5179 21.0877 89.8293 20.7789 89.4086 20.2396ZM62.4477 15.8811C61.539 15.0364 60.32 14.9244 59.2185 15.4357C58.7281 15.6631 58.6053 16.3713 58.8596 16.8066C59.1538 17.3103 59.7363 17.3945 60.2282 17.1661C60.1019 17.2247 60.33 17.1473 60.4286 17.119C60.4412 17.1248 60.6063 17.1173 60.6633 17.1181L60.7318 17.1224C60.7324 17.1229 60.7156 17.1226 60.6814 17.1215C60.7294 17.1323 60.7769 17.1453 60.8237 17.1602L60.8833 17.1809C60.8532 17.1746 60.9884 17.2629 61.026 17.2922L61.0328 17.2978C61.9757 18.1743 63.3941 16.7605 62.4477 15.8811Z" fill="black"/>
<path fill-rule="evenodd" clip-rule="evenodd" d="M122.344 90.8488C123.746 88.5438 126.735 94.1903 127.052 95.1612C127.334 96.0213 127.519 96.9023 127.614 97.7936C128.701 98.0371 129.829 98.0375 130.943 97.8241C132.599 97.5067 133.61 96.6173 135.049 95.8536C136.043 95.3259 137.295 95.9447 137.812 96.8199C138.42 97.8501 138.033 98.9193 137.233 99.6873C135.717 101.144 132.734 101.478 130.755 101.091C129.621 100.87 128.582 100.445 127.664 99.8273C127.658 99.9426 127.654 100.058 127.645 100.173L127.628 100.373C127.475 101.988 127.031 104.019 125.776 105.07C123.717 106.794 121.176 103.478 123.177 101.756L123.239 101.704C124.482 100.7 124.754 98.0063 124.687 96.5224C124.643 95.5539 124.466 94.573 124.16 93.6506L124.097 93.467C124.005 93.2064 123.001 90.7347 122.638 91.0495L122.621 91.0672C122.471 91.2458 122.229 91.0378 122.344 90.8488ZM133.539 77.8421C135.431 78.9919 138.315 81.6729 136.279 84.5233C133.883 87.0366 130.432 84.1549 128.732 82.8517C127.155 81.8416 125.383 84.4394 126.846 85.6187C139.133 94.7103 144.12 78.1428 134.496 76.4903C133.436 76.3082 133.043 77.4864 133.539 77.8421ZM113.329 67.2147C115.178 66.8868 117.073 67.3464 118.604 68.428L118.72 68.5114C120.194 69.5892 121.844 71.4818 120.998 73.3396C120.658 74.0856 119.641 74.2026 118.996 73.8644C117.921 73.3013 117.727 71.9158 116.768 71.1491C115.982 70.5206 114.923 70.1394 113.911 70.2313C111.532 70.4472 110.068 72.792 109.33 74.8127C109.235 75.0712 108.855 75.1717 108.707 74.8942C106.965 71.6398 110.049 67.7963 113.329 67.2147ZM142.956 65.9865C146.5 65.6947 150.647 69.3659 149.714 73.1037C149.267 74.8972 146.605 74.8458 146.132 73.1037C145.871 72.145 145.897 71.2969 145.207 70.5008C144.637 69.8435 143.827 69.4618 142.956 69.5204C141.997 69.585 141.112 70.0642 140.44 70.7378C139.832 71.346 139.469 72.236 138.84 72.7743C138.685 72.9065 138.478 72.915 138.325 72.7743C137.242 71.7766 137.892 69.6995 138.579 68.658C139.561 67.1676 141.161 66.1345 142.956 65.9865ZM106.581 60.5854C108.854 58.5745 112.984 56.6324 116.049 57.6221C117.812 58.191 118.58 61.0288 116.613 61.9283C114.335 62.9698 111.708 62.546 109.39 63.6256C108.416 64.0792 107.5 64.6461 106.822 65.4775C106.288 66.1327 105.745 66.9949 104.972 67.3727C104.769 67.4721 104.494 67.4746 104.331 67.2903C102.638 65.376 105.103 61.8932 106.581 60.5854ZM139.05 57.5223C140.454 57.1283 142.013 57.1363 143.44 57.3838C144.867 57.6313 146.315 58.2222 147.48 59.0841L147.615 59.185C148.887 60.1426 150.404 61.5359 150.323 63.2322C150.255 64.6487 148.764 65.6068 147.476 64.8644C146.427 64.259 145.933 63.0461 145.045 62.2385C144.312 61.572 143.45 61.0464 142.531 60.6782C141.511 60.2692 140.489 60.0775 139.393 60.0593C138.55 60.0452 137.701 60.3218 136.874 60.4102C136.942 60.55 136.288 60.4848 135.913 60.3608C135.635 60.2426 135.634 59.8917 135.73 59.664C136.207 58.536 137.945 57.8319 139.05 57.5223Z" fill="black"/>
</svg>
