<svg width="197" height="288" viewBox="0 0 197 288" fill="none" xmlns="http://www.w3.org/2000/svg">
<path d="M167.421 181.949H110.026V252.587H167.421V181.949Z" fill="#FDEA6B"/>
<path fill-rule="evenodd" clip-rule="evenodd" d="M93.2847 112.857C99.4717 108.149 115.004 106.032 121.608 110.565C128.13 115.118 128.841 122.48 131.88 129.253C134.748 127.901 139.483 129.837 140.314 132.496C141.346 133.75 141.392 137.274 142.103 138.96C173.042 143.882 177.739 167.989 181.463 195.357C186.39 223.128 197.573 250.839 192.718 279.416C193.351 280.331 193.85 281.22 194.311 282.276C195.416 284.155 193.992 286.815 191.764 286.712C188.878 286.459 186.022 286.114 183.123 286.006C175.088 285.727 167.045 285.76 159.007 285.862L157.911 285.876C117.4 286.38 76.8905 287.374 36.3775 287.637C34.9078 287.639 34.1882 286.322 34.3845 285.022C34.7797 282.406 35.1464 279.788 35.5291 277.171C25.9468 279.7 15.7599 280.337 6.20459 277.437C5.53614 276.756 7.76205 277.125 8.11519 277.022C-0.678662 271.016 1.94751 258.365 2.72649 249.252C7.57031 218.029 9.2779 183.482 27.9927 156.838C36.0891 145.965 47.959 137.356 61.5984 135.419L61.9768 135.367C65.965 134.836 70.4097 134.664 73.8967 132.496C77.8185 129.367 79.4897 123.586 83.6155 123.532C84.9779 123.514 86.8313 125.236 88.8256 126.406C88.9745 123.833 90.3618 121.662 90.6681 119.667L90.6929 119.497C91.0125 117.171 90.5748 115.079 93.2847 112.857ZM159.776 196.181C151.081 190.145 128.621 193.178 128.107 193.516C126.974 194.26 126.487 194.326 125.875 195.292C125.27 195.373 124.666 195.456 124.062 195.541C122.852 195.937 123.749 197.425 125.147 196.894C124.306 200.52 126.782 203.098 127.767 206.683C128.087 207.846 127.779 209.939 127.767 211.129C127.863 212.645 129.54 214.436 129.261 215.957C128.267 221.365 122.874 226.64 125.147 231.884C126.654 234.846 131.184 236.357 134.196 237.364C140.437 239.758 151.311 237.274 154.937 231.884C156.871 229.01 159.111 221.759 160.265 219.51L160.52 215.942C161.151 207.073 161.711 197.525 159.776 196.181Z" fill="#EDB98A"/>
<path fill-rule="evenodd" clip-rule="evenodd" d="M83.2939 123.548L85.7822 125.074L100.233 132.213C103.035 132.997 104.436 133.937 104.436 135.032V146.184C104.436 147.676 107.065 151.058 112.323 156.33L117.181 151.49L117.072 150.857C116.61 148.126 116.379 146.3 116.379 145.377C116.379 144.385 121.131 140.619 130.636 134.078L134.795 130.166L134.351 128.818C136.915 128.939 139.696 130.517 140.314 132.496C141.346 133.75 141.392 137.274 142.103 138.96C173.042 143.882 177.739 167.989 181.463 195.357C186.39 223.128 197.573 250.839 192.718 279.416C193.351 280.331 193.85 281.221 194.311 282.277C195.416 284.156 193.992 286.816 191.764 286.713C188.878 286.46 186.022 286.114 183.123 286.006C175.088 285.727 167.045 285.76 159.007 285.862L157.911 285.877C117.4 286.381 76.8905 287.374 36.3775 287.637C34.9078 287.639 34.1882 286.322 34.3845 285.022C34.7797 282.406 35.1464 279.788 35.5291 277.171C25.9468 279.7 15.7599 280.337 6.20459 277.437C5.53614 276.756 7.76205 277.125 8.11519 277.022C-0.678662 271.016 1.94751 258.365 2.72649 249.253C7.57031 218.029 9.2779 183.482 27.9927 156.838C36.0891 145.965 47.959 137.356 61.5984 135.419L61.9768 135.367L62.358 135.318C66.2462 134.823 70.5204 134.596 73.8967 132.496C77.7149 129.45 79.3999 123.889 83.2939 123.548ZM117.921 189.002C116.504 189.002 113.601 191.202 109.213 195.602L108.826 195.78C103.521 198.243 100.007 200.379 98.2834 202.189L98.2219 202.254C96.4805 204.121 93.0322 209.086 87.8768 217.148L80.4111 221.56H77.5863L75.5752 236.14L80.4111 246.55L91.3649 242.862L109.213 238.161L119.454 227.777L125.231 225.838C124.53 227.862 124.276 229.876 125.147 231.885C126.654 234.847 131.184 236.357 134.196 237.364C140.437 239.758 151.311 237.274 154.937 231.885C156.871 229.01 159.111 221.759 160.265 219.51L160.595 214.875C161.191 206.322 161.634 197.472 159.776 196.182C151.081 190.145 128.621 193.178 128.107 193.516C126.974 194.26 126.487 194.326 125.875 195.293L125.558 195.335L127.34 192.919L126.709 192.582C122.206 190.195 119.276 189.002 117.921 189.002ZM125.147 196.894C124.342 200.365 126.577 202.877 127.634 206.23L124.933 201.064L124.933 196.961C125.003 196.944 125.075 196.922 125.147 196.894Z" fill="#9DDADB"/>
<path fill-rule="evenodd" clip-rule="evenodd" d="M82.1006 123.009C82.7009 122.478 83.5892 123.145 83.2077 123.863C82.3505 125.476 81.4713 127.004 80.3209 128.43C79.6234 129.294 78.8762 130.112 78.119 130.92C80.0622 132.6 81.7287 134.686 83.3025 136.641C85.3148 139.141 87.2174 141.747 89.4764 144.035C91.7043 146.291 94.1676 147.868 97.1462 148.92L97.7477 149.129C100.74 150.179 103.938 151.597 105.624 154.428C105.957 154.986 105.287 155.676 104.724 155.328C101.794 153.514 98.3502 153.149 95.1601 151.951C92.0785 150.794 89.3922 149.012 87.0187 146.738C84.6491 144.468 82.6596 141.886 80.5843 139.358C78.5321 136.858 76.3225 134.723 73.895 132.608C70.1491 135.127 65.8733 136.223 61.5255 137.299L61.0509 137.417C56.6978 138.494 52.3681 139.745 48.2842 141.62C44.6835 143.274 41.142 145.248 38.2091 147.939C35.0957 150.795 32.6725 154.442 30.4546 158.009C25.4935 165.988 22.0056 174.73 18.9351 183.579C15.7415 192.782 13.0702 202.17 10.9137 211.669C9.81689 216.501 8.92613 221.367 8.19402 226.268C7.84162 228.628 7.52857 230.993 7.25363 233.363C6.96013 235.895 6.89271 238.499 6.11573 240.932C5.78264 241.975 4.99614 242.408 4.20889 242.371L4.04899 244.37C3.83695 247.035 3.63929 249.7 3.57252 252.381C3.46176 256.84 3.51198 261.285 3.83285 265.734L3.87829 266.34C4.13044 269.587 4.69387 273.235 7.13683 275.613C9.66676 278.075 13.5574 278.849 16.9673 278.894C24.9093 278.997 32.5542 275.247 39.5821 271.957C46.82 268.568 53.8601 264.807 60.7316 260.728C64.231 258.651 67.6925 256.505 71.11 254.295C72.787 253.211 74.4522 252.108 76.1049 250.988C77.0516 250.346 77.9486 249.643 78.9123 249.073C78.4401 248.634 78.2293 247.943 78.6248 247.34C75.839 244.923 74.6795 240.61 74.5439 237.121C74.4344 234.304 74.8492 231.495 75.1766 228.705C75.3417 227.298 75.5457 225.894 75.7575 224.493C75.8412 223.94 75.9052 223.348 76.0029 222.764C68.4805 226.895 60.7474 230.574 52.8094 233.843C48.7406 235.518 44.6196 237.025 40.4417 238.405L39.595 238.684C35.6364 239.979 31.5832 241.202 27.4908 241.942C27.272 241.982 27.0943 241.659 27.3279 241.556C31.316 239.797 35.4423 238.314 39.4903 236.694L40.1555 236.424C40.0791 236.419 39.9999 236.409 39.9172 236.389C37.5431 235.816 35.1876 234.934 32.8592 234.191C30.6982 233.501 28.2703 233.068 26.2504 232.027C26.095 231.947 26.182 231.731 26.3334 231.721C28.6037 231.564 31.0682 232.225 33.2941 232.614L34.1303 232.76C35.5311 233.007 36.963 233.272 38.3569 233.619C38.4073 233.152 38.6682 232.683 39.0394 232.408C43.1241 229.385 42.7093 223.279 43.1461 218.777L43.4701 215.434C44.0399 209.584 44.6427 203.734 45.5585 197.928C45.6074 197.618 46.0873 197.707 46.0894 197.999C46.1366 205.197 45.5929 212.362 45.3204 219.548L45.2782 220.727C45.1276 225.162 45.0095 229.766 42.215 233.178C42.6057 232.95 43.1341 232.95 43.4506 233.326C43.8396 233.789 44.0642 234.308 44.0572 234.818C46.5824 233.76 49.0965 232.674 51.5984 231.567C59.6421 228.005 67.5171 224.02 75.1838 219.707C76.0089 219.243 76.7932 219.608 77.2012 220.22L77.2601 220.211C77.2699 220.21 77.2799 220.209 77.2902 220.209L77.3486 220.206C77.3508 220.206 77.3531 220.207 77.3551 220.207C78.4343 219.614 79.9046 220.036 80.8307 220.9C80.858 220.927 80.8813 220.955 80.9056 220.982C82.0781 220.456 83.1729 219.746 84.1664 218.846C86.1996 217.004 87.9217 214.727 89.423 212.444C92.1878 208.238 94.5363 203.561 98.271 200.099C101.305 197.286 105.068 195.535 109.014 194.436C108.998 194.321 109.042 194.198 109.122 194.116C109.324 193.908 109.469 193.837 109.731 193.963C109.752 193.973 109.764 193.987 109.773 194.002L110.158 193.344C110.368 192.987 110.584 192.628 110.659 192.534C111.107 191.97 111.568 191.41 112.036 190.862C112.83 189.935 113.735 189.019 114.782 188.376C117.075 186.968 119.486 187.765 121.844 188.534C123.269 189 124.688 189.48 126.111 189.952L126.257 190C127.318 190.34 128.559 190.638 129.033 191.761C129.22 192.205 129.25 192.667 129.162 193.114C139.234 190.554 150.42 191.73 160.248 194.735C160.626 194.85 161.002 195.16 161.082 195.568C162.208 201.339 162.709 207.258 162.2 213.128C161.76 218.195 160.637 223.16 158.52 227.799L158.4 228.061C156.41 232.36 153.257 237.66 148.442 239.007C145.534 239.821 142.318 239.341 139.352 239.192C136.47 239.047 133.524 239.026 130.67 238.573C128.127 238.17 125.899 237.031 124.328 234.965C122.973 233.182 122.259 231.028 121.674 228.885C121.407 228.97 121.141 229.061 120.879 229.163C119.774 229.594 118.839 230.29 117.992 231.109C116.206 232.838 114.82 234.939 112.95 236.589C111.258 238.083 109.329 239.245 107.261 240.138C102.975 241.989 98.3765 242.728 93.8427 243.709L93.5265 243.778C90.1133 244.527 86.6294 245.446 83.6168 247.222C83.5579 247.744 83.3195 248.236 82.9375 248.558C83.4689 249.057 83.694 249.847 83.227 250.588C81.9227 252.657 79.6761 253.834 77.6592 255.157L77.528 255.243C75.544 256.558 73.5426 257.846 71.525 259.108C67.4233 261.675 63.2359 264.1 58.9894 266.419C52.1593 270.148 45.1825 273.665 38.0795 276.856C38.5058 278.952 38.35 281.114 38.6705 283.224L38.7196 283.525C38.8565 284.308 38.6716 284.963 38.1318 285.475L38.0747 285.527L38.0757 285.52L38.0251 285.567L38.0082 285.581L38.0138 285.577C37.9516 285.633 37.8874 285.686 37.822 285.732L37.7386 285.785C37.2188 286.101 36.5494 286.098 36.0171 285.819L35.9563 285.785L35.8541 285.727C35.1508 285.323 34.6658 284.321 34.9576 283.525C35.6746 281.569 35.9456 279.482 36.6077 277.513L36.0824 277.748L35.39 278.049C27.9015 281.286 19.5833 284.011 11.424 281.805C7.81881 280.83 4.44925 278.767 2.64541 275.405C0.870399 272.097 0.619511 268.256 0.525271 264.577C0.408976 260.035 0.652595 255.424 1.25187 250.921C1.65414 247.899 2.14063 244.819 2.89104 241.828C2.50505 241.488 2.22133 241 2.14639 240.395C1.79224 237.538 2.41207 234.568 2.79153 231.726C3.16223 228.951 3.57177 226.182 4.03494 223.421C4.97007 217.845 6.05658 212.281 7.32155 206.771C9.57277 196.964 12.5456 187.332 16.1247 177.929L16.4381 177.11C19.7454 168.516 23.5747 160.105 28.9069 152.556C31.4577 148.944 34.154 145.669 37.7582 143.066C41.1348 140.627 44.9434 138.871 48.8739 137.529C52.8087 136.186 56.853 135.286 60.9687 134.726C65.1486 134.158 69.5605 133.809 73.4597 132.095C72.9664 131.212 73.3898 130.019 74.2199 129.471C77.0135 127.626 79.5968 125.226 82.1006 123.009ZM171.529 203.221C171.646 203.043 171.924 203.156 171.873 203.366C170.514 208.929 169.239 214.503 168.406 220.173C166.903 230.405 167.179 240.771 167.302 251.079L167.308 251.612C167.371 257.165 167.459 262.717 167.643 268.268C167.736 271.073 167.919 273.905 167.819 276.712C167.765 278.234 167.359 279.674 167.215 281.178C167.089 282.494 167.201 283.829 167.264 285.146C167.306 286.022 166.013 285.985 165.925 285.146L165.812 284.062C165.666 282.69 165.486 281.326 165.036 280.012C164.495 278.432 164.235 276.881 164.047 275.222C163.76 272.68 163.632 270.113 163.521 267.553L163.445 265.783C162.981 255.086 162.998 244.339 163.748 233.653L163.803 232.89C164.546 222.789 165.835 211.875 171.529 203.221ZM142.567 139.56C142.212 139.414 142.336 138.878 142.729 138.971L143.444 139.142C148.681 140.395 153.823 141.754 158.711 144.086C163.602 146.42 167.743 149.905 171.034 154.19C177.43 162.519 180.088 172.641 182.186 182.754C184.518 193.991 186.641 205.269 188.994 216.503L189.43 218.596C191.607 229.058 193.662 239.527 195.176 250.114L195.285 250.882C196.812 261.768 197.73 273.032 196.064 283.947C195.734 286.107 192.139 285.569 192.279 283.435C192.685 277.267 192.976 271.132 192.695 264.95C192.414 258.768 191.834 252.612 190.969 246.483C190.241 241.325 189.156 236.232 188.196 231.115L188.045 230.307C187.241 225.955 186.412 221.608 185.585 217.26L184.349 210.75C182.497 201.003 180.608 191.247 178.474 181.561L178.347 180.991C176.259 171.672 173.18 161.911 166.915 154.511C160.558 147.001 151.457 143.219 142.567 139.56ZM119.467 238.402C119.619 238.062 120.154 238.099 120.319 238.402C120.963 239.59 121.035 241.107 121.156 242.448L121.169 242.586C121.324 244.222 121.461 245.864 121.545 247.506C121.704 250.622 121.78 253.734 121.771 256.854C121.761 260.051 121.696 263.244 121.524 266.437L121.477 267.292C121.32 270.067 121.056 273.161 119.737 275.586C119.257 276.468 117.953 276.209 117.675 275.317C116.765 272.398 117.233 268.936 117.466 265.946L117.647 263.612C117.827 261.279 117.998 258.944 118.133 256.608C118.319 253.411 118.473 250.212 118.62 247.014C118.668 245.975 118.72 244.936 118.775 243.898L118.859 242.34C118.931 241.037 118.925 239.607 119.467 238.402ZM17.1696 242.54L17.5723 242.152C18.8087 240.942 20.3712 239.08 22.1989 239.196C22.9278 239.242 23.3922 239.846 23.2411 240.563C22.9183 242.095 21.3545 242.89 20.2289 243.825C18.9958 244.85 17.8336 245.944 16.6736 247.05C15.6446 248.03 14.6549 249.038 13.689 250.077L13.3279 250.469C12.9817 250.846 10.5161 253.075 10.7827 253.653L10.7972 253.679C10.8714 253.79 10.7478 253.942 10.6248 253.903C9.56006 253.567 9.62648 252.655 10.029 251.731C10.8025 249.956 12.1569 248.313 13.3397 246.797C14.5192 245.285 15.7959 243.876 17.1696 242.54ZM123.325 198.015C122.501 196.07 119.468 196.111 117.747 196.228C113.41 196.52 108.719 197.617 104.861 199.642C100.861 201.742 98.1669 205.107 95.7561 208.827L95.6433 209.002C93.2936 212.652 91.0306 216.973 87.3512 219.483C85.4772 220.762 83.2889 221.929 81.0151 222.435C80.859 222.71 80.6061 222.927 80.2745 223.006L80.1204 223.041C79.4728 223.184 78.4667 223.342 77.5977 223.247C77.6035 223.672 77.599 224.094 77.6097 224.496C77.6403 225.65 77.6533 226.808 77.6533 227.963C77.6538 230.381 77.5238 232.804 77.6248 235.222C77.7143 237.361 78.0165 239.596 79.0441 241.508C79.7978 242.911 80.7926 243.839 81.9934 244.725C84.9474 242.926 88.2876 241.83 91.6778 241.005C95.7777 240.008 99.9756 239.342 103.982 237.99C105.911 237.339 107.765 236.487 109.444 235.33C111.227 234.102 112.589 232.439 113.99 230.813L114.209 230.561C115.639 228.922 117.199 227.354 119.22 226.465C120.96 225.7 123.254 225.563 124.775 224.379C125.571 223.759 125.637 222.86 125.721 221.939C124.747 222.079 123.715 221.855 122.744 221.742L122.241 221.683C121.322 221.574 120.425 221.454 119.521 221.22C119.353 221.177 119.353 220.924 119.521 220.88C120.589 220.605 121.648 220.487 122.744 220.359L123.001 220.327C123.992 220.197 125.034 220.001 126.006 220.219C126.18 219.556 126.432 218.922 126.786 218.288C127.282 217.397 128.22 216.387 128.347 215.346C128.385 215.035 128.313 214.669 128.166 214.394L128.115 214.3C128.054 214.19 127.981 214.078 127.874 214.01C127.862 214.023 127.837 214.039 127.783 214.056C127.035 214.292 126.382 213.926 126.036 213.361C124.565 213.544 122.96 213.482 121.581 213.543L120.187 213.611C118.697 213.679 117.14 213.709 115.74 213.408C115.544 213.366 115.485 213.041 115.681 212.957C117.402 212.222 119.49 211.987 121.332 211.704C122.362 211.546 123.398 211.426 124.43 211.287C125.118 211.195 125.847 211.041 126.559 211.005C128.344 208.784 127.382 205.28 124.898 204.323C123.993 204.721 123.179 204.49 122.19 204.405C121.203 204.32 120.214 204.263 119.223 204.267C117.237 204.276 115.132 204.798 113.166 204.573C112.846 204.536 112.549 204.111 112.867 203.851C114.372 202.624 116.53 202.223 118.44 201.962L118.836 201.909C119.477 201.825 120.256 201.702 121.064 201.63C121.247 201.273 121.575 201.004 122.067 200.937C122.213 200.917 122.36 200.905 122.507 200.893L122.505 200.878C123.706 200.821 123.654 198.793 123.325 198.015ZM41.0984 235.946C41.0772 235.978 41.054 236.01 41.0293 236.04L40.9911 236.084L41.1886 236.003L41.0984 235.946ZM144.283 193.67C139.228 193.127 134.166 193.241 129.095 193.387C128.69 194.713 127.278 195.842 125.91 195.885C126.981 197.514 127.092 199.72 126.341 201.448C127.936 202.082 129.31 203.222 130.144 204.845C131.3 207.095 131.149 209.599 130.006 211.679C130.982 212.561 131.557 213.995 131.5 215.346C131.435 216.853 130.537 218.14 129.79 219.387C128.983 220.736 128.956 221.924 128.708 223.435C128.346 225.646 126.853 226.988 124.933 227.825L125.035 228.227C125.53 230.152 126.146 232.184 127.561 233.593C129.381 235.404 132.205 235.387 134.61 235.502L134.726 235.508C136.928 235.618 139.129 235.747 141.33 235.871L142.981 235.964C145.515 236.103 147.949 236.12 150.018 234.445C153.396 231.712 155.712 227.188 157.178 223.184C160.254 214.778 160.291 205.554 158.879 196.8C154.143 195.274 149.229 194.201 144.283 193.67ZM102.242 207.615L102.279 207.617C103.32 207.736 104.035 208.578 104.29 209.578C104.66 211.03 104.478 212.343 105.368 213.654C106.284 215.002 106.847 216.082 106.98 217.747C107.034 218.432 107.009 219.116 107.162 219.787L107.273 220.257C107.39 220.758 107.486 221.241 107.428 221.779C107.375 222.269 107.135 222.652 106.643 222.809C105.038 223.322 103.799 222.14 103.384 220.646C103.026 219.354 103.504 217.816 102.999 216.604C102.719 215.932 102.203 215.369 101.911 214.693C101.622 214.022 101.477 213.322 101.431 212.593C101.343 211.214 102.563 209.558 101.882 208.308C101.737 208.042 101.901 207.607 102.242 207.615ZM80.9245 193.387C82.0113 193.167 83.2442 192.661 84.3159 193.081C84.8668 193.298 85.139 193.969 84.6736 194.436C83.8655 195.245 82.691 195.29 81.6026 195.481L81.5068 195.498C80.2197 195.736 78.9305 195.962 77.6394 196.176C75.2105 196.578 72.7758 196.933 70.3326 197.236C67.8232 197.546 65.3068 197.822 62.7869 198.03L61.8114 198.11C59.6828 198.28 57.4679 198.409 55.3793 198.083C55.0758 198.035 55.1247 197.594 55.3793 197.516C57.6674 196.824 60.1773 196.639 62.5428 196.346C65.0577 196.034 67.5683 195.705 70.0724 195.314C72.5726 194.924 75.0694 194.505 77.557 194.042C78.6813 193.833 79.8039 193.615 80.9245 193.387ZM120.138 191.165C119.184 190.828 118.135 190.328 117.102 190.495C115.32 190.784 113.734 192.519 112.323 193.662L113.031 193.524C116.655 192.828 121.454 192.078 124.497 194.381C124.504 194.367 124.51 194.354 124.519 194.341C124.765 193.968 125.049 193.677 125.36 193.358C125.39 193.33 125.418 193.302 125.446 193.272L125.614 193.094L125.231 192.961C124.41 192.671 123.438 192.297 123.284 192.242L123.273 192.238C122.227 191.884 121.179 191.534 120.138 191.165ZM90.3617 115.248C90.2126 113.331 93.1979 113.347 93.3458 115.248C93.6684 119.399 92.7338 123.51 90.7221 127.149C90.7074 127.176 90.6911 127.199 90.6755 127.224C91.9337 127.878 93.2062 128.506 94.507 129.067C96.171 129.785 97.8663 130.439 99.5919 130.994C101.153 131.495 103.076 131.694 104.388 132.738C107.156 134.94 106.116 139.511 105.584 142.473L105.501 142.941C105.236 144.466 105.044 146.03 105.687 147.493C106.374 149.056 107.762 150.215 109.001 151.333L109.252 151.56C110.349 152.559 111.603 153.773 112.408 155.128C113.143 153.609 114.145 152.369 115.204 150.972C115.96 149.975 115.422 149.646 114.879 148.672C114.356 147.735 114.101 146.736 114.265 145.666C114.566 143.691 116.146 142.265 117.718 141.193C119.574 139.928 121.646 138.99 123.565 137.813C127.509 135.395 131.349 132.63 134.809 129.559C134.905 129.475 135.07 129.586 134.994 129.702C132.26 133.857 129.056 137.447 125.117 140.494C123.52 141.73 121.842 142.755 120.153 143.832L119.667 144.144C118.989 144.583 118.143 145.17 117.837 145.917C117.528 146.669 118.186 147.236 118.54 147.859C119.665 149.837 119.122 151.682 117.789 153.359L117.727 153.436C116.402 155.068 115.398 156.585 114.918 158.67C113.886 163.148 115.323 167.812 116.828 172.016L116.887 172.182C117.701 174.448 118.566 176.697 119.273 178.999L119.468 179.636C120.108 181.754 120.633 183.843 119.914 186.021C119.67 186.762 118.659 186.937 118.239 186.24C116.758 183.781 116.389 180.823 115.461 178.12C114.556 175.486 113.517 172.9 112.643 170.255C111.518 166.849 110.764 163.184 111.173 159.612C111.161 159.591 111.148 159.571 111.138 159.549L110.851 158.923C110.07 157.227 109.316 155.746 107.895 154.395C106.413 152.985 104.805 151.737 103.639 150.03C101.106 146.322 102.673 142.198 102.979 138.144L103.014 137.647C103.069 136.805 103.1 135.661 102.549 135.079C101.931 134.423 100.479 134.256 99.6584 133.965C97.5365 133.215 95.4454 132.34 93.4538 131.29C91.558 130.291 89.7216 129.187 88.0118 127.893L87.1451 127.242C85.7777 126.211 84.3598 125.085 83.4434 123.681C83.3376 123.519 83.5173 123.259 83.7088 123.336C85.2387 123.957 86.6365 124.943 88.0679 125.802C88.0902 125.75 88.116 125.697 88.1453 125.644C89.9163 122.441 90.6447 118.892 90.3617 115.248ZM139.232 137.195C139.841 135.524 142.619 135.653 142.509 137.638C142.424 139.163 141.776 140.54 141.184 141.924L141.12 142.072C140.509 143.515 139.803 144.869 138.957 146.191C137.343 148.719 135.451 151.065 133.431 153.278C131.599 155.285 129.195 156.512 126.425 156.308C125.257 156.222 124.079 155.926 123.056 155.343C121.841 154.651 120.522 152.572 118.972 153.075C118.822 153.124 118.682 152.904 118.812 152.8C120.601 151.36 122.632 153.593 124.345 154.131C126.927 154.942 129.576 154.046 131.237 151.96C132.972 149.783 134.568 147.344 136.026 144.974C136.767 143.77 137.442 142.52 138.025 141.233C138.614 139.933 138.748 138.52 139.232 137.195ZM135.071 126.914C134.996 126.684 135.282 126.464 135.485 126.596C136.661 127.361 137.68 128.372 138.764 129.258C139.968 130.24 141.18 131.203 142.411 132.151C144.205 133.534 142.124 136.079 140.544 134.569C138.383 132.503 136.016 129.802 135.071 126.914ZM128.616 118.829C129.093 116.988 131.918 117.747 131.507 119.566L131.493 119.622C130.714 122.627 131.824 125.686 134.195 127.634L134.282 127.705C135.782 128.904 133.657 131.002 132.172 129.814C128.93 127.22 127.581 122.816 128.616 118.829Z" fill="black"/>
<path fill-rule="evenodd" clip-rule="evenodd" d="M152.938 60.2275C152.009 52.8077 149.093 44.93 146.026 38.0127C139.13 23.3877 123.341 21.3741 109.187 18.3587C95.22 16.3222 80.4298 14.4834 66.6734 18.5466C58.9398 20.444 55.9192 29.6686 57.1397 36.948C57.8363 41.4841 59.8979 45.7773 61.6559 49.9812C65.1502 58.6146 67.3672 67.8574 67.3709 77.2046C67.1311 83.3131 66.2702 90.2852 73.2792 92.8725C79.9489 96.1942 80.5124 105.199 88.8637 110.308C92.2407 117.158 101.439 117.761 108.06 119.35C112.245 120.153 116.476 120.743 120.72 121.124C133.007 122.701 142.836 119.135 149.268 108.173C153.572 101.502 156.777 93.799 155.985 85.7138C155.197 77.1996 153.883 68.7301 152.938 60.2275Z" fill="#EDB98A"/>
<path fill-rule="evenodd" clip-rule="evenodd" d="M109.293 0.584367C109.994 -0.211688 111.075 0.0613455 111.731 0.690825C112.158 0.816821 112.571 1.00419 112.962 1.25217C113.845 1.1387 114.77 1.1387 115.636 1.17051C115.846 1.05253 116.072 0.947577 116.317 0.8574C118.067 0.216398 119.618 0.542035 120.897 1.40021C121.513 0.816571 122.29 0.450355 123.283 0.505714C124.17 0.555311 124.802 0.973126 125.343 1.52345C125.883 0.743678 126.756 0.187342 127.843 0.109941C129.363 0.00172926 130.824 0.612171 132.035 1.55727C132.741 0.746684 133.703 0.280774 134.775 0.276265C135.48 0.148015 136.225 0.198614 136.897 0.402011C137.873 0.697338 138.731 1.25067 139.414 1.96882C140.494 0.932798 141.816 0.187342 143.341 0.296054C145.314 0.438833 146.95 1.89192 147.71 3.68041C149.046 4.21621 150.279 4.98045 151.309 6.07008C151.364 6.12744 151.417 6.18756 151.472 6.24793C152.027 6.45308 152.55 6.7439 153.01 7.1269C154.468 8.34202 154.793 10.1005 154.311 11.8236C154.378 12.0994 154.436 12.3799 154.488 12.6602C155.854 12.8681 157.094 13.6574 157.8 14.9424C158.765 16.7059 158.575 19.0301 157.529 20.7137C157.08 21.4378 156.51 22.048 155.869 22.5816C156.593 24.2298 156.246 26.1966 155.077 27.5297C154.793 27.9894 154.443 28.4042 154.05 28.7797C154.484 30.4838 153.712 32.242 152.172 33.1525L152.04 33.4828C152.018 33.5377 151.995 33.5923 151.972 33.6464C151.955 33.7166 151.934 33.7845 151.913 33.8529C151.877 34.4575 151.678 35.0509 151.283 35.61C150.475 36.7558 149.474 37.503 148.942 38.8406L148.889 38.9811C148.661 39.6141 147.924 40.0607 147.295 39.8653C150.784 47.0396 152.612 55.0225 153.868 62.8457C154.494 66.7487 154.977 70.665 155.369 74.5965L155.753 78.5115C156.091 81.9914 156.392 85.4828 156.394 88.9743C156.399 96.8724 154.143 104.47 149.301 110.755C144.721 116.696 138.241 121.002 130.92 122.698C123.362 124.446 114.496 123.757 107.718 119.754C105.72 118.577 107.47 115.747 109.504 116.694C113.353 118.487 117.265 119.82 121.531 120.118C125.691 120.411 129.86 119.89 133.804 118.527C140.33 116.27 145.882 111.544 149.451 105.657C151.209 102.756 152.482 99.6078 153.16 96.281C154.004 92.1347 153.877 87.8491 153.567 83.6497L153.545 83.3635C152.933 75.2725 152.125 67.1316 150.819 59.1212C149.665 52.0376 147.891 45.0976 145.587 38.3111C144.684 37.5155 143.675 36.8572 142.595 36.3572C134.685 36.0263 126.76 36.123 118.86 36.6696C112.123 37.1388 105.418 37.9326 98.764 39.0895L98.0512 39.2148C96.5781 39.4776 94.9424 39.6279 93.5543 40.2218C92.3638 40.7328 91.881 41.7147 91.5809 42.9218C90.8256 45.9753 90.7105 49.3171 90.583 52.4482C90.4579 55.5089 90.7405 58.5952 90.4954 61.6459C90.2878 64.1984 89.6351 66.811 87.7468 68.6573C86.7588 69.624 85.5433 70.1525 84.4028 70.8864C83.665 71.3601 83.3523 71.8483 83.4474 72.725C83.6525 74.6438 85.1956 77.061 83.4624 78.7042C83.1573 78.9923 82.6295 79.0298 82.3294 78.7042C81.6141 77.9254 80.6262 77.3315 79.7783 76.7028C79.4231 76.4425 79.7183 75.9365 80.1209 76.1166C80.6512 76.3549 81.1914 76.6354 81.7441 76.8809C80.5236 75.8739 78.7879 75.3802 77.3422 75.0871C76.6144 74.9419 75.8491 74.8993 75.0913 74.9672C74.531 75.2349 73.9583 75.4832 73.3855 75.7259C72.6577 76.0317 71.9224 76.3095 71.1821 76.5728C68.6135 78.6691 67.3879 82.0785 67.9232 85.4126C68.2158 87.2534 69.0637 89.2551 70.6618 90.3297C72.5552 91.6021 75.0913 91.0558 77.1372 92.0004C79.053 92.8844 80.2185 94.6706 81.0914 96.5192L81.4553 97.2889C82.2654 98.9929 83.0982 100.652 84.2052 102.203C85.4858 103.999 87.054 105.612 88.7647 106.997C89.5946 107.668 90.4792 108.271 91.3934 108.82L91.6434 108.969C92.5688 109.512 93.2316 110.03 93.2942 111.18C93.3142 111.581 93.0616 111.947 92.7364 112.155C91.3358 113.044 89.9427 111.932 88.7772 111.155C87.5192 110.318 86.3161 109.377 85.2031 108.35C83.0872 106.401 81.2564 104.087 79.8483 101.574C78.7754 99.6604 78.1651 96.9676 76.4694 95.4847C75.4339 94.5802 73.9708 94.573 72.6777 94.4074C71.4747 94.2523 70.3367 94.0018 69.2662 93.4082C64.9119 90.9859 63.6813 85.122 64.7143 80.5906C64.8893 79.8264 65.1344 79.0824 65.4371 78.366C63.8164 78.6366 61.9956 76.9585 62.6534 75.265C62.7034 75.1372 62.7609 75.0173 62.8159 74.8943C61.748 74.1904 60.9051 73.1236 60.5049 71.7281C60.2999 71.0067 60.2698 70.2777 60.3774 69.5739C59.8597 69.2259 59.432 68.7473 59.1569 68.1586C58.2965 67.7603 57.5337 67.1644 57.0785 66.3127C56.4482 65.1377 56.5282 64.0556 57.0084 63.0812C56.9409 62.9587 56.8759 62.8335 56.8133 62.7055C55.0501 61.586 53.8195 59.657 53.9596 57.5178C54.0046 56.8089 54.1797 56.1702 54.4498 55.5943C54.4273 55.5217 54.4048 55.4463 54.3848 55.3736C52.9091 54.6222 51.6886 53.3875 51.2534 51.7393C50.8182 50.0808 51.331 48.4276 52.3564 47.1551C50.8558 46.0557 49.9529 44.5202 50.5006 42.1979C50.7232 41.2538 51.1709 40.3944 51.7762 39.6705C51.7737 39.6482 51.7687 39.6256 51.7637 39.6028L51.6233 39.4938C49.7707 38.0297 48.7057 36.1639 49.8428 33.8691C50.353 32.8374 51.0809 32.1182 51.9362 31.6448L51.9787 31.5095C51.366 30.1945 51.1584 28.7341 51.5811 27.1986C51.9262 25.9339 52.7441 24.9267 53.7895 24.2581C53.7195 23.6918 53.7295 23.0883 53.8421 22.4343C54.0296 21.3299 54.5774 20.3655 55.3777 19.6817C55.4077 19.5361 55.4452 19.3936 55.4878 19.2506C55.7579 18.3766 56.2631 17.4273 56.8484 16.7231C57.3311 16.1395 57.8713 15.9266 58.5316 15.904C58.4916 15.3657 58.5191 14.8194 58.6291 14.2658C58.9668 12.5578 60.0522 10.9519 61.6604 10.2229C62.3207 9.92486 63.016 9.83744 63.6863 9.90983C64.2566 8.70748 65.3696 7.83603 66.7376 7.64816C67.2704 7.57302 67.7656 7.57778 68.2208 7.64566C68.4784 7.52517 68.746 7.41771 69.0261 7.31977C69.2112 7.25465 69.3988 7.19453 69.5864 7.13466C70.2192 6.34812 71.052 5.71915 72.0249 5.34116C73.1479 4.9028 74.2909 4.94764 75.3039 5.31586L75.6265 5.24823C76.1317 4.37151 76.9371 3.69269 78.1751 3.38459C79.5807 3.03641 81.0238 3.52236 82.1293 4.40683C82.1343 4.40683 82.1393 4.40683 82.1468 4.40408C82.7246 3.10905 83.7125 2.20729 85.3707 2.26991C86.4037 2.30999 87.3366 2.82374 88.0569 3.55517C88.4571 3.50482 88.8572 3.45973 89.2599 3.4149C89.6851 2.91617 90.1578 2.45051 90.6805 2.03219C91.5359 1.3456 92.6489 1.40096 93.2791 2.3676C93.4167 2.57801 93.5443 2.79093 93.6718 3.00384L94.2496 2.96376C94.9299 2.04447 95.8578 1.42326 97.1283 1.37341C98.2938 1.32556 99.1242 1.89693 99.757 2.69574C100.272 2.68322 100.79 2.67345 101.308 2.66568C101.91 1.96682 102.621 1.35061 103.431 0.839616C104.051 0.448852 104.967 0.581862 105.469 1.10288C105.809 1.45707 106.125 1.82679 106.419 2.20954C107.177 1.35888 108.2 0.798536 109.293 0.584367ZM72.4826 80.1271C73.6506 79.4608 75.2213 80.1822 76.3518 80.7483C77.7299 81.4372 79.098 82.4767 79.9409 83.7793C81.0889 85.5527 78.3902 86.9855 77.1822 85.3949C76.4394 84.4155 75.8466 83.4286 74.9462 82.5719C74.1233 81.7854 72.9303 81.2593 72.4576 80.2223C72.4401 80.1872 72.4451 80.1472 72.4826 80.1271ZM73.3032 37.0803L73.325 37.0178C73.6571 36.1078 72.2075 35.7155 71.8781 36.618C71.3789 37.9859 71.9544 39.4731 73.3035 40.0637C73.6774 40.2276 74.1046 40.1707 74.3299 39.7942C74.5193 39.4773 74.4315 38.9283 74.0608 38.7662C73.3017 38.4338 73.0475 37.847 73.3032 37.0803ZM60.8148 34.5357C61.5404 33.8944 60.4757 32.8346 59.7536 33.4731C59.0798 34.0688 58.5801 34.8778 58.7099 35.8084C58.8422 36.7568 59.5563 37.4263 60.3379 37.8995C61.1662 38.4012 61.9213 37.1022 61.0952 36.6017L61.0024 36.5449C60.6556 36.3292 60.2497 36.0326 60.1911 35.6083C60.1288 35.1574 60.5097 34.8055 60.8148 34.5357ZM64.9335 23.2206L64.9849 23.1828C65.7642 22.6257 65.0156 21.3216 64.2273 21.885C63.5045 22.4017 62.9247 23.073 62.8637 23.9988C62.8044 24.8986 63.2616 25.6786 63.8594 26.3116C64.5244 27.0157 65.5844 25.9517 64.9206 25.249C64.2738 24.5642 64.1474 23.817 64.9335 23.2206Z" fill="black"/>
<path fill-rule="evenodd" clip-rule="evenodd" d="M122.344 92.8478C123.746 90.5428 126.735 96.1893 127.052 97.1602C127.334 98.0203 127.519 98.9013 127.614 99.7926C128.701 100.036 129.829 100.037 130.943 99.8232C132.599 99.5057 133.611 98.6163 135.049 97.8527C136.043 97.3249 137.295 97.9438 137.812 98.819C138.42 99.8491 138.033 100.918 137.233 101.686C135.717 103.143 132.734 103.477 130.755 103.09C129.621 102.869 128.582 102.444 127.664 101.826C127.658 101.942 127.654 102.057 127.645 102.172L127.628 102.372C127.475 103.987 127.031 106.018 125.776 107.069C123.717 108.793 121.176 105.477 123.177 103.755L123.239 103.703C124.482 102.699 124.754 100.005 124.687 98.5214C124.643 97.5529 124.466 96.5721 124.16 95.6497L124.097 95.466C124.005 95.2054 123.001 92.7337 122.638 93.0485L122.621 93.0663C122.471 93.2448 122.229 93.0368 122.344 92.8478ZM133.539 79.8412C135.431 80.9909 138.315 83.6719 136.279 86.5223C133.883 89.0356 130.432 86.1539 128.732 84.8507C127.155 83.8406 125.383 86.4384 126.846 87.6178C139.133 96.7093 144.12 80.1418 134.496 78.4893C133.437 78.3072 133.043 79.4855 133.539 79.8412ZM113.329 69.2137C115.178 68.8858 117.073 69.3454 118.604 70.427L118.72 70.5104C120.194 71.5883 121.844 73.4808 120.998 75.3386C120.658 76.0846 119.641 76.2016 118.996 75.8634C117.921 75.3003 117.727 73.9149 116.768 73.1481C115.982 72.5196 114.923 72.1384 113.911 72.2303C111.532 72.4462 110.069 74.7911 109.33 76.8118C109.235 77.0703 108.855 77.1707 108.707 76.8932C106.965 73.6388 110.049 69.7953 113.329 69.2137ZM142.957 67.9855C146.5 67.6937 150.647 71.3649 149.714 75.1027C149.267 76.8962 146.605 76.8448 146.132 75.1027C145.871 74.1441 145.897 73.2959 145.207 72.4998C144.637 71.8426 143.827 71.4608 142.957 71.5194C141.997 71.5841 141.112 72.0632 140.44 72.7368C139.832 73.345 139.469 74.235 138.84 74.7733C138.685 74.9055 138.478 74.9141 138.325 74.7733C137.242 73.7756 137.892 71.6985 138.579 70.657C139.561 69.1666 141.161 68.1336 142.957 67.9855ZM106.581 62.5844C108.854 60.5735 112.984 58.6315 116.05 59.6211C117.812 60.19 118.58 63.0278 116.613 63.9273C114.335 64.9688 111.708 64.545 109.39 65.6246C108.416 66.0783 107.5 66.6451 106.822 67.4765C106.288 68.1318 105.745 68.9939 104.972 69.3717C104.769 69.4711 104.494 69.4736 104.331 69.2893C102.638 67.375 105.103 63.8922 106.581 62.5844ZM139.05 59.5213C140.454 59.1273 142.013 59.1353 143.44 59.3828C144.867 59.6303 146.315 60.2212 147.48 61.0831L147.615 61.184C148.887 62.1416 150.404 63.5349 150.323 65.2312C150.255 66.6477 148.764 67.6059 147.476 66.8634C146.427 66.258 145.933 65.0451 145.045 64.2375C144.312 63.571 143.45 63.0455 142.532 62.6772C141.511 62.2682 140.489 62.0766 139.393 62.0583C138.55 62.0442 137.701 62.3208 136.874 62.4092C136.942 62.549 136.288 62.4839 135.913 62.3599C135.635 62.2416 135.634 61.8907 135.73 61.663C136.207 60.535 137.945 59.8309 139.05 59.5213Z" fill="black"/>
<path fill-rule="evenodd" clip-rule="evenodd" d="M155.97 81.3672C152.927 84.5096 147.847 85.4114 143.799 83.7261C133.403 79.3853 138.491 65.8464 146.509 62.2106C147.51 61.9611 148.848 61.3692 150.068 61.2349C150.178 61.1808 150.418 61.3374 150.709 61.1893C159.549 62.1757 161.562 75.8905 155.97 81.3672ZM122.44 82.1715C119.027 86.6956 112.682 88.0914 107.498 85.9882C97.2566 81.9574 100.889 69.9517 107.896 65.245C122.698 59.6864 128.81 73.83 122.44 82.1715ZM100.239 72.1475C100.229 72.143 100.22 72.1407 100.21 72.1362C100.264 72.1124 100.318 72.0886 100.372 72.0643C100.355 72.1101 100.336 72.1555 100.319 72.2013C100.292 72.183 100.269 72.1617 100.239 72.1475ZM163.016 67.2572C162.18 67.2589 160.973 67.3962 160.282 67.9756C158.576 62.2261 152.279 56.9049 146.803 60.785C142.491 62.171 139.291 65.2447 137.473 69.3312C134.194 67.3819 129.037 68.2143 126.194 70.7921C124.332 64.6423 119.749 62.4889 114.293 62.171C108.339 61.1963 102.405 66.9754 100.553 71.6114C99.0133 71.4363 96.7127 70.9466 95.2643 71.8962C85.8636 69.4324 69.4281 68.074 67.517 69.4429C66.155 69.9652 65.4076 73.178 67.31 73.3513C68.9677 73.1161 67.1165 70.9972 68.7875 70.766C77.6908 70.2144 86.3341 72.0064 95.1432 72.7584C95.9297 73.8157 98.4709 74.1694 99.8266 73.7446C97.6915 81.6089 102.301 86.9594 109.207 88.562C119.901 91.0171 129.205 81.4564 126.408 71.512C129.648 69.9013 133.374 69.9705 136.903 70.8189C131.006 92.5087 165.959 91.5356 160.5 68.7188C164.133 70.5248 164.922 67.6216 163.016 67.2572Z" fill="black"/>
</svg>
