<svg width="182" height="284" viewBox="0 0 182 284" fill="none" xmlns="http://www.w3.org/2000/svg">
<path fill-rule="evenodd" clip-rule="evenodd" d="M169.202 183.585C168.441 181.494 169.553 179.409 170.17 177.386C172.36 170.37 166.368 152.675 162.177 152.417C160.644 148.45 156.554 146.804 153.334 144.52C149.681 142.239 146.127 139.619 142.327 137.619C142.116 135.729 139.825 135.261 138.425 136.613C134.578 134.219 129.965 134.663 125.841 133.095C122.708 128.029 122.472 122.701 121.643 117.813C121.281 115.683 121.665 113.627 120.21 111.727C115.321 104.849 96.0041 101.867 88.8819 105.943C85.0481 103.551 84.9558 107.883 84.3468 110.556C83.67 111.894 83.3039 113.409 83.4171 115.005C81.602 118.797 80.0631 123.54 76.2488 126.373C71.4089 129.967 63.9626 131.333 59.2439 133.095C58.5382 132.416 58.0775 131.585 57.8618 130.603C50.5485 132.194 43.4505 134.989 37.3231 139.355C30.3617 141.391 25.459 147.055 21.9138 153.128C21.5231 153.768 21.431 154.421 21.5452 155.021C10.6433 171.007 5.44009 190.145 4.70924 209.474C-2.30144 213.683 8.04143 251.493 10.4492 259.343C10.4516 259.342 10.454 259.341 10.4564 259.34C12.0185 262.106 13.792 270 17.7012 269.39C20.3828 272.423 24.6561 271.826 28.2951 272.059C27.7024 274.334 27.9937 276.936 28.6991 279.183C29.5334 281.858 33.6277 281.949 34.2083 279.032C70.4464 286.075 107.628 280.456 144.274 281.513C154.869 281.588 165.464 281.916 176.034 282.671C177.522 282.777 179.031 281.256 178.93 279.774C176.657 255.588 174.523 223.772 171.982 199.823C171.379 194.361 170.902 188.839 169.202 183.585Z" fill="#EDB98A"/>
<path fill-rule="evenodd" clip-rule="evenodd" d="M57.8618 130.604C57.8737 130.658 57.8863 130.711 57.8997 130.764L57.7611 131.079C56.8832 133.104 56.4442 134.782 56.4442 136.11C56.4442 139.14 69.9231 169.119 99.826 166.364C119.761 164.527 131.913 155.468 136.28 139.185L136.535 135.667C137.181 135.923 137.813 136.232 138.425 136.613C139.825 135.261 142.116 135.73 142.327 137.619C146.127 139.619 149.681 142.239 153.334 144.52L153.557 144.677C156.74 146.882 160.679 148.541 162.177 152.417L162.776 152.455C166.779 152.718 172.36 170.371 170.17 177.386C169.553 179.409 168.441 181.495 169.202 183.586C170.902 188.84 171.379 194.361 171.982 199.823C174.523 223.772 176.657 255.588 178.93 279.774C179.031 281.256 177.519 282.535 176.034 282.672C145.282 285.493 29.5334 283.313 28.6991 280.638C27.9937 278.391 27.7024 274.334 28.2952 272.06C24.6562 271.827 20.3828 272.423 17.7013 269.39C13.7921 270.001 12.0185 262.107 10.4565 259.34L10.4492 259.344C8.04149 251.494 -2.30138 213.683 4.7093 209.474C5.44014 190.145 10.6433 171.007 21.5452 155.021C21.4359 154.447 21.5159 153.823 21.8665 153.209L21.9138 153.129C25.459 147.056 30.3617 141.392 37.3232 139.355C43.4506 134.99 50.5485 132.194 57.8618 130.604ZM146.422 181.213C144.857 179.999 132.561 182.427 123.626 184.609C117.668 186.064 113.519 188.031 111.176 190.51L100.69 202.023L98.0369 203.739C98.0369 207.323 98.2416 211.092 98.6509 215.047C99.0602 219.001 100.864 223.185 104.062 227.6C113.487 225.01 119.122 223.54 120.968 223.19C123.737 222.666 125.931 218.118 127.233 216.554C128.534 214.991 133.526 214.817 137.33 213.613C139.866 212.81 141.629 210.759 142.621 207.459C148.163 206.263 151.827 205.465 153.612 205.065C155.397 204.666 155.397 203.652 153.612 202.023L132.856 201.297C141.14 199.526 146.17 198.518 147.944 198.274C150.606 197.908 157.756 195.688 157.756 193.967C157.756 192.281 146.871 192.312 141.069 192.314L140.602 192.314C136.793 192.321 130.72 192.678 122.384 193.385L127.233 191.062C138.171 188.944 144.369 187.884 145.828 187.884C147.286 187.884 148.32 186.792 148.928 184.609C148.301 183.154 147.466 182.022 146.422 181.213Z" fill="#FFCF77"/>
<path fill-rule="evenodd" clip-rule="evenodd" d="M132.994 181.615L143.645 157.48C144.718 154.747 146.165 153.38 147.987 153.38C149.809 153.38 158.98 153.639 175.501 154.156C178.881 154.588 180.026 155.696 178.934 157.48C177.843 159.265 169.18 176.764 152.948 209.976H142.621V207.459L154.118 204.244C155.513 202.763 155.123 202.023 152.948 202.023C150.772 202.023 143.358 201.781 130.703 201.296L148.803 198.64L157.756 195.195L156.439 193.385L148.803 192.294L123.935 193.385L130.703 191.095L145.828 187.884C147.811 186.487 148.803 185.103 148.803 183.733C148.803 182.363 146.146 181.415 140.834 180.888L132.994 181.615Z" fill="white"/>
<path fill-rule="evenodd" clip-rule="evenodd" d="M84.9445 107.436C85.0485 107.152 85.4721 107.19 85.4801 107.508C85.647 114.308 83.9546 122.618 78.5149 127.212C75.7226 129.57 72.0309 130.649 68.6405 131.889L68.2581 132.03L62.2683 134.262C60.6797 134.854 58.9659 135.765 57.5626 134.928C58.6982 137.745 59.6515 140.64 61.0344 143.354C62.7559 146.734 64.8372 149.826 67.3845 152.638C77.4763 163.779 93.4479 167.177 107.781 163.913C115.161 162.232 122.343 159.046 127.378 153.235C131.205 148.819 133.404 142.891 133.922 137.044C133.77 137.068 133.611 137.067 133.448 137.031C131.635 136.635 129.804 135.663 128.208 134.709L128.055 134.617C126.519 133.693 124.919 132.633 123.817 131.197C123.088 130.245 122.34 128.219 121.574 125.116C121.262 123.367 120.968 119.883 121.018 118.115C121.023 117.949 121.763 117.85 121.842 118.024C122.525 119.524 122.746 122.822 123.274 124.384L123.38 124.696C123.944 126.327 124.427 128.313 125.595 129.632C127.789 132.108 131.098 133.156 134.051 134.398C134.264 131.599 138.732 131.665 138.675 134.583C138.672 134.742 138.665 134.899 138.66 135.057C139.012 135.251 139.351 135.473 139.668 135.686L139.977 135.896C141.147 136.692 142.326 137.449 143.571 138.124C145.983 139.432 148.537 140.469 151.008 141.656C153.508 142.857 155.846 144.288 158.029 146.001C159.055 146.805 160.038 147.661 160.97 148.572L161.223 148.821C162.111 149.705 163.266 150.694 163.772 151.856C163.883 152.113 164.441 152.708 164.744 152.728C169.44 153.036 174.125 153.471 178.791 154.123C179.999 154.292 180.476 154.915 180.03 155.922C178.495 159.383 172.488 173.205 170.891 176.915C171.078 179.64 170.826 182.848 170.994 185.574C171.24 189.552 171.562 193.529 171.948 197.495C173.329 211.685 175.423 225.806 177.315 239.934C178.262 247.004 179.125 254.086 179.978 261.168C180.408 264.747 180.773 268.33 181.054 271.924C181.171 273.422 181.278 274.921 181.371 276.42L181.452 277.75C181.563 279.424 181.819 281.022 180.784 282.459C180.315 283.11 179.243 283.477 178.626 282.737C177.85 281.806 177.561 281.111 177.487 279.889C177.43 278.953 177.417 278.013 177.374 277.076C177.282 275.046 177.166 273.016 177.031 270.988C176.76 266.934 176.451 262.88 176.093 258.832C174.838 244.638 172.454 230.551 170.868 216.393C170.068 209.255 169.5 202.103 169.199 194.926C169.049 191.342 168.994 187.758 169.03 184.17C169.043 182.83 169.107 181.496 169.198 180.166C166.822 185.567 164.323 190.916 161.711 196.194L161.092 197.444C159.436 200.78 157.736 204.128 155.747 207.273L155.405 207.809C154.599 209.087 153.497 211.101 152.028 211.504C151.004 211.785 149.753 211.587 148.703 211.567C147.661 211.547 146.618 211.543 145.577 211.501C144.409 211.454 143.295 211.3 142.167 210.996C141.979 210.945 141.802 210.89 141.64 210.821C140.503 212.682 138.571 214.099 136.596 214.925C135.014 215.587 133.356 216.04 131.695 216.46L131.109 216.607C129.328 217.051 127.291 217.262 126.287 218.982L126.054 219.381C125.307 220.65 124.591 221.764 123.355 222.674C122.025 223.653 120.449 224.269 118.879 224.749C117.272 225.239 115.627 225.615 113.995 226.017L113.55 226.128C112.473 226.398 111.386 226.645 110.315 226.939C109.858 227.064 109.393 227.193 108.945 227.347C108.42 227.527 108.038 227.809 107.624 228.116C107.252 229.416 105.661 230.123 104.353 230.032C103.666 229.984 103.05 229.751 102.489 229.409C101.511 230.243 100.433 230.99 99.4352 231.762C98.0383 232.843 96.6357 233.916 95.2254 234.98C92.3175 237.173 89.3875 239.336 86.4271 241.457C81.1723 245.222 75.8038 248.814 70.3435 252.273C68.0669 253.715 65.775 255.155 63.4606 256.561L63.7076 256.652L64.1975 256.838C65.3555 257.27 66.6459 257.969 66.8703 259.32C67.0482 260.392 66.4496 261.131 65.3916 261.262C64.1342 261.417 63.1557 260.529 62.3728 259.68C62.0272 259.306 61.6405 258.959 61.3095 258.573C61.1745 258.416 61.0708 258.235 60.9794 258.045C58.6954 259.391 56.387 260.692 54.042 261.909L53.455 262.211C47.64 265.186 41.98 268.445 36.1155 271.335C34.5857 272.089 32.7206 272.904 30.7764 273.461C31.2923 275.461 31.2843 277.657 31.2974 279.688C31.3097 281.666 28.1666 281.657 28.233 279.688L28.2649 278.737C28.3222 277.138 28.4157 275.478 28.7949 273.922C23.0667 274.872 17.3443 272.807 16.2789 272.187C15.1029 271.503 14.0354 270.408 13.1471 269.392C11.246 267.219 9.92684 264.613 8.75641 261.992C6.24933 256.379 4.47309 250.379 3.17448 244.378C-1.61312 222.255 0.446153 198.576 8.22112 177.368C10.1636 172.069 12.4569 166.887 15.0849 161.893L15.4113 161.276C18.0337 156.337 20.9484 151.416 24.6507 147.213C28.507 142.836 33.2641 139.431 38.4435 136.788C40.9712 135.499 43.5721 134.381 46.2304 133.391C46.6573 133.231 47.0872 133.089 47.5181 132.953C50.2883 131.186 53.6503 129.496 57.0135 129.562C57.242 129.566 57.4272 129.653 57.5653 129.784C57.7274 129.812 57.8895 129.847 58.0519 129.894C58.4103 129.998 58.7888 130.391 58.7374 130.794L58.72 130.929C58.7105 130.994 58.6986 131.058 58.6781 131.119C58.7982 131.137 58.9163 131.166 59.0318 131.205C62.2497 130.296 65.4156 128.906 68.5557 127.785L69.2708 127.532C71.9007 126.61 74.5988 125.707 76.7561 123.882C78.9024 122.067 80.5163 119.716 81.6831 117.174C83.1205 114.043 83.7642 110.65 84.9445 107.436ZM149.369 272.594C150.006 272.12 150.759 272.67 150.997 273.257C151.78 275.183 151.393 278.176 150.29 279.878C149.147 281.643 146.41 280.946 146.344 278.809C146.275 276.581 147.57 273.933 149.369 272.594ZM155.95 219.412C156.007 219.162 156.396 219.164 156.454 219.412C156.984 221.672 156.972 224.106 157.127 226.423L157.146 226.68C157.332 229.235 157.489 231.798 157.601 234.357C157.821 239.393 158.084 244.429 158.378 249.462C158.524 251.957 158.681 254.452 158.848 256.947C159.371 256.655 159.909 256.399 160.468 256.173C161.304 255.835 162.119 255.796 163.018 255.805C164.112 255.816 164.936 256.779 164.791 257.852C164.633 259.02 163.605 259.521 162.537 259.354C161.355 259.169 160.167 258.882 158.973 258.763C159.106 260.692 159.244 262.62 159.389 264.547C159.583 267.098 159.834 269.647 160.011 272.199C160.028 272.442 160.046 272.686 160.065 272.931C160.777 272.56 161.533 272.371 162.39 272.137L162.613 272.075C163.857 271.717 165.188 271.223 166.339 272.06C167.113 272.623 167.268 273.549 166.627 274.291C165.655 275.417 164.216 275.198 162.873 275.141L162.151 275.114C161.47 275.088 160.842 275.044 160.212 274.872C160.328 276.535 160.389 278.204 160.185 279.842C160.075 280.728 158.909 280.96 158.601 280.057C157.795 277.696 157.629 275.15 157.334 272.677C157.058 270.367 156.891 268.041 156.711 265.721L156.656 265.026C156.25 259.922 155.926 254.816 155.689 249.701C155.452 244.588 155.309 239.476 155.253 234.357C155.227 232.033 155.265 229.701 155.356 227.377L155.385 226.68C155.49 224.29 155.417 221.754 155.95 219.412ZM49.4668 272.971C49.4978 272.644 49.7593 272.238 50.1482 272.289C50.5066 272.335 50.8759 272.313 51.2304 272.372C51.6984 272.45 52.0749 272.726 52.5101 272.901C53.2175 273.183 53.9886 273.33 54.7143 273.561C56.0759 273.996 56.8179 275.43 56.254 276.769C55.6611 278.176 54.171 278.496 52.8836 277.905C51.8687 277.44 51.1123 276.695 50.4299 275.834L50.2366 275.589C49.9425 275.219 49.6088 274.806 49.4854 274.357C49.3655 273.921 49.4246 273.415 49.4668 272.971ZM115.621 266.353C117.317 266.114 118.765 266.694 120.334 267.241L120.462 267.285C122.059 267.836 124.39 268.218 125.208 269.854C125.702 270.84 125.318 272.149 124.156 272.441C122.316 272.903 120.665 271.557 119.143 270.651L119.063 270.604C117.594 269.743 116.078 269.019 115.14 267.535C114.89 267.139 115.107 266.425 115.621 266.353ZM56.4162 131.43C55.7367 131.582 55.0573 131.716 54.3785 131.846C51.7965 133.23 49.2904 134.667 46.6246 135.9C43.7962 137.209 40.9782 138.561 38.2916 140.144C32.8638 143.342 28.3893 147.501 24.6919 152.599C18.3052 161.404 13.5544 171.559 10.1544 181.863C9.2808 184.51 8.49906 187.187 7.80747 189.886C9.03024 188.755 10.4779 188.059 12.1012 187.464C12.7892 187.211 13.6455 187.639 13.9942 188.234C14.151 188.502 14.2395 188.767 14.2232 189.081C14.1871 189.773 13.7364 190.561 12.9925 190.698C11.2582 191.017 9.57183 191.64 7.89955 192.188C7.64608 192.271 7.42823 192.239 7.25424 192.142C5.59408 199.176 4.55548 206.355 4.18764 213.578C3.87649 219.692 4.06841 225.855 4.74547 231.961C5.26574 231.727 5.77462 231.508 6.34505 231.375C7.08486 231.203 7.81256 230.993 8.5342 230.757C10.6167 230.073 11.5666 233.512 9.43807 234.037C8.64591 234.232 7.84891 234.394 7.04173 234.512C6.33826 234.615 5.71597 234.57 5.05273 234.462C5.55943 238.271 6.25151 242.053 7.13308 245.781L7.32761 246.597C8.47275 251.358 9.8074 256.164 11.7375 260.664C12.6842 262.871 13.9378 264.968 15.4855 266.808C16.2459 267.713 17.0899 268.489 18.0103 269.224C18.7765 269.836 21.3811 271.163 24.4658 271.163C27.5505 271.163 28.3855 270.871 29.9418 270.335C33.0196 269.276 35.9418 267.584 38.8282 266.077L39.1266 265.922C40.403 265.261 41.6744 264.591 42.9425 263.915C42.7823 262.621 43.0627 261.535 43.7364 260.341C44.4645 259.048 46.2688 259.692 46.403 261.014L46.4073 261.064C46.4276 261.362 46.4775 261.666 46.5396 261.969C55.0187 257.322 63.3183 252.351 71.4858 247.17C76.7469 243.832 81.9521 240.395 87.0811 236.858C89.6451 235.09 92.1869 233.289 94.7034 231.454C96.0216 230.492 97.3338 229.523 98.6399 228.546C99.184 228.138 99.7176 227.711 100.263 227.301C100.13 227.135 100.001 226.97 99.876 226.806C97.84 224.14 96.5191 220.961 95.861 217.682C95.4636 215.703 95.2716 213.649 95.2132 211.632L95.1876 210.755C95.1473 209.277 95.1368 207.731 95.409 206.299C95.0385 206.502 94.66 206.702 94.2827 206.916C92.9288 207.683 91.5738 208.449 90.2165 209.211C87.4986 210.736 84.7727 212.243 82.0122 213.69C77.0814 216.274 72.1021 218.732 66.9883 220.935L64.5001 222.008C60.1816 223.866 55.8278 225.691 51.3378 227.072C48.8053 227.851 45.008 228.815 42.4391 229.409C44.5031 231.355 44.7882 232.662 43.2945 233.331C41.054 234.335 39.1978 230.485 39.1239 230.136C38.335 230.301 36.8141 230.583 34.5612 230.982C31.3498 231.602 28.2363 232.83 25.3658 234.401C24.368 234.947 24.0899 233.886 25.1472 233.147C28.2387 230.985 31.8447 229.762 35.5654 228.735L35.7482 228.685C37.1132 228.311 38.4757 227.921 39.8354 227.517C39.6859 226.976 39.5996 226.415 39.6169 225.795C39.6551 224.416 39.777 223.032 39.8502 221.654C40.0038 218.762 40.1999 215.879 40.4296 212.992C40.5178 211.879 40.6167 210.764 40.7298 209.65C40.0007 209.259 39.3719 208.74 38.559 208.484L38.4217 208.444C37.5522 208.21 37.8457 207.089 38.618 206.993C39.3176 206.907 40.0138 206.946 40.7034 207.095C40.8103 207.118 40.9114 207.144 41.0078 207.173C41.1345 206.141 41.2751 205.111 41.4348 204.088C41.8571 201.383 42.1559 198.533 43.0351 195.934C43.1003 195.742 43.386 195.673 43.4919 195.875C44.7708 198.309 44.8153 201.294 44.9594 204.005L44.9773 204.328C45.1472 207.285 45.1569 210.271 45.1021 213.232C45.0459 216.284 44.9414 219.327 44.8045 222.376C44.7495 223.604 44.7517 224.877 44.5426 226.051C52.1535 223.576 59.6299 220.614 66.7962 217.106C71.8513 214.632 76.8628 212.058 81.8171 209.388C84.2995 208.05 86.7934 206.734 89.2732 205.392C90.142 204.921 91.0101 204.449 91.8779 203.976L93.1794 203.266C94.3973 202.601 95.4139 201.94 96.8325 201.893C97.2553 201.879 97.6345 202.077 97.9038 202.377C98.6661 201.836 99.5472 201.504 100.472 201.512C101.864 199.589 103.277 197.681 104.747 195.815L105.832 194.434C107.711 192.05 109.701 189.63 112.097 187.816C113.167 187.007 114.343 186.399 115.57 185.898C115.281 185.827 114.998 185.685 114.747 185.452C113.575 184.365 113.414 182.346 113.176 180.83C112.929 179.257 113.024 177.85 113.268 176.282C113.363 175.673 114.371 175.546 114.618 176.106C115.136 177.286 115.686 178.416 116.158 179.609L116.297 179.969C116.804 181.312 117.883 182.725 117.812 184.182C117.793 184.581 117.659 184.929 117.452 185.208C118.482 184.866 119.526 184.561 120.555 184.243C123.791 183.243 127.041 182.271 130.34 181.494C131.218 181.288 132.1 181.096 132.986 180.92C133.451 178.715 134.127 176.551 134.925 174.426C134.17 174.039 133.681 173.39 133.03 172.813C132.422 172.272 132.003 171.614 131.484 170.993C131.011 170.429 131.277 169.409 132.126 169.442L132.367 169.452C133.247 169.493 134.1 169.584 134.898 169.995L135.182 170.141C135.572 170.344 135.999 170.576 136.379 170.85C136.876 169.706 137.393 168.573 137.915 167.451L138.593 166.001C140.351 162.226 142.103 158.308 144.31 154.793C145.29 153.231 146.596 152.255 148.469 152.104C150.399 151.948 152.405 152.149 154.337 152.218C156.577 152.298 158.816 152.393 161.053 152.511C160.48 151.91 159.956 151.241 159.38 150.664C158.424 149.708 157.414 148.801 156.352 147.963C154.25 146.305 151.94 144.939 149.539 143.762C147.139 142.585 144.667 141.559 142.414 140.105C140.988 139.185 139.713 138.027 138.55 136.775C137.818 144.675 134.005 152.014 128.276 157.529C122.325 163.256 114.102 166.402 106.058 167.74C97.8529 169.106 89.2894 168.605 81.4403 165.752C77.3932 164.28 73.5117 162.179 70.0501 159.543C70.012 159.772 69.9662 159.999 69.8763 160.212C69.7557 160.498 69.6081 160.742 69.4389 160.993L69.1372 161.435C68.9468 161.712 68.7528 161.987 68.5368 162.245C68.0136 162.868 67.2723 163.141 66.4739 163.138C64.945 163.133 63.7872 161.633 64.1987 160.15C64.4572 159.218 65.0105 158.657 65.8741 158.293C66.1471 158.177 66.4253 158.081 66.7051 157.985L66.9151 157.914C67.1979 157.817 67.4785 157.725 67.7696 157.671C66.1305 156.224 64.6097 154.651 63.2478 152.952C58.9764 147.626 54.7633 140.167 56.1913 133.094C56.216 132.972 56.3253 132.896 56.4431 132.877C56.526 132.38 56.7901 131.9 57.1519 131.577C56.9084 131.513 56.6629 131.464 56.4162 131.43ZM100.771 253.724C101.617 253.253 102.491 254.372 101.803 255.062L100.777 256.089C99.8242 257.047 98.897 258.015 98.0816 259.106L97.8841 259.373C96.7835 260.871 95.6097 262.607 93.8063 263.166C91.6249 263.843 89.5285 261.185 90.7917 259.244C91.8953 257.547 94.0202 256.907 95.8522 256.205C97.5853 255.541 99.1507 254.625 100.771 253.724ZM30.3998 245.893C30.8968 245.242 32.1927 245.585 31.8533 246.506C30.7504 249.497 30.3009 253.575 27.5157 255.563C26.6171 256.203 25.2056 255.909 24.4658 255.169C23.6251 254.328 23.5915 253.144 24.0722 252.118C24.6586 250.866 26.1007 249.959 27.1117 249.006L27.2023 248.919C28.2899 247.862 29.4661 247.116 30.3998 245.893ZM146.809 249.336C147.696 248.953 150.008 248.209 150.694 249.09C150.726 249.122 150.753 249.157 150.775 249.196C150.943 249.488 150.968 249.9 150.775 250.19C149.977 251.39 149.145 252.286 148.01 253.141L147.882 253.235C146.646 254.144 145.486 255.212 143.98 255.622C141.893 256.19 140.435 253.576 141.901 252.049C143.081 250.82 144.884 250.181 146.449 249.495L146.809 249.336ZM62.9931 232.246C62.644 231.615 63.3574 230.84 64.0034 231.235C65.8463 232.362 67.993 233.207 70.0629 233.815C70.9007 234.06 71.6565 234.91 71.5942 235.826L71.5844 235.965C71.5598 236.289 71.5151 236.61 71.3095 236.88C70.5885 237.823 69.5572 238.186 68.4559 237.628C66.0014 236.384 64.3213 234.647 62.9931 232.246ZM116.856 230.334C116.811 230.069 117.006 229.864 117.275 229.915C118.833 230.21 120.271 230.963 121.608 231.828C122.326 232.292 123.018 232.801 123.733 233.27C124.617 233.848 124.948 234.326 125.079 235.388C125.165 236.088 124.511 236.728 123.911 236.922C122.277 237.449 120.404 235.719 119.296 234.595L119.247 234.544C118.087 233.362 117.131 231.964 116.856 230.334ZM163.632 228.498C163.277 227.539 164.501 226.744 165.301 227.215C166.054 227.658 166.872 228.026 167.582 228.534C168.236 229.001 168.831 229.555 169.457 230.061L169.767 230.306C170.915 231.23 172.811 233.514 171.169 234.839C169.606 236.101 167.534 234.49 166.484 233.312L166.411 233.229C165.808 232.531 165.064 231.774 164.626 230.959C164.213 230.192 163.934 229.312 163.632 228.498ZM148.218 154.261C146.26 154.641 145.462 157.058 144.638 158.634C142.692 162.353 140.903 166.139 139.106 169.931C138.553 171.097 138.014 172.272 137.47 173.445C137.437 173.537 137.395 173.628 137.344 173.717C136.231 176.115 135.084 178.498 133.744 180.774C134.971 180.544 136.204 180.348 137.441 180.194C137.379 179.029 138.177 177.469 138.571 176.487L138.604 176.405C139.096 175.147 139.612 173.166 140.879 172.513C141.301 172.296 141.753 172.568 141.785 173.033C141.881 174.418 140.528 176.002 139.866 177.176C139.466 177.887 139.076 178.601 138.696 179.323C138.554 179.593 138.435 179.858 138.288 180.096C138.927 180.027 139.566 179.966 140.206 179.921L140.624 179.892C142.999 179.735 145.522 179.691 147.668 180.862C149.659 181.949 150.677 184.269 149.583 186.382C148.22 189.014 145.219 189.363 142.581 189.576C139.284 189.842 135.981 190.322 132.708 190.79C129.323 191.275 126.135 192.523 122.8 193.165C122.49 193.224 122.297 192.819 122.581 192.645C125.212 191.044 128.41 190.162 131.351 189.264L131.589 189.191C133.184 188.701 134.743 188.141 136.393 187.863C137.995 187.593 139.607 187.375 141.223 187.208L141.38 187.194C143.159 187.045 147.698 187.096 147.506 184.461C147.379 182.717 144.545 182.416 143.252 182.395C137.321 182.3 131.348 183.875 125.711 185.562L124.453 185.939C122.145 186.634 119.834 187.349 117.57 188.163C115.003 189.085 112.982 190.524 111.113 192.493C109.04 194.677 107.033 196.909 104.883 199.019C103.528 200.349 102.155 201.655 100.771 202.951C100.459 203.356 100.209 203.796 100.035 204.368C99.7425 205.333 99.8099 206.23 99.9204 207.222C100.199 209.725 100.261 212.255 100.61 214.751C100.934 217.064 101.386 219.461 102.346 221.606C102.726 222.455 103.221 223.29 103.784 224.036L104.239 224.627C104.437 224.884 104.659 225.165 104.891 225.429C105.233 225.012 105.727 224.741 106.302 224.809C107.523 224.953 108.483 224.918 109.681 224.638C110.608 224.421 111.528 224.166 112.451 223.931C114.263 223.469 116.092 223.048 117.886 222.517L118.195 222.424C119.532 222.013 120.869 221.5 121.982 220.636C123.274 219.633 123.672 218.185 124.63 216.934C126.674 214.261 131.093 214.317 134.085 213.585C136.627 212.963 139.074 211.982 140.833 210.136L140.936 210.027C140.858 209.697 140.985 209.326 141.29 209.155L141.357 209.118C141.476 209.051 141.605 209.024 141.731 209.026C141.894 208.786 142.052 208.539 142.195 208.275C142.313 208.057 142.607 208.217 142.568 208.432C142.545 208.56 142.513 208.685 142.483 208.811C144.188 208.372 146.059 208.456 147.79 208.457L150.035 208.449C150.424 208.444 151.003 208.425 151.055 208.402L151.108 208.378C151.248 208.317 151.049 208.418 151.147 208.288C151.255 208.145 151.36 208 151.464 207.854C151.837 207.333 152.189 206.796 152.534 206.254C148.773 207.213 144.878 207.809 141.038 208.306C136.918 208.84 132.744 209.211 128.588 209.214C127.442 209.216 127.453 207.485 128.588 207.442C132.989 207.274 137.367 207.041 141.739 206.477C143.999 206.185 146.251 205.818 148.489 205.39C149.353 205.225 150.216 205.049 151.076 204.864L151.72 204.723C152.125 204.634 153.268 204.505 153.825 204.131C153.934 203.942 154.044 203.755 154.152 203.567C154.099 202.906 152.42 202.994 152.027 202.993C150.911 202.991 149.795 203 148.679 203.003C146.447 203.01 144.215 202.99 141.982 202.972C137.523 202.936 133.046 202.78 128.59 202.971C127.508 203.017 126.94 201.282 128.009 200.825C132.729 198.809 137.969 198.371 143.008 197.751C145.659 197.426 148.311 197.05 150.901 196.39L151.542 196.227C153.17 195.81 154.967 195.301 156.338 194.306C154.278 193.473 151.717 193.568 149.582 193.45L149.418 193.441C146.428 193.257 143.433 193.163 140.437 193.158C134.308 193.15 128.177 193.367 122.054 193.658C121.9 193.665 121.869 193.422 122.018 193.39C128.311 192.016 134.706 191.355 141.146 191.253C144.146 191.205 147.146 191.248 150.143 191.38L151.243 191.431C153.798 191.541 156.633 191.571 158.77 193.115C159.096 193.35 159.268 193.65 159.295 193.968C162.162 188.251 164.81 182.415 167.468 176.617C169.535 172.11 171.525 167.564 173.667 163.091L174.361 161.644C175.289 159.713 176.241 157.782 177.297 155.922C173.347 155.394 169.375 155.027 165.4 154.746C161.778 154.49 149.962 153.923 148.218 154.261ZM146.469 216.219C146.919 215.969 147.609 216.173 147.72 216.729C147.803 217.143 147.944 217.602 147.944 218.025C147.944 218.532 147.763 219.083 147.666 219.579C147.444 220.72 147.17 221.647 146.59 222.663C146.228 223.299 145.495 223.731 144.759 223.714C144.176 223.7 143.659 223.544 143.259 223.093C142.78 222.552 142.451 221.756 142.714 221.028C143.402 219.12 144.668 217.22 146.469 216.219ZM50.9212 214.316C51.9753 212.469 54.4739 210.819 56.6543 210.982C59.9284 211.227 60.5965 215.637 57.4266 216.69C55.5319 217.318 52.9252 216.673 51.2677 215.638C50.8209 215.359 50.6571 214.779 50.9212 214.316ZM17.2723 208.007C17.0329 207.658 17.4286 207.261 17.7853 207.339C18.5765 207.513 19.4295 207.589 20.2044 207.825C20.998 208.066 21.7662 208.467 22.5523 208.742C24.1991 209.319 25.9582 209.609 27.5519 210.306C28.189 210.584 28.6901 211.507 28.6312 212.187L28.6162 212.346C28.581 212.684 28.5225 212.979 28.3337 213.287C27.8265 214.116 26.8216 214.544 25.8731 214.289C24.1136 213.816 22.3943 212.602 20.8941 211.592L20.6169 211.408C19.9614 210.976 19.2566 210.525 18.7284 209.969C18.1771 209.388 17.724 208.664 17.2723 208.007ZM77.7558 201.29C77.5532 200.56 78.4607 200.078 78.9897 200.571C80.0467 201.556 81.1519 202.469 82.1871 203.479L82.2567 203.548C82.998 204.293 84.0765 205.73 83.1123 206.694C81.877 207.93 80.1567 206.096 79.4939 205.14C78.6533 203.928 78.1491 202.707 77.7558 201.29ZM158.645 195.257C157.077 196.918 154.661 197.682 152.534 198.315C150.011 199.065 147.413 199.513 144.811 199.881C142.298 200.237 139.804 200.555 137.33 200.964C139.201 200.987 141.072 201.001 142.939 201.034C145.092 201.073 147.244 201.12 149.396 201.182C150.964 201.228 152.803 201.013 154.293 201.596C154.561 201.7 154.812 201.846 155.031 202.023C156.283 199.795 157.483 197.537 158.645 195.257ZM61.9233 179.72C63.56 179.2 65.099 178.51 66.834 178.689C67.2951 178.736 67.6254 179.185 67.3737 179.629C66.5514 181.076 65.2144 181.893 63.8982 182.862L63.7822 182.947C62.3416 184.019 60.7948 184.996 59.2282 185.876C56.5309 187.39 54.1137 183.056 56.8377 181.785C58.4767 181.019 60.1984 180.268 61.9233 179.72ZM91.3898 175.957C93.8938 176.122 96.3962 176.234 98.9033 176.336C101.807 176.453 100.831 180.923 98.4051 180.019C96.0085 179.125 93.6117 178.242 91.1935 177.408C90.4574 177.155 90.5167 175.945 91.3431 175.956L91.3898 175.957ZM27.1676 168.005C27.8165 167.959 28.471 168.101 29.1209 168.164L29.8125 168.231C31.238 168.373 32.5747 168.548 33.9342 169.128C36.4427 170.199 35.0954 174.233 32.5772 174.141C30.7159 174.072 29.1243 173.272 27.5526 172.342C26.1786 171.528 25.3363 170.51 24.4085 169.232C24.1012 168.809 24.5294 168.334 24.9479 168.292C25.685 168.217 26.4302 168.056 27.1676 168.005ZM152.914 159.767C152.499 162.358 151.468 164.786 149.916 166.901C149.135 167.963 147.766 168.003 146.992 166.901C145.898 165.341 146.573 163.553 147.397 162.055L147.641 161.616C148.01 160.959 148.577 159.999 149.224 159.336L149.235 159.269C149.582 156.556 153.341 157.097 152.914 159.767ZM51.6382 143.138C52.2624 142.576 53.412 142.744 53.6146 143.66C53.8981 144.942 54.0706 146.386 53.885 147.687C53.7844 148.392 53.7466 149.184 53.4694 149.841C53.1713 150.548 52.598 151.092 52.0579 151.623C50.9795 152.684 48.7063 152.333 48.4174 150.662L48.3807 150.457C48.2355 149.666 48.0496 148.82 48.2648 148.037C48.4272 147.445 48.7901 146.842 49.0903 146.293L49.1536 146.177C49.7551 145.056 50.6926 143.989 51.6382 143.138ZM139.382 145.865L139.607 145.868C141.35 145.902 144.535 146.326 144.552 148.48C144.556 148.988 144.18 149.514 143.676 149.63C142.635 149.872 141.962 149.256 141.22 148.634C140.613 148.126 139.905 147.72 139.17 147.427C138.376 147.112 138.428 145.864 139.382 145.865Z" fill="black"/>
<path fill-rule="evenodd" clip-rule="evenodd" d="M136.703 42.8175C135.769 37.155 138.833 35.9801 136.703 30.5975C131.968 20.6239 119.063 21.0536 109.594 20.2868C99.0319 19.881 88.3418 21.2788 78.605 25.5224C76.2793 26.5359 74.0423 27.7279 71.8979 29.0822C70.0436 30.2534 70.2985 32.4801 71.4677 33.6948C63.0369 45.663 67.8589 61.7278 61.1319 74.3258C59.8892 76.5777 58.2456 78.597 57.1654 80.9401C55.5235 84.5017 55.4183 89.6051 59.1418 91.9704C64.3859 94.7921 67.3124 89.2054 69.8891 97.304C82.7579 125.542 108.632 127.133 133.194 112.41C135.319 111.225 137.488 109.886 139.093 108.024C142.735 103.915 142.306 98.1366 142.386 93.0052C142.431 89.9981 142.439 86.9904 142.41 83.9828C142.295 71.7998 138.267 54.9 136.703 42.8175Z" fill="#EDB98A"/>
<path fill-rule="evenodd" clip-rule="evenodd" d="M84.3869 8.94963C99.2173 2.20581 116.038 -0.3516 132.215 1.32587C140.2 2.15253 148.08 3.92608 155.579 6.80703L156.236 7.06167C158.087 7.77589 160.082 8.48483 161.489 9.93866C163.126 11.6282 163.586 14.1832 162.415 16.2704C161.506 17.8921 159.871 19.0554 158.128 19.6762C158.742 20.1804 159.325 20.7428 159.871 21.3707C160.793 22.4227 160.863 23.923 159.871 24.9607C157.961 26.9606 155.483 28.4076 152.813 29.1011C153.113 30.5531 152.951 32.1603 152.308 33.6075C150.462 37.7616 145.263 38.2567 141.261 38.01L141.141 38.0023L140.918 40.5549C140.8 41.9148 139.987 42.9693 138.609 43.1778C138.56 43.185 138.512 43.1899 138.464 43.1945C140.645 51.1021 141.963 59.2541 143.179 67.3581C143.815 71.5883 144.383 75.8284 144.928 80.0713L145.109 81.4856C145.689 86.0599 146.415 90.6802 146.666 95.2884C146.891 99.47 146.095 103.462 143.525 106.837C141.218 109.862 138.072 112.129 134.689 113.811C127.045 117.614 119 120.446 110.546 121.759L109.983 121.846C106.72 122.346 103.357 122.767 100.129 121.861C97.293 121.066 94.3184 119.015 94.9592 115.721C95.1744 114.608 96.7269 114.56 97.2589 115.42L97.3817 115.618C98.0196 116.632 98.7187 117.575 99.832 118.099C101.135 118.715 102.646 118.887 104.071 118.904C108.049 118.95 112.191 117.956 116.021 116.96C123.174 115.098 130.52 112.063 136.379 107.465C138.872 105.511 140.875 103.067 141.581 99.9233C142.454 96.0471 141.651 91.8098 141.254 87.9143C140.438 79.8762 139.467 71.853 138.442 63.8387L138.236 62.236C137.373 55.5358 136.467 48.8332 136.036 42.0942C135.857 41.8494 135.736 41.5706 135.688 41.2652L135.62 40.8264C135.562 40.4507 135.552 40.1064 135.593 39.7889C135.596 38.572 135.63 37.3624 135.7 36.1452C135.712 35.9273 135.722 35.7091 135.729 35.4934C134.467 35.7722 133.195 35.9976 131.918 36.1891C122.942 37.5442 113.825 37.8836 104.777 37.2097C100.262 36.8725 95.7816 36.2934 91.3151 35.5686C89.0418 35.2001 86.7763 34.7928 84.5178 34.3371C82.8855 34.0099 81.2871 33.5663 79.6815 33.1493C78.0251 35.5661 77.1304 38.5405 77.3045 41.4615C77.5004 44.7946 79.7154 47.8175 79.0939 51.2233C78.5107 54.4108 75.7866 55.3991 73.0971 56.1885L71.9533 56.5198C71.0733 56.7773 70.4343 57.0258 70.275 58.0859C70.0018 59.9064 70.3379 61.9548 70.408 63.785C70.4926 65.9497 70.6036 68.1144 70.6546 70.2791C70.6812 71.399 70.7245 72.5238 70.7224 73.6437C70.7199 74.4388 70.6014 74.9818 70.2943 75.4955C70.5313 75.7939 70.7439 76.1163 70.9327 76.4581C70.9932 76.5696 70.8433 76.6881 70.754 76.5963C70.5144 76.3466 70.2603 76.1211 69.9921 75.9197C69.8567 76.0872 69.6995 76.2569 69.5155 76.4387L69.5012 76.4193C68.9257 76.9938 68.0116 77.0496 67.298 76.4387L67.1108 76.2761C66.5885 75.8171 66.2296 75.4349 66.0844 74.6764C66.0771 74.6376 66.0696 74.5988 66.065 74.56C64.7375 74.514 63.3882 74.8289 62.1936 75.4909C60.3002 76.5405 58.9678 78.0362 58.1798 79.8833C58.4939 80.2518 58.8614 80.5815 59.2895 80.8578C59.3499 80.899 59.2967 80.9887 59.2314 80.9572C58.7937 80.7512 58.402 80.4966 58.0514 80.1985C57.7685 80.9257 57.5702 81.7062 57.4493 82.5329C57.0237 85.4515 57.783 89.0173 60.4139 90.6802C61.5528 91.4002 62.8538 91.7905 64.2031 91.7953C64.8606 91.7975 65.4291 91.6862 66.0675 91.5286C66.5003 91.422 66.9307 91.2668 67.3829 91.2668C67.7698 91.2668 68.1277 91.3638 68.459 91.5577L68.3671 91.5658C68.1438 91.5868 68.1868 91.5963 68.4977 91.5963C69.4649 91.6377 70.0184 92.6219 69.5737 93.4776L69.5154 93.6098C69.5031 93.6365 69.4927 93.6586 69.4845 93.6761L69.4494 93.9031C69.4459 93.9247 69.4422 93.9469 69.4383 93.9697L69.4249 94.0157C69.4225 94.023 69.4198 94.0303 69.4166 94.0376L70.8672 96.2552C72.6458 98.9681 74.4641 101.671 76.5331 104.148C77.984 105.887 79.5219 107.591 81.1469 109.169C82.6074 110.587 84.3582 111.27 86.0122 112.386C86.895 112.977 87.1535 114.216 86.3509 115.013C83.9955 117.357 80.6609 115.496 78.7288 113.59C76.9007 111.784 75.3216 109.612 73.9602 107.438C71.5445 103.572 69.6221 99.4603 68.7806 94.9975C68.43 95.3199 67.9826 95.5211 67.5304 95.6787C66.6236 95.9938 65.6249 96.1247 64.6674 96.1587C62.832 96.2193 60.9942 95.7732 59.3427 94.983C52.6227 91.7711 51.6361 82.1523 55.7445 76.4799C55.1905 74.8694 54.8811 73.122 54.545 71.6319L54.392 70.9658C52.6934 63.5256 51.5525 55.6922 54.5644 48.4017C54.9513 47.4611 55.3866 46.5448 55.9017 45.6673C56.3152 44.9619 57.0261 44.2104 57.222 43.4081C57.6572 41.6457 54.9707 39.7937 54.1872 38.395C53.2659 36.7539 53.1353 34.8171 54.3903 33.3163C54.5499 33.1275 54.7238 32.9527 54.9126 32.8002C53.7229 30.638 53.6673 27.9181 55.2343 25.7849C56.2644 24.379 57.8362 23.3948 59.553 23.0966C60.6025 22.9148 61.8648 22.9827 63.0182 23.3075C69.3341 17.4291 76.5404 12.5179 84.3869 8.94963ZM60.1333 82.5038C61.8189 81.013 63.6809 80.2324 65.9781 80.4288C68.2874 80.6273 71.0683 81.5851 72.4246 83.5704C73.4961 85.1388 71.3125 87.4392 69.7407 86.2611C68.3092 85.1873 67.3538 83.9752 65.5767 83.3983C63.9805 82.882 62.0049 82.5499 60.334 82.8456C60.1502 82.8771 59.9666 82.6492 60.1333 82.5038Z" fill="black"/>
<path fill-rule="evenodd" clip-rule="evenodd" d="M112.603 93.498C113.959 91.2674 116.848 96.7317 117.155 97.6713C117.427 98.5037 117.607 99.3563 117.698 100.219C118.749 100.454 119.84 100.455 120.917 100.248C122.517 99.9412 123.496 99.0805 124.887 98.3414C125.847 97.8307 127.058 98.4296 127.558 99.2766C128.146 100.273 127.771 101.308 126.998 102.051C125.532 103.461 122.648 103.784 120.735 103.41C119.639 103.196 118.634 102.785 117.747 102.187C117.741 102.298 117.737 102.41 117.728 102.521L117.711 102.715C117.564 104.278 117.135 106.243 115.921 107.26C113.931 108.928 111.474 105.72 113.408 104.053L113.468 104.003C114.67 103.032 114.933 100.425 114.868 98.9886C114.825 98.0514 114.655 97.1021 114.359 96.2095L114.298 96.0317C114.209 95.7796 113.238 93.3876 112.887 93.6923L112.871 93.7094C112.726 93.8822 112.492 93.6809 112.603 93.498ZM123.426 80.9109C125.256 82.0236 128.044 84.6181 126.076 87.3766C123.759 89.8088 120.423 87.0201 118.779 85.7589C117.254 84.7814 115.541 87.2953 116.956 88.4367C128.835 97.235 133.656 81.2019 124.352 79.6027C123.327 79.4265 122.947 80.5667 123.426 80.9109ZM103.886 70.6263C105.675 70.309 107.507 70.7538 108.987 71.8005L109.099 71.8812C110.525 72.9243 112.12 74.7558 111.302 76.5537C110.973 77.2756 109.99 77.3888 109.366 77.0615C108.327 76.5166 108.139 75.1758 107.212 74.4338C106.452 73.8256 105.428 73.4567 104.449 73.5456C102.149 73.7546 100.735 76.0238 100.02 77.9793C99.9289 78.2294 99.5617 78.3267 99.4183 78.0581C97.7339 74.9087 100.715 71.1892 103.886 70.6263ZM132.532 69.4378C135.957 69.1554 139.967 72.7081 139.065 76.3253C138.633 78.061 136.059 78.0113 135.601 76.3253C135.35 75.3976 135.375 74.5768 134.707 73.8065C134.156 73.1704 133.373 72.8009 132.532 72.8577C131.604 72.9202 130.748 73.3839 130.098 74.0358C129.511 74.6243 129.16 75.4856 128.552 76.0066C128.402 76.1346 128.202 76.1428 128.054 76.0066C127.007 75.041 127.635 73.031 128.299 72.0231C129.249 70.5807 130.796 69.581 132.532 69.4378ZM97.3629 64.2109C99.5605 62.2648 103.554 60.3854 106.517 61.3432C108.221 61.8937 108.964 64.64 107.062 65.5104C104.859 66.5184 102.32 66.1082 100.078 67.153C99.1367 67.592 98.2513 68.1406 97.5958 68.9451C97.0794 69.5793 96.554 70.4137 95.8072 70.7792C95.6109 70.8754 95.3451 70.8779 95.1878 70.6995C93.5507 68.847 95.9334 65.4765 97.3629 64.2109ZM128.754 61.2466C130.113 60.8653 131.619 60.873 132.999 61.1125C134.379 61.352 135.779 61.9239 136.905 62.758L137.036 62.8557C138.265 63.7824 139.732 65.1307 139.653 66.7723C139.588 68.1431 138.146 69.0703 136.902 68.3518C135.887 67.7659 135.41 66.5922 134.551 65.8107C133.842 65.1656 133.009 64.657 132.121 64.3007C131.134 63.9049 130.146 63.7194 129.087 63.7017C128.271 63.6881 127.451 63.9558 126.651 64.0413C126.717 64.1766 126.084 64.1136 125.722 63.9936C125.453 63.8792 125.452 63.5395 125.545 63.3192C126.007 62.2276 127.686 61.5462 128.754 61.2466Z" fill="black"/>
</svg>
