<svg width="196" height="285" viewBox="0 0 196 285" fill="none" xmlns="http://www.w3.org/2000/svg">
<path fill-rule="evenodd" clip-rule="evenodd" d="M172.526 164.359C169.111 148.156 157 135.584 140.712 129.32C137.581 127.547 134.546 119.937 130.338 118.543C129.663 118.32 130.728 120.098 130.338 120.204C128.946 120.583 127.387 120.622 125.85 119.255C123.104 116.811 122.243 109.67 120.573 106.442C111.768 89.4205 89.7831 96.0805 86.8377 114.898C84.784 116.238 81.8809 117.419 79.6454 118.499C77.3434 119.612 75.3186 122.306 72.9463 123.269C70.8297 124.129 67.342 123.52 65.2092 124.269C55.3993 127.715 47.0907 132.064 40.5768 140.874C39.2043 142.732 37.6571 145.017 36.408 146.894C29.9687 154.318 25.496 162.639 21.3767 171.566C9.8516 197.769 6.71681 226.781 3.90431 255.013C3.96827 259.953 0.695221 273.651 5.53616 276.019C5.24684 276.319 5.35165 276.923 5.88846 276.917C18.1632 276.793 30.4093 277.893 42.4936 280.032C48.324 281.064 54.1232 282.48 60.0621 282.712C72.3904 282.627 84.6745 280.558 96.9866 282.516C111.788 282.516 129.776 282.084 146.242 281.45C161.631 280.857 177.102 282.196 192.301 279.575C193.504 279.384 194.091 277.915 193.839 276.861C192.056 270.355 191.181 263.657 190.18 256.997C190.38 252.726 190.023 248.266 188.445 244.287C184.322 217.427 179.036 190.742 172.526 164.359Z" fill="#FFDBB4"/>
<path fill-rule="evenodd" clip-rule="evenodd" d="M130.338 120.303C130.728 120.197 129.663 118.419 130.338 118.642C134.546 120.036 137.581 127.646 140.712 129.419C157 135.683 169.111 148.255 172.526 164.458C179.036 190.841 184.322 217.526 188.445 244.386C190.023 248.365 190.38 252.825 190.18 257.096L190.337 258.148C191.276 264.461 192.15 270.796 193.839 276.961C194.092 278.014 193.504 279.483 192.301 279.674C177.275 282.265 161.982 280.986 146.766 281.529L143.595 281.649C127.866 282.228 110.998 282.615 96.9866 282.615C84.6746 280.657 72.3905 282.726 60.0622 282.811C54.1233 282.579 48.3241 281.163 42.4936 280.131C30.4094 277.992 18.1632 276.892 5.88852 277.016C5.35171 277.022 5.2469 276.418 5.53622 276.118C0.695281 273.75 3.96834 260.052 3.90437 255.112L4.15858 252.57C6.91251 225.142 10.1974 197.082 21.3767 171.665L21.7115 170.942C25.7393 162.288 30.1428 154.216 36.4081 146.993L36.7913 146.418C37.9648 144.663 39.3416 142.646 40.5769 140.973C47.0908 132.163 55.3994 127.814 65.2093 124.368C67.3421 123.619 70.8298 124.228 72.9464 123.368C75.1652 122.467 77.08 120.052 79.2019 118.833L79.2019 127.925L109.906 158.215L127.32 131.473L129.091 120.521C129.517 120.494 129.935 120.413 130.338 120.303Z" fill="#8FA7DF"/>
<path fill-rule="evenodd" clip-rule="evenodd" d="M167.56 199.665C167.235 201.244 166.78 202.823 166.175 204.319C165.592 205.763 164.713 207.056 164.109 208.483C164.027 208.675 163.894 208.82 163.734 208.931L163.784 209.319L163.83 209.707C164.132 212.326 164.471 214.937 164.765 217.556L164.908 218.865C165.486 224.332 166.399 229.773 167.107 235.225C167.801 240.564 168.507 245.903 169.262 251.235C170.042 256.732 170.837 262.221 171.764 267.696C172.156 270.008 172.565 272.318 172.99 274.626L173.319 276.393C176.705 277.209 177.63 281.934 174.183 283.679C172.618 284.467 170.608 284.277 169.319 283.038C167.979 281.747 167.923 279.418 167.613 277.669L167.313 276.044C165.071 263.822 163.126 251.46 162.216 239.066C161.983 235.866 161.786 232.663 161.658 229.457C161.536 226.442 161.594 223.427 161.548 220.412L161.532 219.59C161.461 216.374 161.52 213.164 161.604 209.949C161.614 209.557 161.631 209.165 161.651 208.771C161.538 208.638 161.456 208.48 161.422 208.327L161.377 208.125C161.267 207.606 161.392 206.997 161.791 206.625C161.963 204.435 162.189 202.247 162.251 200.059C162.256 199.879 162.514 199.884 162.529 200.059C162.674 201.921 162.964 203.789 163.255 205.654C165.122 204.151 166.502 201.673 167.316 199.598C167.375 199.448 167.595 199.502 167.56 199.665ZM123.38 112.588C123.69 114.007 124.302 115.281 125.124 116.466C125.515 117.033 125.96 117.56 126.494 118.001C126.952 118.378 127.474 118.624 127.96 118.952C128.669 118.841 129.41 119.11 129.906 119.632L129.828 118.868C129.803 118.622 130.212 118.573 130.259 118.811C132.411 129.682 134.374 140.56 136.073 151.51L136.818 156.345L137.519 160.885C138.682 168.449 139.808 176.01 140.655 183.63C141.785 193.798 142.734 203.994 143.428 214.204C144.124 224.485 144.552 234.774 144.857 245.076C144.933 247.672 145.015 250.267 145.093 252.863L145.619 249.759C146.143 246.654 146.658 243.545 147.098 240.426C148.68 229.263 149.945 218.02 150.562 206.761C151.128 196.457 150.939 185.949 148.321 175.911C147.662 173.385 146.855 170.899 145.881 168.477C144.936 166.122 143.647 163.939 142.631 161.618C141.45 158.918 141.095 156.37 141.703 153.463C142.235 150.93 143.167 148.548 143.334 145.941C143.647 141.102 142.075 136.416 139.853 132.18C139.268 131.064 138.65 129.963 138.005 128.871C136.055 125.572 133.855 122.394 131.572 119.346C131.449 119.184 131.71 119.004 131.843 119.137C133.924 121.197 136.2 123.222 138.072 125.471C138.982 126.565 139.87 127.681 140.712 128.827C149.943 130.372 157.874 136.13 163.296 143.733C169.449 152.362 172.561 162.747 174.864 172.974C177.426 184.34 179.586 195.809 181.886 207.231C184.267 219.05 186.636 230.869 189.033 242.686C190.223 248.552 191.414 254.418 192.602 260.287C193.205 263.259 193.838 266.223 194.499 269.184C194.839 270.702 195.203 272.217 195.518 273.74C195.872 275.457 195.542 276.556 194.381 277.817C193.953 278.285 193.276 278.278 192.745 278.029L192.579 277.951L192.418 277.873C191.761 277.55 191.245 277.214 190.836 276.494C190.386 275.703 190.314 274.826 190.16 273.947C189.874 272.328 189.591 270.709 189.306 269.088C188.879 266.664 188.416 264.246 187.944 261.829L185.576 249.751C184.945 246.53 184.313 243.31 183.677 240.091C181.406 228.58 179.133 217.072 176.86 205.563C174.677 194.513 172.746 183.386 170.261 172.4L170.12 171.781L169.977 171.163C167.755 161.692 164.651 152.53 159.018 144.505C154.683 138.333 148.663 132.821 141.573 130.032C142.072 130.751 142.552 131.486 143.01 132.235C145.883 136.936 147.982 142.516 147.49 148.114C147.249 150.849 146.21 153.537 146.309 156.294C146.4 158.743 147.913 160.894 148.959 163.025C151.332 167.854 153.05 172.986 154.157 178.251C156.378 188.824 156.371 199.702 155.606 210.434C154.774 222.1 153.195 233.764 151.397 245.317C150.474 251.242 149.246 257.119 148.306 263.034C147.842 265.951 147.209 268.861 146.656 271.764L146.392 273.15C146.244 273.92 146.091 274.687 145.914 275.446L145.805 275.9V275.982C145.8 276.541 145.647 277.004 145.401 277.374C145.064 278.455 144.646 279.51 144.09 280.523C143.804 281.04 143.391 281.331 142.941 281.437C142.488 282.474 141.462 283.272 140.237 283.267L124.125 283.206C114.766 283.169 105.408 283.107 96.0492 283.055C93.6876 283.043 91.3283 282.999 88.9689 282.937C86.7572 282.876 84.6365 282.609 82.4494 282.334C79.9791 282.023 78.641 280.271 79.01 277.8C79.0912 277.255 79.1795 276.714 79.2634 276.171C78.7714 276.334 78.1859 276.258 77.7898 275.871L77.4184 275.507C76.9037 274.997 76.4433 274.496 76.1168 273.816C75.7798 273.116 75.5065 272.377 75.2088 271.663C74.5667 270.125 73.942 268.583 73.3341 267.033C72.1165 263.934 70.8988 260.822 69.7668 257.69C67.5258 251.489 65.5426 245.194 63.8183 238.827C60.743 227.469 58.5188 215.891 57.1164 204.21L56.7812 201.426L56.6837 200.604C56.1519 196.077 55.7044 191.479 55.9159 186.961C56.0465 184.132 56.4842 181.282 57.5398 178.641C58.5138 176.204 60.017 174.12 61.4464 171.942L61.61 171.69L61.7744 171.433C63.0245 169.455 64.0191 167.386 64.069 164.984C64.1195 162.546 63.4103 160.173 62.6173 157.891L62.4197 157.328L62.287 156.955C60.6001 152.238 58.6803 147.588 59.3134 142.455C60.2485 134.896 64.8243 128.803 70.5814 124.104C65.4614 125.119 60.3937 127.124 55.921 129.667C50.6387 132.673 45.8832 136.64 41.782 141.117C34.0324 149.577 28.4994 159.729 23.9704 170.21C19.2293 181.179 15.7137 192.672 13.0643 204.316C10.3999 216.027 8.61624 227.925 7.3982 239.869C6.79077 245.815 6.31325 251.774 5.9174 257.737C5.71566 260.792 5.56313 263.852 5.32695 266.903C5.09077 269.95 4.98474 273.045 4.24176 276.011C3.89487 277.394 1.55521 277.534 1.30452 276.011C0.74815 272.611 0.90364 269.094 1.05892 265.651L1.07301 265.338C1.22579 261.908 1.42507 258.481 1.661 255.054C2.14345 248.049 2.78777 241.055 3.62916 234.082C6.57895 209.606 12.0187 185.259 22.6886 162.917C27.7123 152.394 34.1605 142.169 43.1304 134.57C47.4011 130.956 52.2157 128.071 57.4043 125.981C62.0445 124.111 66.7582 123.227 71.6885 123.229C74.161 121.332 76.8155 119.679 79.4674 118.267C79.6273 118.181 79.7946 118.388 79.662 118.521C79.5931 118.588 79.5264 118.656 79.4578 118.721C79.7579 118.74 80.0677 118.881 80.3457 119.174C81.3202 120.196 82.1419 121.475 82.8772 122.803C83.9966 124.203 85.0643 125.649 86.1815 127.033C87.9698 129.251 89.8002 131.436 91.653 133.604C94.7645 137.248 97.9774 140.823 101.328 144.254L101.887 144.825C103.624 146.586 105.383 148.695 107.437 150.09L107.547 150.163C108.414 150.728 109.028 150.831 109.767 149.987C110.439 149.218 110.998 148.326 111.573 147.478L111.706 147.284C114.641 143.014 117.362 138.586 119.825 134.028C120.947 131.954 122.015 129.85 123.028 127.722L123.331 127.083C123.882 125.91 124.479 124.759 124.934 123.552C125.04 123.269 125.144 122.985 125.244 122.705C123.694 121.687 122.494 119.484 122.059 117.76C121.606 115.968 121.835 114.13 122.642 112.492C122.794 112.184 123.306 112.26 123.38 112.588ZM46.9194 185.377C46.7049 192.187 46.5747 199.004 46.2547 205.81L46.1442 208.133C46.6434 208.69 46.9361 209.333 46.7024 210.215C46.6116 210.552 46.3432 210.858 46.0086 210.971L45.9043 213.131C45.4295 222.85 44.873 232.548 43.856 242.242C42.584 254.374 41.1128 266.486 39.6443 278.596C39.4352 280.311 38.2442 281.671 36.3917 281.419C34.5173 281.165 33.7571 279.532 34.0031 277.829C34.97 271.15 35.8997 264.466 36.7142 257.764L37.6417 250.129C38.8047 240.585 39.9951 231.042 41.3665 221.529C41.9397 217.552 42.5351 213.578 43.1327 209.604L42.9238 209.333C42.0699 208.222 41.1866 207.135 40.3133 206.041C38.6357 203.932 36.9799 201.84 35.4423 199.632C35.3658 199.522 35.521 199.359 35.6315 199.443C37.7867 201.037 39.8264 202.742 41.8782 204.474L43.6742 205.997C44.7074 199.13 45.7309 192.261 46.6434 185.377C46.6658 185.205 46.9241 185.192 46.9194 185.377ZM77.9202 120.204C76.6234 121.428 75.2976 122.626 73.991 123.843L73.5124 124.291L73.036 124.741C70.7398 126.922 68.5397 129.192 66.7066 131.799C63.341 136.586 61.3359 142.422 62.7355 148.267C63.897 153.108 66.5614 157.496 67.2773 162.458C67.6363 164.944 67.4618 167.443 66.5267 169.791C65.5722 172.186 64.0468 174.238 62.6765 176.399C59.6997 181.095 59.2937 186.249 59.5892 191.689C59.8992 197.371 60.5509 203.055 61.3556 208.685C62.984 220.092 65.4393 231.382 68.6892 242.437C70.3157 247.973 72.2368 253.391 74.1487 258.831C75.1005 261.539 76.2103 264.183 77.3541 266.814C77.9568 268.199 78.5746 269.576 79.2019 270.95C78.9704 269.009 78.9704 267.016 78.8573 265.087C78.6949 262.322 78.4882 259.563 78.2988 256.801C77.9128 251.196 77.5684 245.586 77.2608 239.975C76.171 219.969 75.3689 199.946 75.4277 179.907C75.4575 169.887 75.6617 159.866 76.0922 149.856C76.2941 145.142 76.6849 140.432 77.0382 135.724L77.1132 134.716C77.4257 130.49 77.7996 126.255 78.4415 122.066C78.2514 121.637 78.0865 121.202 77.9641 120.756L77.9202 120.588L77.9521 120.593C77.9226 120.462 77.9128 120.332 77.9202 120.204ZM89.1338 102.987C89.1606 102.871 89.3255 102.881 89.355 102.987C90.0857 105.45 89.8274 108.161 89.1978 110.639C88.8583 111.982 88.3761 113.285 87.793 114.542L87.589 114.982C87.0894 116.052 86.5269 117.154 85.554 117.821C85.1483 118.1 84.4223 118.117 84.0164 117.821L83.8093 117.664C83.7753 117.637 83.7416 117.61 83.7088 117.582C83.3302 117.264 83.143 116.562 83.3177 116.099C83.7679 114.904 84.7891 114.027 85.4949 112.963C86.1201 112.016 86.6736 111.019 87.1334 109.981C88.1249 107.737 88.5702 105.354 89.1338 102.987Z" fill="black"/>
<path fill-rule="evenodd" clip-rule="evenodd" d="M84.7297 9.75586L86.8501 12.2866C85.676 13.117 84.5676 13.9513 83.5251 14.7897L83.5241 14.7872C88.3533 11.625 93.7017 9.75586 99.4794 9.75586C110.608 9.75586 133.211 19.3493 138.321 26.269C140.857 29.703 145.569 40.2451 148.014 51.7063C149.978 60.9152 152.899 86.9317 149.978 96.7075C146.239 109.219 133.939 120.783 121.257 120.783C108.574 120.783 88.8837 111.594 74.8699 91.4562C74.2291 90.5354 66.8705 89.4681 61.6211 86.012L62.9993 101.25L64.0468 110.114L63.8156 110.745C60.056 120.95 57.0767 126.273 54.8777 126.716C52.6339 127.168 48.0643 123.477 41.1691 115.642L40.288 111.931C38.0501 102.464 36.9312 97.3818 36.9312 96.6855L36.9327 96.5587C36.9657 94.9564 37.5157 85.8874 37.527 83.4468L37.5272 46.8678C44.9428 22.1265 52.0194 9.75586 58.757 9.75586H84.7297Z" fill="#FFDBB4"/>
<path fill-rule="evenodd" clip-rule="evenodd" d="M67.1585 1.32958C69.3388 0.482021 71.8647 0.64217 73.9343 1.91843C77.9976 1.7435 82.0386 4.12849 84.157 7.60988C84.2012 7.65915 84.2481 7.70843 84.2898 7.75771L84.7388 8.28287C85.1639 8.78437 85.6124 9.33712 85.9676 9.90789C84.2274 9.94781 82.7778 10.6596 81.7658 12.0973C81.0438 13.1231 82.6978 14.0978 83.4358 13.1276L83.4617 13.0921C84.0693 12.2291 84.9865 11.8947 86.0076 11.8772C86.3007 11.8723 86.5231 11.7597 86.6802 11.5936C86.7429 11.8225 86.7988 12.0539 86.8501 12.2862C91.9914 10.2794 97.5339 9.74799 103.054 10.224C102.812 10.6172 102.61 11.0385 102.454 11.4813C102.277 11.9832 102.654 12.5595 103.14 12.6935C103.665 12.8384 104.14 12.5294 104.33 12.0518L104.348 12.0051C104.56 11.402 104.906 10.8843 105.371 10.483C107.97 10.8365 110.55 11.3988 113.067 12.1236C116.093 12.9956 119.089 14.0597 122.02 15.2781C121.524 15.4734 121.095 15.8036 120.795 16.3547C120.195 17.4549 121.843 18.4403 122.468 17.3885L122.491 17.3496C122.552 17.2369 122.606 17.169 122.646 17.1304L122.66 17.1173L122.747 17.0774L122.908 17.0311L122.969 17.0158C123.024 17.0035 123.047 17.0043 123.19 16.9963C123.381 16.9855 123.572 16.9865 123.764 16.9862C124.213 16.986 124.5 16.7344 124.63 16.4126C126.077 17.0678 127.504 17.7577 128.907 18.4803L129.24 18.6535C133.57 20.9236 137.671 23.9048 140.05 28.2913C140.208 28.5845 140.257 28.9048 140.217 29.2103C140.725 29.8213 141.216 30.452 141.688 31.0926C143.126 33.0538 144.18 35.2836 145.176 37.4937C147.182 41.9384 148.532 46.5039 149.586 51.264C150.605 55.8517 151.427 60.4886 152.191 65.1255C153.037 70.2774 153.742 75.4736 153.889 80.6994C154.15 90.0151 152.335 99.385 147.123 107.227C142.474 114.225 135.472 119.781 127.169 121.56C118.724 123.368 109.787 121.604 103.132 115.957C102.059 115.048 102.206 113.212 103.132 112.281C104.18 111.231 105.727 111.377 106.795 112.281C113.062 117.6 122.185 118.421 129.737 115.71C136.719 113.202 142.189 107.417 145.545 100.92C149.64 92.9963 150.33 83.895 149.701 75.1286C149.357 70.3143 148.643 65.5394 147.906 60.7719L147.462 57.9021C146.977 54.7938 146.467 51.6897 145.803 48.6129L145.647 47.8961C144.835 44.1858 143.883 40.3804 142.412 36.8925C141.641 35.0619 140.713 33.2978 139.763 31.5558C139.579 31.2183 139.39 30.8758 139.196 30.5309C138.936 30.622 138.639 30.6368 138.327 30.5383C135.644 29.7006 132.887 29.1388 130.081 28.9516C128.802 28.8658 127.522 28.8525 126.243 28.9025C124.054 28.7747 121.804 28.9678 119.719 29.6414C119.515 29.4658 119.308 29.2938 119.101 29.1218C119.045 29.1174 118.989 29.1115 118.933 29.1004C118.401 28.9954 118.027 28.616 117.802 28.1368C117.79 28.1114 117.78 28.086 117.77 28.0606C117.503 27.8559 117.234 27.6544 116.962 27.4555C116.3 27.6278 115.72 27.0751 115.564 26.4695C115.417 26.3697 115.267 26.2731 115.118 26.1753C115.002 26.2039 114.886 26.2276 114.773 26.2359C114.286 26.2712 113.815 26.1963 113.383 25.9629C112.836 25.6675 112.487 25.191 112.253 24.6497C111.427 24.7007 110.59 24.4314 109.851 23.9446C109.251 23.5496 108.791 23.0044 108.334 22.4601C102.767 19.968 96.7146 18.4966 90.6483 18.1196C90.0507 18.2349 89.4574 18.3721 88.8713 18.5318C88.7326 18.5697 88.5357 18.6441 88.3091 18.7333C89.6616 18.5692 91.0315 18.553 92.4208 18.7538C99.0135 19.7105 104.148 24.6643 108.567 29.3404C109.619 29.1272 110.681 30.4934 109.708 31.3981L102.123 38.4523C102.309 39.2413 101.408 40.0188 100.618 39.8294C99.2936 39.5101 97.9672 39.1996 96.6397 38.8943C95.2551 39.5667 93.5143 39.4517 92.2583 38.477C92.1999 38.4316 92.0729 38.3592 91.9627 38.2873C91.8596 38.3728 91.7209 38.4585 91.6656 38.495C91.2191 38.7916 90.675 38.8788 90.1534 38.7955C89.6167 38.7101 89.1323 38.4368 88.7147 38.0966C88.4489 37.8798 87.8294 36.9755 87.4847 36.9089L87.4511 36.9051C87.6812 36.9117 86.9417 37.6013 86.7431 37.744C86.2796 38.0759 85.7672 38.2503 85.1905 38.1867C84.1855 38.0758 83.3213 37.1565 82.8298 36.3077L82.7927 36.2425L82.7773 36.2021L82.7642 36.2458C82.7618 36.2536 82.759 36.2618 82.7557 36.2711C82.682 36.4709 82.4508 36.6981 82.2936 36.8378C81.8458 37.2352 81.2915 37.4099 80.6993 37.3062C80.1981 37.2186 79.7767 36.9147 79.438 36.547L79.3852 36.4884C79.285 36.3749 78.6247 35.4846 78.7289 35.2713L78.741 35.2533L78.7081 35.2464C78.3064 35.3454 77.9694 35.2462 77.7224 35.0385C76.3442 34.7354 74.9838 34.3823 73.667 33.9334C73.5638 34.2242 73.4629 34.5149 73.365 34.8081C74.0841 35.254 74.7494 35.8897 75.3607 36.3431C76.5197 37.2005 77.6782 38.0579 78.8345 38.9178L83.4161 42.3095L83.94 42.1683C84.6095 41.9879 85.1838 42.379 85.4295 42.9769L85.4498 43.0287C85.5473 43.2906 85.6646 43.5328 85.8026 43.7646C86.9478 43.7188 87.9176 44.4244 88.2311 45.4366C88.5139 45.4301 88.7997 45.441 89.0918 45.4733C89.8919 45.5614 90.4312 46.1577 90.2863 46.9765L90.2754 47.0326L90.256 47.1238C90.7197 47.3214 91.0561 47.703 91.1307 48.2801C91.2549 48.4676 91.3551 48.6716 91.4192 48.8987C91.7538 50.0774 91.1028 51.5345 90.756 52.6637L90.7293 52.7522C90.5067 53.4943 90.2764 54.2328 90.0433 54.971L89.4629 56.8038C87.8533 61.9119 86.2841 67.2975 87.5866 72.6525C87.8643 73.7859 86.4205 74.2983 85.7945 73.4114C84.2768 71.2639 82.6371 69.2403 80.9154 67.2979L80.8319 67.2846C79.6263 67.0414 79.1581 66.1867 78.6047 65.3155C78.2787 65.4118 77.9281 65.4345 77.5893 65.3689C77.0988 65.2741 76.6594 64.9929 76.3125 64.6379C76.0186 64.3368 75.7493 63.5647 75.4019 63.3732C74.9674 63.134 74.0939 63.476 73.5749 63.3991C73.1529 63.3368 72.7588 63.1914 72.3766 63.0088C71.674 63.97 71.2083 65.0999 71.0941 66.318C71.0497 66.7812 70.9122 67.1729 70.7133 67.4982C71.4449 67.4711 72.179 67.5228 72.9035 67.6583C75.5843 68.1585 77.5066 69.8191 78.5868 72.2928C78.6332 72.4012 78.4933 72.4899 78.4294 72.3864C76.8266 69.9103 73.3377 69.7846 70.8042 70.6568C68.1135 71.5832 66.6036 73.9608 66.0662 76.6735C65.477 79.6473 66.2329 82.8528 67.8461 85.3856C68.5947 86.5633 69.6162 87.6375 70.9736 88.0711C72.5868 88.5861 74.0767 87.6646 75.7289 88.1401C76.8533 88.4629 77.3495 89.5544 77.1455 90.6458C77.0644 91.0746 76.9147 91.4491 76.7134 91.7743C77.3077 92.9569 77.8574 94.174 78.5571 95.2926C79.6373 97.0198 80.9436 98.4488 82.3673 99.8901C83.8378 101.378 85.3354 102.837 86.9091 104.217C88.4167 105.54 90.145 106.481 91.726 107.693C92.8357 108.543 93.3854 109.736 92.8379 111.101C92.3864 112.229 90.8641 113.19 89.6317 112.68C87.2724 111.704 85.2077 110.044 83.3274 108.334C81.5844 106.747 80.0669 104.85 78.9204 102.79C77.8389 100.848 77.042 98.6429 76.3696 96.5186L76.2862 96.2535C75.9695 95.2433 75.6359 94.1075 75.4198 92.9618C74.126 93.6714 72.3705 93.7749 70.9861 93.5827C68.7493 93.2747 66.7092 92.1439 65.1675 90.4956C64.4489 89.7286 63.8138 88.8537 63.2653 87.9053C63.3151 88.4826 63.3449 89.0412 63.3768 89.5494C64.6585 90.9583 65.1726 92.9914 64.7177 94.8464C65.79 95.9542 66.0905 97.617 65.5308 99.0327C66.7045 100.201 66.6603 102.06 66.1529 103.749C67.5405 105.305 67.6718 107.73 66.5884 109.486L66.5558 109.612C67.6497 111.449 67.403 113.823 66.0324 115.446C66.9685 117.268 66.8236 119.719 64.4842 120.426C63.6316 120.683 62.8052 120.464 62.1868 119.984C62.7515 122.803 63.0041 125.664 62.2511 128.495C61.9514 129.619 60.8565 130.439 59.705 130.439C58.7427 130.439 58.043 129.954 57.5596 129.239C57.6161 130.661 57.5302 132.09 57.2282 133.531C57.046 134.402 56.2415 135.081 55.3874 135.291C55.6955 135.639 55.8183 136.144 55.5229 136.669C54.2706 138.894 51.2448 137.971 51.0403 135.839C50.1857 135.199 49.7885 134.148 49.624 133.013C49.3844 131.356 49.2975 129.728 49.026 128.093L48.9222 128.19L48.8686 128.236L48.8514 128.355C48.6958 129.163 48.2416 129.729 47.6522 130.066C47.7803 131.476 47.5432 132.912 46.652 133.982C46.0584 134.696 45.0471 134.977 44.1803 134.822C44.1258 134.825 44.07 134.825 44.0121 134.817C42.0488 134.555 40.9129 132.686 41.4297 130.971C40.6392 129.999 40.3063 128.765 40.5402 127.546C39.0105 126.529 39.0417 124.297 39.5715 122.503C37.9679 121.233 37.3647 118.859 38.1704 116.972C36.7251 115.17 36.5241 112.66 37.5061 110.609C35.916 109.298 35.9251 106.767 37.5022 105.426C36.6623 103.753 36.1558 101.748 36.9952 100.217C36.403 99.561 36.078 98.6262 36.1465 97.7229C36.2469 96.3964 37.1214 95.4799 38.2065 94.8691L38.2816 94.4542C38.5364 94.486 38.808 94.4145 39.0473 94.1839C39.2842 93.9555 39.528 93.7715 39.7802 93.6197C40.0657 93.616 40.3114 93.4884 40.4843 93.292C40.9571 93.1309 41.4655 93.0597 42.0294 93.0533C43.2474 93.0399 43.2903 91.212 42.1569 91.0935C41.9779 90.9124 41.7314 90.7984 41.4641 90.7984L41.2547 90.7992C40.7653 90.8039 40.2711 90.8341 39.817 91.0295C39.5219 91.1561 39.2943 91.3471 39.1276 91.5806C39.0964 91.9339 38.9049 92.2863 38.4903 92.5772C38.0113 92.9133 37.3563 92.9525 36.8437 92.6484C36.1261 92.2227 36.1188 91.5582 36.2015 90.8358C36.3827 89.2555 35.4773 87.7683 35.6928 86.1516C35.7883 85.4368 36.0255 84.8196 36.4121 84.3212C35.5968 83.0964 35.453 81.5154 36.0807 80.1709C34.7729 78.7589 34.5468 76.5823 35.3808 74.883C35.3928 74.8419 35.4021 74.7997 35.4151 74.7591C35.5094 74.4703 35.6393 74.2099 35.7824 73.9608C35.0503 72.688 35.0557 71.1262 35.7998 69.8588C34.6727 68.5401 34.6369 66.4417 35.6393 65.021C35.6452 64.9033 35.6575 64.7855 35.6675 64.6677C35.2074 63.4691 35.3179 62.1063 35.9015 60.9917C35.6933 60.51 35.5327 59.9914 35.4301 59.439C35.1672 58.0149 35.3025 56.6302 35.6953 55.2406C35.7588 55.0213 35.83 54.8021 35.9061 54.5828C35.9189 53.631 35.955 52.6834 36.0026 51.7375C35.816 50.9369 35.7859 50.057 35.7817 49.2401L35.7806 48.7104C35.7714 47.3624 35.6778 45.3887 36.527 44.2428C35.9818 43.005 36.2059 41.4454 37.116 40.4643C36.4772 39.3617 36.3431 38.0079 36.9851 36.7846C37.0882 36.5877 37.2078 36.4044 37.3389 36.2309C37.2859 35.1106 37.5208 33.9554 38.1157 32.842C38.5021 32.1171 39.0793 31.4896 39.7654 30.9874C39.7539 30.8389 39.7468 30.6905 39.7492 30.5444C39.7613 29.8925 39.9054 29.2379 40.1479 28.6271C39.7126 27.8815 39.5108 27.0411 39.7654 26.1354C40.0502 25.1105 40.7992 24.2284 41.7343 23.7307C41.8097 22.7644 41.9602 21.8038 42.1753 20.8559C41.6006 19.5715 42.0582 17.8764 43.3571 17.1198C43.1877 16.0933 43.3404 15.029 44.0848 14.2272C44.3669 13.9234 44.6993 13.6931 45.057 13.5403C44.8846 12.5082 45.0791 11.4345 45.7903 10.5941C46.3711 9.90789 47.2319 9.49101 48.1078 9.42966C48.4451 7.63452 50.1541 6.29222 51.957 6.39915C52.1824 5.60876 52.7208 4.91962 53.556 4.57025C53.7698 4.48082 53.9859 4.42193 54.2012 4.38916C55.6673 2.90495 57.85 1.89897 59.7397 1.38378C61.6351 0.869077 63.5565 0.819256 65.1839 1.41768L65.3025 1.46263L65.4351 1.44538C66.0098 1.38132 66.584 1.34436 67.1585 1.32958ZM52.7549 122.978C52.2487 122.819 51.684 123.165 51.5468 123.666C51.4019 124.195 51.7245 124.719 52.2327 124.878C52.8659 125.076 53.5309 125.126 54.1908 125.126C54.7214 125.127 55.1728 124.673 55.1728 124.141C55.1728 123.606 54.7233 123.156 54.1908 123.155C53.6542 123.155 53.2579 123.135 52.7549 122.978ZM48.2517 112.512C47.4948 112.512 46.8457 112.694 46.2845 113.226C45.9103 113.581 45.901 114.267 46.2845 114.62C46.6718 114.976 47.2337 114.997 47.6313 114.658L47.7079 114.589C47.7171 114.58 47.7242 114.574 47.73 114.568C47.7619 114.547 47.7941 114.526 47.8279 114.509L47.7639 114.551C47.7151 114.586 47.8282 114.528 47.8917 114.501L47.9117 114.493L47.918 114.491L47.9689 114.487C48.0629 114.482 48.1574 114.483 48.2517 114.483C48.7653 114.482 49.2572 114.03 49.2337 113.497C49.2096 112.963 48.8021 112.511 48.2517 112.512ZM62.5345 106.259C63.5974 105.605 62.648 103.932 61.5819 104.534L61.5434 104.557C60.9969 104.893 60.3247 104.848 59.7055 104.848C58.4419 104.849 58.4397 106.82 59.7055 106.819L59.9148 106.818C60.8224 106.811 61.7404 106.748 62.5345 106.259ZM54.169 99.0647C53.3659 98.913 52.4663 98.7777 51.6213 98.8701L51.481 98.8876H51.221C50.9952 98.8876 50.7764 98.9788 50.6009 99.1222C50.323 99.238 50.0598 99.3932 49.8197 99.6019C48.863 100.434 50.2572 101.824 51.2085 100.996C51.2613 100.95 51.3226 100.912 51.3908 100.881L51.4432 100.859H52.4937C52.5892 100.859 52.6822 100.839 52.7728 100.81C53.1138 100.857 53.4315 100.925 53.6468 100.965C54.8822 101.199 55.4115 99.2993 54.169 99.0647ZM53.2722 80.1475C51.7329 79.431 50.0281 79.4362 48.6045 80.4311C47.5865 81.1425 48.5321 82.8203 49.5588 82.1577L49.5955 82.1331C49.7232 82.0439 49.8543 81.9692 49.9869 81.9015C50.7096 82.1111 51.4371 82.121 52.1359 81.8632L52.2268 81.828L52.2811 81.8492C53.4202 82.3795 54.4189 80.6811 53.2722 80.1475ZM70.0343 77.0591C68.4793 76.8842 68.4668 74.4189 70.0343 74.5953C73.3439 74.9678 76.3469 76.4444 78.5463 78.9802C79.5693 80.1595 77.8846 81.8849 76.8424 80.7581L76.8104 80.7224C75.0614 78.706 72.7012 77.3592 70.0343 77.0591ZM52.6137 64.4019C52.2681 64.3639 51.9231 64.345 51.5836 64.3615C50.7681 64.4009 49.7748 64.9469 50.1327 65.9334C50.4197 66.7238 51.3605 66.7551 51.8249 66.3335C52.0182 66.3382 52.2111 66.351 52.4033 66.3707C52.9162 66.4237 53.4241 66.5218 53.9296 66.6218C55.1643 66.8655 55.6928 64.9661 54.4518 64.7209L53.9029 64.612C53.7179 64.5756 53.5313 64.5401 53.3439 64.5076C53.2317 64.4516 53.1114 64.4139 52.9829 64.4043L52.9179 64.4019H52.6137ZM42.8563 49.1101L42.7409 49.0944C41.0826 48.8815 38.4205 49.0774 38.2193 51.196C38.108 52.3693 39.7971 52.4429 40.1305 51.4397C41.3551 51.2182 42.5897 51.1758 43.8059 51.3103C44.2699 50.8373 44.2736 49.9279 43.5012 49.7009C43.3922 49.4068 43.1646 49.1547 42.8563 49.1101ZM80.7629 45.5319C80.3797 45.1788 79.7512 45.132 79.3741 45.5319C79.1569 45.762 78.9754 46.0178 78.8318 46.2991L78.7362 46.4891C78.7201 46.5207 78.7035 46.552 78.6862 46.583C78.6541 46.6404 78.618 46.6951 78.5829 46.7508L78.5592 46.774C78.5499 46.7836 78.5388 46.7951 78.5257 46.8092C78.1724 47.1839 78.1275 47.8361 78.5257 48.2029C78.9089 48.556 79.5371 48.6028 79.9145 48.2029C80.1315 47.9728 80.3129 47.7173 80.4568 47.4357L80.5522 47.2459C80.5683 47.2144 80.5849 47.1831 80.6021 47.1521C80.6343 47.0945 80.6706 47.0398 80.7055 46.9841L80.7446 46.9449C80.7502 46.9391 80.7563 46.9327 80.7629 46.9257C81.1162 46.5512 81.1609 45.8988 80.7629 45.5319ZM60.6254 42.9653C59.2418 41.9813 57.5964 41.9355 56.3245 43.1193C55.4066 43.9738 56.7552 45.3429 57.6808 44.5423L57.7133 44.5131C57.7469 44.4816 57.7811 44.454 57.8149 44.4276C57.9809 44.5695 58.1918 44.6595 58.4329 44.6597C58.4959 44.6599 58.5588 44.6597 58.6216 44.661L58.7159 44.6644L58.7665 44.6686L58.7729 44.6698L58.8171 44.6887C58.8978 44.7252 59.0093 44.7816 58.8564 44.6856C58.8905 44.7036 58.9224 44.7248 58.9548 44.7454L59.0113 44.7969C59.3815 45.1483 60.022 45.1946 60.3895 44.8061C61.0403 44.5853 61.3858 43.5056 60.6254 42.9653ZM74.1532 39.7365L74.1783 39.7286C75.3916 39.381 74.8758 37.4786 73.6562 37.8278C72.3621 38.1986 71.7442 39.4071 71.4854 40.6449C71.3767 41.1655 71.6376 41.7103 72.1714 41.8573C72.6589 41.9916 73.27 41.6923 73.3795 41.169C73.4562 40.8009 73.5448 40.4887 73.6849 40.199L73.7698 40.0336C73.8094 39.9582 73.8233 39.9457 73.9571 39.8284C73.9796 39.8087 74.0818 39.7609 74.1532 39.7365ZM53.6034 29.8095L53.4136 29.766C52.2316 29.5062 50.6628 29.3705 49.9491 30.5464C49.2985 31.6177 50.9397 32.5929 51.6155 31.5802C51.6258 31.5799 51.6377 31.58 51.6515 31.5811L51.6737 31.5837L51.9767 31.559C52.354 31.5563 52.7151 31.6233 53.0812 31.7103C54.3102 32.0023 54.8348 30.1022 53.6034 29.8095ZM96.0348 22.2322C96.9297 21.3341 95.5414 19.9399 94.6463 20.8387C93.9385 21.549 93.2558 22.2642 92.7957 23.1667C92.5544 23.6403 92.6724 24.236 93.148 24.5152C93.5867 24.7727 94.2491 24.6372 94.4916 24.1616C94.8903 23.3794 95.3936 22.8763 96.0348 22.2322ZM84.7432 19.8748C83.8592 20.4001 83.2869 21.2654 82.9395 22.267C82.7652 22.7696 83.1382 23.3449 83.6255 23.4792C84.1492 23.6236 84.6277 23.3157 84.816 22.8376L84.8333 22.7908C84.9264 22.5229 85.0752 22.2066 85.259 21.9678C85.4162 21.7641 85.6604 21.5601 85.8446 21.4923C86.2872 21.3292 86.6009 20.9266 86.56 20.4565C85.832 20.7091 85.1562 20.4053 84.7432 19.8748ZM58.2789 15.5878C57.387 14.757 56.1905 14.6468 55.1093 15.1497C54.6278 15.3734 54.5073 16.0699 54.757 16.4981C55.0457 16.9936 55.6175 17.0764 56.1004 16.8517C55.9764 16.9094 56.2003 16.8332 56.297 16.8054C56.3094 16.8111 56.4715 16.8037 56.5274 16.8045L56.5947 16.8088C56.5952 16.8093 56.5787 16.809 56.5452 16.8078C56.5923 16.8185 56.6389 16.8313 56.6848 16.846L56.7433 16.8663C56.7139 16.8601 56.8465 16.9469 56.8834 16.9757L56.8901 16.9813C57.8157 17.8434 59.2079 16.4528 58.2789 15.5878Z" fill="black"/>
<path fill-rule="evenodd" clip-rule="evenodd" d="M127.108 95.5007C127.486 94.8436 128.355 94.2348 129.15 94.3281C132.712 94.7465 132.706 99.0715 131.33 101.596C130.111 103.835 127.587 105.15 125.061 104.958C122.407 104.756 120.146 103.193 119.151 100.707C118.492 99.0624 118.188 96.0262 119.939 94.9212C119.972 94.9005 120.025 94.9057 120.051 94.9355C120.89 95.9134 120.923 97.3816 121.658 98.4703C122.342 99.483 123.404 100.319 124.647 100.448C125.576 100.545 126.516 100.209 126.88 99.3741C127.076 98.9223 127.054 98.677 126.98 98.366L126.913 98.0958C126.68 97.1494 126.576 96.4287 127.108 95.5007ZM128.061 76.5329C129.918 77.6638 132.749 80.3009 130.75 83.1045C128.398 85.5766 125.011 82.7422 123.342 81.4603C121.794 80.4669 120.055 83.022 121.491 84.182C133.552 93.1246 138.447 76.8286 129 75.2032C127.96 75.0241 127.574 76.1831 128.061 76.5329ZM108.442 68.7781C109.583 67.0648 112.185 67.3171 112.814 69.3502C113.154 70.4516 112.684 71.4415 112.708 72.5414C112.729 73.4705 112.668 74.5058 112.383 75.4056C111.735 77.4575 109.892 78.9067 107.712 78.8466C105.539 78.7867 103.626 77.4094 102.716 75.4696C101.802 73.5225 101.996 71.5073 102.662 69.5274C102.694 69.4323 102.819 69.3862 102.894 69.4663C103.682 70.305 104.259 71.1904 104.856 72.1297L105.468 73.0923C105.935 73.8172 106.615 74.7432 107.488 74.685L107.619 74.6721C107.861 74.6512 107.824 74.6995 108.011 74.3683C108.098 74.2151 108.082 73.9302 108.124 73.7494L108.138 73.6883L108.13 73.6554C108.112 73.5678 108.094 73.4028 108.079 73.1164L108.076 73.0531C108.012 71.7135 107.634 69.9921 108.442 68.7781ZM137.348 69.9188C137.143 67.7274 140.219 67.2408 141.242 68.8623C141.775 69.7078 141.931 70.77 142.049 71.7763L142.104 72.254C142.225 73.2876 142.273 74.3628 141.825 75.3269C141.119 76.8453 139.585 77.648 137.93 77.5209C136.349 77.3992 134.907 76.4814 134.147 75.0881C133.469 73.8449 132.795 71.4175 133.618 70.1208C133.668 70.0422 133.767 70.0321 133.835 70.0927C134.613 70.7843 134.74 72.0458 135.202 72.9468C135.68 73.8762 136.403 74.7819 137.5 74.923C138.549 75.0581 138.949 74.4842 138.682 73.4827C138.337 72.1897 137.477 71.3101 137.348 69.9188ZM109.273 55.7502L109.776 55.5573C111.5 54.9052 113.866 54.1514 115.268 55.5551C116.132 56.4206 116.297 57.6957 115.68 58.7519C114.932 60.0314 113.591 60.0629 112.296 60.2514C110.823 60.4657 109.325 60.8733 107.954 61.4542C106.409 62.1089 104.975 62.9249 103.571 63.8363C102.236 64.7023 100.906 66.1178 99.3078 66.3846C99.2426 66.3954 99.1686 66.3673 99.1516 66.2957C98.7887 64.7311 99.7972 63.1915 100.697 61.9709C101.786 60.4931 103.105 59.2801 104.58 58.1926C106.003 57.1428 107.629 56.3842 109.273 55.7502ZM140.583 61.3127L140.737 61.2857C141.782 61.1115 142.73 61.1516 143.517 61.9806C144.118 62.6131 144.35 63.4328 144.064 64.2691C143.799 65.0405 143.208 65.8242 142.349 65.9859C139.451 66.5318 136.242 66.4417 133.329 66.0282C131.997 65.839 130.652 65.6074 129.354 65.2423L128.757 65.0689C127.674 64.759 126.433 64.4351 125.646 63.6371C125.363 63.3503 125.527 62.9398 125.865 62.807C127.238 62.2684 129.121 62.555 130.585 62.5128C132.288 62.4641 133.995 62.3362 135.69 62.16C137.347 61.9875 138.95 61.6128 140.583 61.3127Z" fill="black"/>
</svg>
